ISO-10303-21;
HEADER;
FILE_DESCRIPTION (( 'STEP AP214' ),
    '1' );
FILE_NAME ('back_plate_connector.STEP',
    '2025-05-19T07:32:31',
    ( '' ),
    ( '' ),
    'SwSTEP 2.0',
    'SolidWorks 2025',
    '' );
FILE_SCHEMA (( 'AUTOMOTIVE_DESIGN' ));
ENDSEC;

DATA;
#1 = ORIENTED_EDGE ( 'NONE', *, *, #578, .F. ) ;
#2 = CARTESIAN_POINT ( 'NONE',  ( 40.25000000000001421, 0.000000000000000000, -1.000000000000218270 ) ) ;
#3 = CARTESIAN_POINT ( 'NONE',  ( -48.85000000000001563, 0.000000000000000000, 3.000000000000007105 ) ) ;
#4 = ORIENTED_EDGE ( 'NONE', *, *, #227, .T. ) ;
#5 = ADVANCED_FACE ( 'NONE', ( #673, #741, #193 ), #80, .T. ) ;
#6 = CARTESIAN_POINT ( 'NONE',  ( 29.99999999999998934, 7.000000000000000000, 3.000000000000000888 ) ) ;
#7 = CARTESIAN_POINT ( 'NONE',  ( -3.025680481354872750E-16, 5.500000000000010658, -4.999999999999992895 ) ) ;
#8 = ORIENTED_EDGE ( 'NONE', *, *, #38, .T. ) ;
#9 = ADVANCED_FACE ( 'NONE', ( #729 ), #476, .F. ) ;
#10 = DIRECTION ( 'NONE',  ( 0.000000000000000000, 1.000000000000000000, -0.000000000000000000 ) ) ;
#11 = ORIENTED_EDGE ( 'NONE', *, *, #466, .T. ) ;
#12 = VECTOR ( 'NONE', #351, 1000.000000000000000 ) ;
#13 = DIRECTION ( 'NONE',  ( -0.000000000000000000, -1.000000000000000000, -0.000000000000000000 ) ) ;
#14 = AXIS2_PLACEMENT_3D ( 'NONE', #113, #246, #164 ) ;
#15 = AXIS2_PLACEMENT_3D ( 'NONE', #574, #450, #119 ) ;
#16 = VERTEX_POINT ( 'NONE', #734 ) ;
#17 = DIRECTION ( 'NONE',  ( 1.000000000000000000, -0.000000000000000000, 0.000000000000000000 ) ) ;
#18 = EDGE_CURVE ( 'NONE', #610, #554, #461, .T. ) ;
#19 = CARTESIAN_POINT ( 'NONE',  ( -40.25000000000001421, 0.000000000000000000, -0.9999999999999947820 ) ) ;
#20 = ORIENTED_EDGE ( 'NONE', *, *, #196, .F. ) ;
#21 = DIRECTION ( 'NONE',  ( 1.000000000000000000, 2.017120320903263209E-16, 0.000000000000000000 ) ) ;
#22 = CARTESIAN_POINT ( 'NONE',  ( 40.25000000000001421, 0.2999999999999999334, 0.3999999999997798650 ) ) ;
#23 = EDGE_CURVE ( 'NONE', #155, #785, #94, .T. ) ;
#24 = CARTESIAN_POINT ( 'NONE',  ( 48.85000000000001563, 7.000000000000000000, -4.999999999999992895 ) ) ;
#25 = LINE ( 'NONE', #533, #440 ) ;
#26 = ORIENTED_EDGE ( 'NONE', *, *, #23, .F. ) ;
#27 = CARTESIAN_POINT ( 'NONE',  ( 40.25000000000001421, 0.000000000000000000, -1.000000000000218270 ) ) ;
#28 = DIRECTION ( 'NONE',  ( 0.000000000000000000, 1.000000000000000000, -0.000000000000000000 ) ) ;
#29 = AXIS2_PLACEMENT_3D ( 'NONE', #260, #321, #53 ) ;
#30 = CARTESIAN_POINT ( 'NONE',  ( 40.25000000000001421, 0.2999999999999999334, -1.000000000000218270 ) ) ;
#31 = CARTESIAN_POINT ( 'NONE',  ( 50.49999999999999289, 0.000000000000000000, -5.000000000000004441 ) ) ;
#32 = CARTESIAN_POINT ( 'NONE',  ( -31.65000000000001279, 2.900000000000001688, 3.000000000000007105 ) ) ;
#33 = DIRECTION ( 'NONE',  ( -0.000000000000000000, -1.000000000000000000, -0.000000000000000000 ) ) ;
#34 = VERTEX_POINT ( 'NONE', #414 ) ;
#35 = DIRECTION ( 'NONE',  ( -0.000000000000000000, -0.000000000000000000, 1.000000000000000000 ) ) ;
#36 = LINE ( 'NONE', #763, #367 ) ;
#37 = VERTEX_POINT ( 'NONE', #677 ) ;
#38 = EDGE_CURVE ( 'NONE', #305, #66, #84, .T. ) ;
#39 = EDGE_CURVE ( 'NONE', #331, #224, #608, .T. ) ;
#40 = VECTOR ( 'NONE', #33, 1000.000000000000000 ) ;
#41 = VECTOR ( 'NONE', #524, 1000.000000000000000 ) ;
#42 = DIRECTION ( 'NONE',  ( -8.673617379884035472E-16, 0.000000000000000000, 1.000000000000000000 ) ) ;
#43 = VERTEX_POINT ( 'NONE', #725 ) ;
#44 = CIRCLE ( 'NONE', #306, 1.699999999999997957 ) ;
#45 = DIRECTION ( 'NONE',  ( -0.000000000000000000, -1.000000000000000000, -0.000000000000000000 ) ) ;
#46 = EDGE_CURVE ( 'NONE', #77, #34, #132, .T. ) ;
#47 = CARTESIAN_POINT ( 'NONE',  ( 31.65000000000001279, 2.900000000000001688, -8.999999999999994671 ) ) ;
#48 = EDGE_LOOP ( 'NONE', ( #773, #744, #150, #507 ) ) ;
#49 = EDGE_LOOP ( 'NONE', ( #632, #778, #737, #166 ) ) ;
#50 = LINE ( 'NONE', #706, #92 ) ;
#51 = VERTEX_POINT ( 'NONE', #328 ) ;
#52 = ADVANCED_FACE ( 'NONE', ( #356, #153 ), #681, .T. ) ;
#53 = DIRECTION ( 'NONE',  ( 0.000000000000000000, 0.000000000000000000, -1.000000000000000000 ) ) ;
#54 = CLOSED_SHELL ( 'NONE', ( #818, #329, #687, #9, #71, #5, #52, #489, #620, #775, #69, #831, #349, #139, #220, #362, #343, #436, #301, #542, #765, #308, #839, #151, #798, #583 ) ) ;
#55 = DIRECTION ( 'NONE',  ( -0.000000000000000000, -1.000000000000000000, -0.000000000000000000 ) ) ;
#56 = ORIENTED_EDGE ( 'NONE', *, *, #577, .F. ) ;
#57 = CARTESIAN_POINT ( 'NONE',  ( 1.109416176496796996E-15, 5.500000000000010658, -8.999999999999994671 ) ) ;
#58 = LINE ( 'NONE', #255, #629 ) ;
#59 = ORIENTED_EDGE ( 'NONE', *, *, #334, .T. ) ;
#60 = LINE ( 'NONE', #786, #783 ) ;
#61 = FACE_OUTER_BOUND ( 'NONE', #545, .T. ) ;
#62 = VERTEX_POINT ( 'NONE', #32 ) ;
#63 = CARTESIAN_POINT ( 'NONE',  ( 50.49999999999998579, 7.000000000000000000, 4.380176776841436651E-14 ) ) ;
#64 = AXIS2_PLACEMENT_3D ( 'NONE', #805, #333, #541 ) ;
#65 = DIRECTION ( 'NONE',  ( -2.017120320903263209E-16, 1.000000000000000000, 0.000000000000000000 ) ) ;
#66 = VERTEX_POINT ( 'NONE', #284 ) ;
#67 = DIRECTION ( 'NONE',  ( 1.000000000000000000, 0.000000000000000000, 0.000000000000000000 ) ) ;
#68 = CARTESIAN_POINT ( 'NONE',  ( 40.25000000000001421, 2.900000000000001688, -1.000000000000218270 ) ) ;
#69 = ADVANCED_FACE ( 'NONE', ( #815 ), #751, .T. ) ;
#70 = DIRECTION ( 'NONE',  ( -0.000000000000000000, -0.000000000000000000, 1.000000000000000000 ) ) ;
#71 = ADVANCED_FACE ( 'NONE', ( #774, #248, #116 ), #657, .F. ) ;
#72 = DIRECTION ( 'NONE',  ( 1.000000000000000000, -0.000000000000000000, 0.000000000000000000 ) ) ;
#73 = ORIENTED_EDGE ( 'NONE', *, *, #702, .T. ) ;
#74 = DIRECTION ( 'NONE',  ( -0.000000000000000000, -0.000000000000000000, 1.000000000000000000 ) ) ;
#75 = ORIENTED_EDGE ( 'NONE', *, *, #835, .F. ) ;
#76 = LINE ( 'NONE', #806, #12 ) ;
#77 = VERTEX_POINT ( 'NONE', #446 ) ;
#78 = VECTOR ( 'NONE', #339, 1000.000000000000000 ) ;
#79 = FACE_OUTER_BOUND ( 'NONE', #716, .T. ) ;
#80 = PLANE ( 'NONE',  #64 ) ;
#81 = CARTESIAN_POINT ( 'NONE',  ( 48.85000000000001563, 2.900000000000000799, 2.999999999999996003 ) ) ;
#82 = ORIENTED_EDGE ( 'NONE', *, *, #624, .F. ) ;
#83 = CARTESIAN_POINT ( 'NONE',  ( -30.00000000000000711, 7.000000000000000000, 3.000000000000007105 ) ) ;
#84 = LINE ( 'NONE', #668, #452 ) ;
#85 = DIRECTION ( 'NONE',  ( 0.000000000000000000, 1.000000000000000000, -0.000000000000000000 ) ) ;
#86 = VERTEX_POINT ( 'NONE', #454 ) ;
#87 = DIRECTION ( 'NONE',  ( 0.000000000000000000, 0.000000000000000000, -1.000000000000000000 ) ) ;
#88 = DIRECTION ( 'NONE',  ( 0.000000000000000000, 1.000000000000000000, 0.000000000000000000 ) ) ;
#89 = CARTESIAN_POINT ( 'NONE',  ( -40.25000000000001421, 0.000000000000000000, -0.9999999999999947820 ) ) ;
#90 = EDGE_LOOP ( 'NONE', ( #492, #212 ) ) ;
#91 = DIRECTION ( 'NONE',  ( 0.000000000000000000, -1.000000000000000000, 0.000000000000000000 ) ) ;
#92 = VECTOR ( 'NONE', #45, 1000.000000000000000 ) ;
#93 = DIRECTION ( 'NONE',  ( 1.000000000000000000, 0.000000000000000000, -2.538619720941668955E-16 ) ) ;
#94 = CIRCLE ( 'NONE', #130, 10.00000000000000000 ) ;
#95 = DIRECTION ( 'NONE',  ( 0.000000000000000000, 0.000000000000000000, 1.000000000000000000 ) ) ;
#96 = EDGE_LOOP ( 'NONE', ( #703, #817, #178, #420 ) ) ;
#97 = CARTESIAN_POINT ( 'NONE',  ( -22.85857157145715846, 7.000000000000000000, 4.549125528721717012E-15 ) ) ;
#98 = CARTESIAN_POINT ( 'NONE',  ( 0.000000000000000000, 2.900000000000001688, -8.999999999999994671 ) ) ;
#99 = ORIENTED_EDGE ( 'NONE', *, *, #124, .F. ) ;
#100 = CARTESIAN_POINT ( 'NONE',  ( 40.25000000000001421, -2.710505431213761085E-17, -2.700000000000216005 ) ) ;
#101 = ORIENTED_EDGE ( 'NONE', *, *, #39, .F. ) ;
#102 = VECTOR ( 'NONE', #298, 1000.000000000000000 ) ;
#103 = VECTOR ( 'NONE', #547, 1000.000000000000000 ) ;
#104 = DIRECTION ( 'NONE',  ( -0.000000000000000000, -0.000000000000000000, 1.000000000000000000 ) ) ;
#105 = ORIENTED_EDGE ( 'NONE', *, *, #735, .F. ) ;
#106 = AXIS2_PLACEMENT_3D ( 'NONE', #330, #140, #599 ) ;
#107 = DIRECTION ( 'NONE',  ( 3.061616997868383141E-16, -0.000000000000000000, 1.000000000000000000 ) ) ;
#108 = CARTESIAN_POINT ( 'NONE',  ( 48.85000000000001563, 0.000000000000000000, -8.999999999999994671 ) ) ;
#109 = ORIENTED_EDGE ( 'NONE', *, *, #334, .F. ) ;
#110 = ORIENTED_EDGE ( 'NONE', *, *, #18, .T. ) ;
#111 = CARTESIAN_POINT ( 'NONE',  ( 0.000000000000000000, 0.000000000000000000, 3.000000000000007105 ) ) ;
#112 = SHAPE_DEFINITION_REPRESENTATION ( #445, #386 ) ;
#113 = CARTESIAN_POINT ( 'NONE',  ( -22.85857157145715490, 7.000000000000000000, 10.00000000000000711 ) ) ;
#114 = TOROIDAL_SURFACE ( 'NONE', #595, 1.699999999999997957, 0.2999999999999999889 ) ;
#115 = ORIENTED_EDGE ( 'NONE', *, *, #287, .T. ) ;
#116 = FACE_OUTER_BOUND ( 'NONE', #749, .T. ) ;
#117 = AXIS2_PLACEMENT_3D ( 'NONE', #704, #67, #179 ) ;
#118 = ORIENTED_EDGE ( 'NONE', *, *, #274, .T. ) ;
#119 = DIRECTION ( 'NONE',  ( 0.000000000000000000, 0.000000000000000000, 1.000000000000000000 ) ) ;
#120 = EDGE_CURVE ( 'NONE', #474, #299, #123, .T. ) ;
#121 = DIRECTION ( 'NONE',  ( -1.000000000000000000, -2.017120320903263209E-16, 0.000000000000000000 ) ) ;
#122 = ORIENTED_EDGE ( 'NONE', *, *, #466, .F. ) ;
#123 = LINE ( 'NONE', #111, #184 ) ;
#124 = EDGE_CURVE ( 'NONE', #837, #833, #171, .T. ) ;
#125 = VERTEX_POINT ( 'NONE', #126 ) ;
#126 = CARTESIAN_POINT ( 'NONE',  ( 40.25000000000001421, 2.900000000000001688, -2.400000000000216183 ) ) ;
#127 =( GEOMETRIC_REPRESENTATION_CONTEXT ( 3 ) GLOBAL_UNCERTAINTY_ASSIGNED_CONTEXT ( ( #517 ) ) GLOBAL_UNIT_ASSIGNED_CONTEXT ( ( #649, #185, #465 ) ) REPRESENTATION_CONTEXT ( 'NONE', 'WORKASPACE' ) );
#128 = TOROIDAL_SURFACE ( 'NONE', #354, 1.699999999999997957, 0.2999999999999999889 ) ;
#129 = PRODUCT_RELATED_PRODUCT_CATEGORY ( 'part', '', ( #568 ) ) ;
#130 = AXIS2_PLACEMENT_3D ( 'NONE', #467, #28, #405 ) ;
#131 = DIRECTION ( 'NONE',  ( -1.000000000000000000, 0.000000000000000000, 0.000000000000000000 ) ) ;
#132 = LINE ( 'NONE', #399, #383 ) ;
#133 = LINE ( 'NONE', #264, #585 ) ;
#134 = EDGE_CURVE ( 'NONE', #843, #350, #496, .T. ) ;
#135 = VERTEX_POINT ( 'NONE', #191 ) ;
#136 = CARTESIAN_POINT ( 'NONE',  ( 40.25000000000001421, 3.000000000000000000, -1.000000000000218270 ) ) ;
#137 = DIRECTION ( 'NONE',  ( 0.000000000000000000, 0.000000000000000000, 1.000000000000000000 ) ) ;
#138 = CARTESIAN_POINT ( 'NONE',  ( -31.65000000000001279, 5.500000000000005329, -8.999999999999994671 ) ) ;
#139 = ADVANCED_FACE ( 'NONE', ( #459 ), #714, .T. ) ;
#140 = DIRECTION ( 'NONE',  ( -0.000000000000000000, -1.000000000000000000, 0.000000000000000000 ) ) ;
#141 = VERTEX_POINT ( 'NONE', #841 ) ;
#142 = CIRCLE ( 'NONE', #628, 0.2999999999999999334 ) ;
#143 = LINE ( 'NONE', #686, #723 ) ;
#144 = ORIENTED_EDGE ( 'NONE', *, *, #652, .F. ) ;
#145 = CARTESIAN_POINT ( 'NONE',  ( 40.25000000000001421, 0.2999999999999999334, -1.000000000000218270 ) ) ;
#146 = ORIENTED_EDGE ( 'NONE', *, *, #519, .F. ) ;
#147 = DIRECTION ( 'NONE',  ( -0.000000000000000000, -0.000000000000000000, 1.000000000000000000 ) ) ;
#148 = ORIENTED_EDGE ( 'NONE', *, *, #187, .F. ) ;
#149 = DIRECTION ( 'NONE',  ( 8.673617379884035472E-16, 0.000000000000000000, -1.000000000000000000 ) ) ;
#150 = ORIENTED_EDGE ( 'NONE', *, *, #384, .T. ) ;
#151 = ADVANCED_FACE ( 'NONE', ( #512 ), #176, .F. ) ;
#152 = CARTESIAN_POINT ( 'NONE',  ( 31.65000000000001279, 7.000000000000000000, -4.999999999999992895 ) ) ;
#153 = FACE_BOUND ( 'NONE', #444, .T. ) ;
#154 = CARTESIAN_POINT ( 'NONE',  ( -50.50000000000001421, 7.000000000000000000, -4.999999999999992895 ) ) ;
#155 = VERTEX_POINT ( 'NONE', #391 ) ;
#156 = DIRECTION ( 'NONE',  ( 0.000000000000000000, 0.000000000000000000, 1.000000000000000000 ) ) ;
#157 = AXIS2_PLACEMENT_3D ( 'NONE', #847, #404, #137 ) ;
#158 = EDGE_CURVE ( 'NONE', #692, #155, #515, .T. ) ;
#159 = DIRECTION ( 'NONE',  ( 0.000000000000000000, -0.000000000000000000, -1.000000000000000000 ) ) ;
#160 = ORIENTED_EDGE ( 'NONE', *, *, #602, .F. ) ;
#161 = CARTESIAN_POINT ( 'NONE',  ( 0.000000000000000000, 7.000000000000000000, 3.000000000000007105 ) ) ;
#162 = FACE_OUTER_BOUND ( 'NONE', #601, .T. ) ;
#163 = ORIENTED_EDGE ( 'NONE', *, *, #187, .T. ) ;
#164 = DIRECTION ( 'NONE',  ( 0.000000000000000000, 0.000000000000000000, -1.000000000000000000 ) ) ;
#165 = CARTESIAN_POINT ( 'NONE',  ( 40.25000000000001421, 2.900000000000001688, -1.000000000000218270 ) ) ;
#166 = ORIENTED_EDGE ( 'NONE', *, *, #510, .F. ) ;
#167 = PRESENTATION_LAYER_ASSIGNMENT (  '', '', ( #770 ) ) ;
#168 = AXIS2_PLACEMENT_3D ( 'NONE', #457, #317, #327 ) ;
#169 = CARTESIAN_POINT ( 'NONE',  ( 7.615859162825029051E-16, 7.000000000000000000, 3.000000000000008882 ) ) ;
#170 = ORIENTED_EDGE ( 'NONE', *, *, #551, .T. ) ;
#171 = CIRCLE ( 'NONE', #811, 0.2999999999999999334 ) ;
#172 = DIRECTION ( 'NONE',  ( 1.000000000000000000, 0.000000000000000000, 0.000000000000000000 ) ) ;
#173 = EDGE_CURVE ( 'NONE', #695, #37, #60, .T. ) ;
#174 = PLANE ( 'NONE',  #480 ) ;
#175 = ORIENTED_EDGE ( 'NONE', *, *, #659, .T. ) ;
#176 = CYLINDRICAL_SURFACE ( 'NONE', #827, 10.00000000000000000 ) ;
#177 = EDGE_CURVE ( 'NONE', #350, #837, #380, .T. ) ;
#178 = ORIENTED_EDGE ( 'NONE', *, *, #567, .F. ) ;
#179 = DIRECTION ( 'NONE',  ( 0.000000000000000000, 0.000000000000000000, -1.000000000000000000 ) ) ;
#180 = EDGE_CURVE ( 'NONE', #135, #695, #590, .T. ) ;
#181 = CIRCLE ( 'NONE', #239, 1.399999999999998135 ) ;
#182 = ORIENTED_EDGE ( 'NONE', *, *, #510, .T. ) ;
#183 = DIRECTION ( 'NONE',  ( -0.000000000000000000, -1.000000000000000000, -0.000000000000000000 ) ) ;
#184 = VECTOR ( 'NONE', #721, 1000.000000000000000 ) ;
#185 =( NAMED_UNIT ( * ) PLANE_ANGLE_UNIT ( ) SI_UNIT ( $, .RADIAN. ) );
#186 = EDGE_LOOP ( 'NONE', ( #479, #286, #753, #302 ) ) ;
#187 = EDGE_CURVE ( 'NONE', #331, #305, #580, .T. ) ;
#188 = DIRECTION ( 'NONE',  ( 0.000000000000000000, -1.000000000000000000, 0.000000000000000000 ) ) ;
#189 = CARTESIAN_POINT ( 'NONE',  ( -31.65000000000001279, 5.500000000000005329, 3.000000000000007105 ) ) ;
#190 = ORIENTED_EDGE ( 'NONE', *, *, #398, .F. ) ;
#191 = CARTESIAN_POINT ( 'NONE',  ( 50.49999999999999289, 7.000000000000000000, -5.000000000000004441 ) ) ;
#192 = LINE ( 'NONE', #3, #494 ) ;
#193 = FACE_BOUND ( 'NONE', #340, .T. ) ;
#194 = LINE ( 'NONE', #605, #529 ) ;
#195 = VECTOR ( 'NONE', #91, 1000.000000000000000 ) ;
#196 = EDGE_CURVE ( 'NONE', #350, #843, #669, .T. ) ;
#197 = ORIENTED_EDGE ( 'NONE', *, *, #578, .T. ) ;
#198 = DIRECTION ( 'NONE',  ( 0.000000000000000000, -1.000000000000000000, 0.000000000000000000 ) ) ;
#199 = VERTEX_POINT ( 'NONE', #311 ) ;
#200 = CARTESIAN_POINT ( 'NONE',  ( -7.498798913309280595E-31, 0.000000000000000000, -2.449293598294704146E-15 ) ) ;
#201 = EDGE_CURVE ( 'NONE', #431, #345, #44, .T. ) ;
#202 = VERTEX_POINT ( 'NONE', #520 ) ;
#203 = DIRECTION ( 'NONE',  ( -0.000000000000000000, 1.000000000000000000, -0.000000000000000000 ) ) ;
#204 = ORIENTED_EDGE ( 'NONE', *, *, #180, .T. ) ;
#205 = DIRECTION ( 'NONE',  ( 0.000000000000000000, 0.000000000000000000, -1.000000000000000000 ) ) ;
#206 = EDGE_LOOP ( 'NONE', ( #365, #484, #148, #505 ) ) ;
#207 = CARTESIAN_POINT ( 'NONE',  ( -40.25000000000001421, 0.2999999999999999334, -2.399999999999990585 ) ) ;
#208 = ORIENTED_EDGE ( 'NONE', *, *, #215, .F. ) ;
#209 = VECTOR ( 'NONE', #784, 1000.000000000000000 ) ;
#210 = AXIS2_PLACEMENT_3D ( 'NONE', #447, #766, #172 ) ;
#211 = DIRECTION ( 'NONE',  ( -0.000000000000000000, -1.000000000000000000, 0.000000000000000000 ) ) ;
#212 = ORIENTED_EDGE ( 'NONE', *, *, #374, .T. ) ;
#213 = DIRECTION ( 'NONE',  ( -0.000000000000000000, -1.000000000000000000, 0.000000000000000000 ) ) ;
#214 = ORIENTED_EDGE ( 'NONE', *, *, #804, .T. ) ;
#215 = EDGE_CURVE ( 'NONE', #310, #572, #795, .T. ) ;
#216 = DIRECTION ( 'NONE',  ( -1.000000000000000000, -2.017120320903263209E-16, 0.000000000000000000 ) ) ;
#217 = CARTESIAN_POINT ( 'NONE',  ( 50.49999999999998579, 7.000000000000000000, 4.380176776841436651E-14 ) ) ;
#218 = DIRECTION ( 'NONE',  ( -0.000000000000000000, -1.000000000000000000, 0.000000000000000000 ) ) ;
#219 = VERTEX_POINT ( 'NONE', #245 ) ;
#220 = ADVANCED_FACE ( 'NONE', ( #509 ), #644, .T. ) ;
#221 = EDGE_CURVE ( 'NONE', #785, #325, #194, .T. ) ;
#222 = CARTESIAN_POINT ( 'NONE',  ( 40.25000000000001421, 3.000000000000000000, -1.000000000000218270 ) ) ;
#223 = CARTESIAN_POINT ( 'NONE',  ( 0.000000000000000000, 2.900000000000001688, -8.999999999999994671 ) ) ;
#224 = VERTEX_POINT ( 'NONE', #473 ) ;
#225 = VECTOR ( 'NONE', #104, 1000.000000000000000 ) ;
#226 = DIRECTION ( 'NONE',  ( 0.000000000000000000, 0.000000000000000000, 1.000000000000000000 ) ) ;
#227 = EDGE_CURVE ( 'NONE', #51, #135, #402, .T. ) ;
#228 = AXIS2_PLACEMENT_3D ( 'NONE', #161, #672, #423 ) ;
#229 = VECTOR ( 'NONE', #639, 1000.000000000000000 ) ;
#230 = DIRECTION ( 'NONE',  ( 1.000000000000000000, 0.000000000000000000, 1.224646799147353207E-16 ) ) ;
#231 = ORIENTED_EDGE ( 'NONE', *, *, #316, .T. ) ;
#232 = APPLICATION_PROTOCOL_DEFINITION ( 'draft international standard', 'automotive_design', 1998, #282 ) ;
#233 = CARTESIAN_POINT ( 'NONE',  ( -31.65000000000001279, 0.000000000000000000, 3.000000000000007105 ) ) ;
#234 = CARTESIAN_POINT ( 'NONE',  ( -40.25000000000001421, 0.2999999999999999334, -0.9999999999999947820 ) ) ;
#235 = VERTEX_POINT ( 'NONE', #463 ) ;
#236 = DIRECTION ( 'NONE',  ( -0.000000000000000000, -1.000000000000000000, -0.000000000000000000 ) ) ;
#237 = EDGE_LOOP ( 'NONE', ( #747, #427, #387, #761 ) ) ;
#238 = DIRECTION ( 'NONE',  ( 0.000000000000000000, 1.000000000000000000, -0.000000000000000000 ) ) ;
#239 = AXIS2_PLACEMENT_3D ( 'NONE', #30, #213, #523 ) ;
#240 = AXIS2_PLACEMENT_3D ( 'NONE', #19, #754, #156 ) ;
#241 = ORIENTED_EDGE ( 'NONE', *, *, #536, .F. ) ;
#242 = AXIS2_PLACEMENT_3D ( 'NONE', #57, #782, #792 ) ;
#243 = PRODUCT_DEFINITION_CONTEXT ( 'detailed design', #428, 'design' ) ;
#244 = ORIENTED_EDGE ( 'NONE', *, *, #707, .F. ) ;
#245 = CARTESIAN_POINT ( 'NONE',  ( -48.85000000000001563, 5.500000000000001776, -4.999999999999992895 ) ) ;
#246 = DIRECTION ( 'NONE',  ( 0.000000000000000000, -1.000000000000000000, 0.000000000000000000 ) ) ;
#247 = ORIENTED_EDGE ( 'NONE', *, *, #645, .T. ) ;
#248 = FACE_BOUND ( 'NONE', #268, .T. ) ;
#249 = CARTESIAN_POINT ( 'NONE',  ( 40.25000000000001421, 3.000000000000000000, 0.3999999999997798650 ) ) ;
#250 = EDGE_CURVE ( 'NONE', #141, #679, #724, .T. ) ;
#251 = AXIS2_PLACEMENT_3D ( 'NONE', #223, #357, #159 ) ;
#252 = ORIENTED_EDGE ( 'NONE', *, *, #378, .T. ) ;
#253 = CIRCLE ( 'NONE', #846, 10.00000000000000000 ) ;
#254 = DIRECTION ( 'NONE',  ( -0.000000000000000000, -0.000000000000000000, 1.000000000000000000 ) ) ;
#255 = CARTESIAN_POINT ( 'NONE',  ( -48.85000000000001563, 2.900000000000001688, -8.999999999999994671 ) ) ;
#256 = ORIENTED_EDGE ( 'NONE', *, *, #134, .T. ) ;
#257 = DIRECTION ( 'NONE',  ( 0.000000000000000000, 0.000000000000000000, 1.000000000000000000 ) ) ;
#258 = LINE ( 'NONE', #200, #41 ) ;
#259 = ORIENTED_EDGE ( 'NONE', *, *, #804, .F. ) ;
#260 = CARTESIAN_POINT ( 'NONE',  ( -40.25000000000001421, 2.900000000000001688, -0.9999999999999947820 ) ) ;
#261 = EDGE_CURVE ( 'NONE', #650, #37, #736, .T. ) ;
#262 = LINE ( 'NONE', #249, #696 ) ;
#263 = DIRECTION ( 'NONE',  ( -0.000000000000000000, -1.000000000000000000, -0.000000000000000000 ) ) ;
#264 = CARTESIAN_POINT ( 'NONE',  ( 7.615859162825029051E-16, 0.000000000000000000, 3.000000000000008882 ) ) ;
#265 = VERTEX_POINT ( 'NONE', #483 ) ;
#266 = EDGE_CURVE ( 'NONE', #224, #829, #661, .T. ) ;
#267 = VECTOR ( 'NONE', #55, 1000.000000000000000 ) ;
#268 = EDGE_LOOP ( 'NONE', ( #579, #115 ) ) ;
#269 = FACE_OUTER_BOUND ( 'NONE', #708, .T. ) ;
#270 = EDGE_CURVE ( 'NONE', #219, #610, #411, .T. ) ;
#271 = ORIENTED_EDGE ( 'NONE', *, *, #735, .T. ) ;
#272 = DIRECTION ( 'NONE',  ( -0.000000000000000000, -1.000000000000000000, -0.000000000000000000 ) ) ;
#273 = LINE ( 'NONE', #83, #78 ) ;
#274 = EDGE_CURVE ( 'NONE', #610, #265, #25, .T. ) ;
#275 = ORIENTED_EDGE ( 'NONE', *, *, #471, .T. ) ;
#276 = CARTESIAN_POINT ( 'NONE',  ( 48.85000000000001563, 2.900000000000001688, -4.999999999999992895 ) ) ;
#277 = ORIENTED_EDGE ( 'NONE', *, *, #652, .T. ) ;
#278 = MECHANICAL_DESIGN_GEOMETRIC_PRESENTATION_REPRESENTATION (  '', ( #770 ), #127 ) ;
#279 = CARTESIAN_POINT ( 'NONE',  ( -50.50000000000002132, 7.000000000000000000, -4.380176776841439807E-14 ) ) ;
#280 = ORIENTED_EDGE ( 'NONE', *, *, #312, .T. ) ;
#281 = CARTESIAN_POINT ( 'NONE',  ( 40.25000000000001421, 0.2999999999999999334, -2.700000000000216005 ) ) ;
#282 = APPLICATION_CONTEXT ( 'automotive_design' ) ;
#283 = DIRECTION ( 'NONE',  ( 0.000000000000000000, 1.000000000000000000, -0.000000000000000000 ) ) ;
#284 = CARTESIAN_POINT ( 'NONE',  ( 31.65000000000001279, 2.900000000000001688, 3.000000000000007105 ) ) ;
#285 = CARTESIAN_POINT ( 'NONE',  ( -31.65000000000001279, 0.000000000000000000, -8.999999999999994671 ) ) ;
#286 = ORIENTED_EDGE ( 'NONE', *, *, #173, .F. ) ;
#287 = EDGE_CURVE ( 'NONE', #572, #833, #742, .T. ) ;
#288 = LINE ( 'NONE', #152, #195 ) ;
#289 = LINE ( 'NONE', #47, #225 ) ;
#290 = EDGE_LOOP ( 'NONE', ( #534, #665, #834, #99 ) ) ;
#291 = EDGE_CURVE ( 'NONE', #37, #155, #133, .T. ) ;
#292 = VECTOR ( 'NONE', #236, 1000.000000000000000 ) ;
#293 = AXIS2_PLACEMENT_3D ( 'NONE', #68, #470, #732 ) ;
#294 = VECTOR ( 'NONE', #748, 1000.000000000000000 ) ;
#295 = LINE ( 'NONE', #591, #477 ) ;
#296 = ORIENTED_EDGE ( 'NONE', *, *, #374, .F. ) ;
#297 = CARTESIAN_POINT ( 'NONE',  ( -40.25000000000001421, 2.900000000000001688, -2.399999999999990585 ) ) ;
#298 = DIRECTION ( 'NONE',  ( 1.000000000000000000, 0.000000000000000000, 0.000000000000000000 ) ) ;
#299 = VERTEX_POINT ( 'NONE', #478 ) ;
#300 = CARTESIAN_POINT ( 'NONE',  ( 22.85857157145712648, 0.000000000000000000, -9.447712725311116627E-15 ) ) ;
#301 = ADVANCED_FACE ( 'NONE', ( #468 ), #415, .F. ) ;
#302 = ORIENTED_EDGE ( 'NONE', *, *, #158, .T. ) ;
#303 = DIRECTION ( 'NONE',  ( 0.000000000000000000, 0.000000000000000000, 1.000000000000000000 ) ) ;
#304 = VECTOR ( 'NONE', #429, 1000.000000000000000 ) ;
#305 = VERTEX_POINT ( 'NONE', #81 ) ;
#306 = AXIS2_PLACEMENT_3D ( 'NONE', #2, #587, #257 ) ;
#307 = DIRECTION ( 'NONE',  ( 1.000000000000000000, 0.000000000000000000, 1.224646799147353207E-16 ) ) ;
#308 = ADVANCED_FACE ( 'NONE', ( #593 ), #528, .F. ) ;
#309 = CARTESIAN_POINT ( 'NONE',  ( 0.000000000000000000, 7.000000000000000000, 0.000000000000000000 ) ) ;
#310 = VERTEX_POINT ( 'NONE', #207 ) ;
#311 = CARTESIAN_POINT ( 'NONE',  ( -50.50000000000002132, 7.000000000000000000, 3.000000000000007105 ) ) ;
#312 = EDGE_CURVE ( 'NONE', #202, #650, #544, .T. ) ;
#313 = CARTESIAN_POINT ( 'NONE',  ( -48.85000000000001563, 2.900000000000001688, 3.000000000000007105 ) ) ;
#314 = ORIENTED_EDGE ( 'NONE', *, *, #201, .T. ) ;
#315 = DIRECTION ( 'NONE',  ( -0.000000000000000000, -1.000000000000000000, -0.000000000000000000 ) ) ;
#316 = EDGE_CURVE ( 'NONE', #299, #202, #664, .T. ) ;
#317 = DIRECTION ( 'NONE',  ( 0.000000000000000000, 1.000000000000000000, -0.000000000000000000 ) ) ;
#318 = AXIS2_PLACEMENT_3D ( 'NONE', #790, #131, #787 ) ;
#319 = ORIENTED_EDGE ( 'NONE', *, *, #291, .T. ) ;
#320 = VECTOR ( 'NONE', #460, 1000.000000000000000 ) ;
#321 = DIRECTION ( 'NONE',  ( 0.000000000000000000, -1.000000000000000000, 0.000000000000000000 ) ) ;
#322 = VECTOR ( 'NONE', #88, 1000.000000000000000 ) ;
#323 = SURFACE_STYLE_FILL_AREA ( #397 ) ;
#324 = EDGE_CURVE ( 'NONE', #325, #679, #76, .T. ) ;
#325 = VERTEX_POINT ( 'NONE', #743 ) ;
#326 = DIRECTION ( 'NONE',  ( 8.673617379884035472E-16, 0.000000000000000000, -1.000000000000000000 ) ) ;
#327 = DIRECTION ( 'NONE',  ( 0.000000000000000000, 0.000000000000000000, 1.000000000000000000 ) ) ;
#328 = CARTESIAN_POINT ( 'NONE',  ( -50.50000000000001421, 7.000000000000000000, -4.999999999999992895 ) ) ;
#329 = ADVANCED_FACE ( 'NONE', ( #613 ), #114, .T. ) ;
#330 = CARTESIAN_POINT ( 'NONE',  ( -22.85857157145715490, 7.000000000000000000, 10.00000000000000711 ) ) ;
#331 = VERTEX_POINT ( 'NONE', #276 ) ;
#332 = PRESENTATION_STYLE_ASSIGNMENT (( #588 ) ) ;
#333 = DIRECTION ( 'NONE',  ( 0.000000000000000000, 0.000000000000000000, -1.000000000000000000 ) ) ;
#334 = EDGE_CURVE ( 'NONE', #769, #86, #181, .T. ) ;
#335 = DIRECTION ( 'NONE',  ( -1.000000000000000000, 0.000000000000000000, 2.538619720941668955E-16 ) ) ;
#336 = ORIENTED_EDGE ( 'NONE', *, *, #425, .F. ) ;
#337 = EDGE_CURVE ( 'NONE', #51, #202, #400, .T. ) ;
#338 = VECTOR ( 'NONE', #609, 1000.000000000000000 ) ;
#339 = DIRECTION ( 'NONE',  ( -0.000000000000000000, -1.000000000000000000, -0.000000000000000000 ) ) ;
#340 = EDGE_LOOP ( 'NONE', ( #277, #826, #379, #182 ) ) ;
#341 = CARTESIAN_POINT ( 'NONE',  ( -48.85000000000001563, 0.000000000000000000, -8.999999999999994671 ) ) ;
#342 = EDGE_LOOP ( 'NONE', ( #764, #594, #684, #526 ) ) ;
#343 = ADVANCED_FACE ( 'NONE', ( #683 ), #360, .F. ) ;
#344 = CARTESIAN_POINT ( 'NONE',  ( -31.65000000000001279, 5.500000000000005329, -4.999999999999992895 ) ) ;
#345 = VERTEX_POINT ( 'NONE', #100 ) ;
#346 = DIRECTION ( 'NONE',  ( 0.000000000000000000, 0.000000000000000000, 1.000000000000000000 ) ) ;
#347 = EDGE_LOOP ( 'NONE', ( #146, #56, #802, #175 ) ) ;
#348 = LINE ( 'NONE', #603, #439 ) ;
#349 = ADVANCED_FACE ( 'NONE', ( #434, #622 ), #564, .T. ) ;
#350 = VERTEX_POINT ( 'NONE', #371 ) ;
#351 = DIRECTION ( 'NONE',  ( -1.000000000000000000, 0.000000000000000000, 3.061616997868382648E-16 ) ) ;
#352 = ORIENTED_EDGE ( 'NONE', *, *, #158, .F. ) ;
#353 = AXIS2_PLACEMENT_3D ( 'NONE', #285, #491, #426 ) ;
#354 = AXIS2_PLACEMENT_3D ( 'NONE', #448, #438, #303 ) ;
#355 = DIRECTION ( 'NONE',  ( -0.000000000000000000, -1.000000000000000000, 0.000000000000000000 ) ) ;
#356 = FACE_OUTER_BOUND ( 'NONE', #186, .T. ) ;
#357 = DIRECTION ( 'NONE',  ( 0.000000000000000000, -1.000000000000000000, 0.000000000000000000 ) ) ;
#358 = EDGE_LOOP ( 'NONE', ( #314, #73 ) ) ;
#359 = DIRECTION ( 'NONE',  ( -1.000000000000000000, 0.000000000000000000, 0.000000000000000000 ) ) ;
#360 = PLANE ( 'NONE',  #353 ) ;
#361 = ORIENTED_EDGE ( 'NONE', *, *, #18, .F. ) ;
#362 = ADVANCED_FACE ( 'NONE', ( #832 ), #631, .T. ) ;
#363 = FACE_OUTER_BOUND ( 'NONE', #482, .T. ) ;
#364 = CARTESIAN_POINT ( 'NONE',  ( -50.50000000000002132, 7.000000000000000000, -4.380176776841439807E-14 ) ) ;
#365 = ORIENTED_EDGE ( 'NONE', *, *, #366, .T. ) ;
#366 = EDGE_CURVE ( 'NONE', #235, #66, #289, .T. ) ;
#367 = VECTOR ( 'NONE', #816, 1000.000000000000000 ) ;
#368 = DIRECTION ( 'NONE',  ( 0.000000000000000000, -1.000000000000000000, 0.000000000000000000 ) ) ;
#369 = AXIS2_PLACEMENT_3D ( 'NONE', #485, #211, #680 ) ;
#370 = VECTOR ( 'NONE', #21, 1000.000000000000000 ) ;
#371 = CARTESIAN_POINT ( 'NONE',  ( -40.25000000000001421, 2.900000000000001688, 0.4000000000000010214 ) ) ;
#372 = ORIENTED_EDGE ( 'NONE', *, *, #177, .F. ) ;
#373 = CARTESIAN_POINT ( 'NONE',  ( -40.25000000000001421, -2.710505431213761085E-17, 0.7000000000000009548 ) ) ;
#374 = EDGE_CURVE ( 'NONE', #43, #125, #682, .T. ) ;
#375 = LINE ( 'NONE', #549, #421 ) ;
#376 = ORIENTED_EDGE ( 'NONE', *, *, #536, .T. ) ;
#377 = FACE_OUTER_BOUND ( 'NONE', #390, .T. ) ;
#378 = EDGE_CURVE ( 'NONE', #310, #837, #525, .T. ) ;
#379 = ORIENTED_EDGE ( 'NONE', *, *, #39, .T. ) ;
#380 = LINE ( 'NONE', #844, #685 ) ;
#381 = AXIS2_PLACEMENT_3D ( 'NONE', #433, #767, #693 ) ;
#382 = ORIENTED_EDGE ( 'NONE', *, *, #201, .F. ) ;
#383 = VECTOR ( 'NONE', #70, 1000.000000000000000 ) ;
#384 = EDGE_CURVE ( 'NONE', #522, #62, #825, .T. ) ;
#385 = DIRECTION ( 'NONE',  ( 0.000000000000000000, 1.000000000000000000, 0.000000000000000000 ) ) ;
#386 = ADVANCED_BREP_SHAPE_REPRESENTATION ( 'back_plate_connector', ( #539, #210 ), #598 ) ;
#387 = ORIENTED_EDGE ( 'NONE', *, *, #634, .F. ) ;
#388 = CARTESIAN_POINT ( 'NONE',  ( 22.85857157145713003, 7.000000000000000000, 9.999999999999989342 ) ) ;
#389 = LINE ( 'NONE', #658, #320 ) ;
#390 = EDGE_LOOP ( 'NONE', ( #638, #105, #788, #548, #689, #197, #586, #514 ) ) ;
#391 = CARTESIAN_POINT ( 'NONE',  ( 29.99999999999998934, 0.000000000000000000, 3.000000000000000888 ) ) ;
#392 = SURFACE_SIDE_STYLE ('',( #323 ) ) ;
#393 = EDGE_LOOP ( 'NONE', ( #163, #259, #442, #101 ) ) ;
#394 = VECTOR ( 'NONE', #216, 1000.000000000000000 ) ;
#395 = DIRECTION ( 'NONE',  ( -1.000000000000000000, 0.000000000000000000, 0.000000000000000000 ) ) ;
#396 = VECTOR ( 'NONE', #183, 1000.000000000000000 ) ;
#397 = FILL_AREA_STYLE ('',( #842 ) ) ;
#398 = EDGE_CURVE ( 'NONE', #125, #86, #768, .T. ) ;
#399 = CARTESIAN_POINT ( 'NONE',  ( 31.65000000000001279, 5.500000000000005329, -8.999999999999994671 ) ) ;
#400 = LINE ( 'NONE', #154, #40 ) ;
#401 = ORIENTED_EDGE ( 'NONE', *, *, #728, .T. ) ;
#402 = LINE ( 'NONE', #678, #408 ) ;
#403 = ORIENTED_EDGE ( 'NONE', *, *, #777, .T. ) ;
#404 = DIRECTION ( 'NONE',  ( -0.000000000000000000, -1.000000000000000000, 0.000000000000000000 ) ) ;
#405 = DIRECTION ( 'NONE',  ( 0.000000000000000000, 0.000000000000000000, 1.000000000000000000 ) ) ;
#406 = CARTESIAN_POINT ( 'NONE',  ( 48.85000000000001563, 5.500000000000001776, -8.999999999999994671 ) ) ;
#407 = ORIENTED_EDGE ( 'NONE', *, *, #645, .F. ) ;
#408 = VECTOR ( 'NONE', #72, 1000.000000000000000 ) ;
#409 = CYLINDRICAL_SURFACE ( 'NONE', #506, 1.399999999999995914 ) ;
#410 = ORIENTED_EDGE ( 'NONE', *, *, #560, .F. ) ;
#411 = LINE ( 'NONE', #796, #370 ) ;
#412 = ORIENTED_EDGE ( 'NONE', *, *, #261, .T. ) ;
#413 = PLANE ( 'NONE',  #462 ) ;
#414 = CARTESIAN_POINT ( 'NONE',  ( 31.65000000000001279, 5.500000000000005329, 3.000000000000007105 ) ) ;
#415 = PLANE ( 'NONE',  #697 ) ;
#416 = FACE_OUTER_BOUND ( 'NONE', #720, .T. ) ;
#417 = EDGE_CURVE ( 'NONE', #679, #532, #553, .T. ) ;
#418 = DIRECTION ( 'NONE',  ( 2.538619720941668955E-16, -0.000000000000000000, 1.000000000000000000 ) ) ;
#419 = CARTESIAN_POINT ( 'NONE',  ( 40.25000000000001421, 3.000000000000000000, -2.400000000000216183 ) ) ;
#420 = ORIENTED_EDGE ( 'NONE', *, *, #221, .T. ) ;
#421 = VECTOR ( 'NONE', #556, 1000.000000000000000 ) ;
#422 = AXIS2_PLACEMENT_3D ( 'NONE', #808, #355, #555 ) ;
#423 = DIRECTION ( 'NONE',  ( 1.000000000000000000, 0.000000000000000000, -0.000000000000000000 ) ) ;
#424 = AXIS2_PLACEMENT_3D ( 'NONE', #709, #307, #789 ) ;
#425 = EDGE_CURVE ( 'NONE', #86, #345, #142, .T. ) ;
#426 = DIRECTION ( 'NONE',  ( 0.000000000000000000, 0.000000000000000000, -1.000000000000000000 ) ) ;
#427 = ORIENTED_EDGE ( 'NONE', *, *, #270, .F. ) ;
#428 = APPLICATION_CONTEXT ( 'automotive_design' ) ;
#429 = DIRECTION ( 'NONE',  ( 0.000000000000000000, 1.000000000000000000, -0.000000000000000000 ) ) ;
#430 = PLANE ( 'NONE',  #845 ) ;
#431 = VERTEX_POINT ( 'NONE', #504 ) ;
#432 = EDGE_CURVE ( 'NONE', #695, #692, #498, .T. ) ;
#433 = CARTESIAN_POINT ( 'NONE',  ( -40.25000000000001421, 0.2999999999999999334, -0.9999999999999947820 ) ) ;
#434 = FACE_BOUND ( 'NONE', #90, .T. ) ;
#435 = ORIENTED_EDGE ( 'NONE', *, *, #173, .T. ) ;
#436 = ADVANCED_FACE ( 'NONE', ( #820, #699 ), #688, .F. ) ;
#437 = VECTOR ( 'NONE', #17, 1000.000000000000000 ) ;
#438 = DIRECTION ( 'NONE',  ( 0.000000000000000000, 1.000000000000000000, -0.000000000000000000 ) ) ;
#439 = VECTOR ( 'NONE', #147, 1000.000000000000000 ) ;
#440 = VECTOR ( 'NONE', #198, 1000.000000000000000 ) ;
#441 = DIRECTION ( 'NONE',  ( -1.000000000000000000, 0.000000000000000000, 2.538619720941668955E-16 ) ) ;
#442 = ORIENTED_EDGE ( 'NONE', *, *, #266, .F. ) ;
#443 =( NAMED_UNIT ( * ) SI_UNIT ( $, .STERADIAN. ) SOLID_ANGLE_UNIT ( ) );
#444 = EDGE_LOOP ( 'NONE', ( #214, #8, #663, #275 ) ) ;
#445 = PRODUCT_DEFINITION_SHAPE ( 'NONE', 'NONE',  #733 ) ;
#446 = CARTESIAN_POINT ( 'NONE',  ( 31.65000000000001279, 5.500000000000005329, -4.999999999999992895 ) ) ;
#447 = CARTESIAN_POINT ( 'NONE',  ( 0.000000000000000000, 0.000000000000000000, 0.000000000000000000 ) ) ;
#448 = CARTESIAN_POINT ( 'NONE',  ( 40.25000000000001421, 0.2999999999999999334, -1.000000000000218270 ) ) ;
#449 = ORIENTED_EDGE ( 'NONE', *, *, #177, .T. ) ;
#450 = DIRECTION ( 'NONE',  ( 0.000000000000000000, 1.000000000000000000, -0.000000000000000000 ) ) ;
#451 = AXIS2_PLACEMENT_3D ( 'NONE', #27, #283, #490 ) ;
#452 = VECTOR ( 'NONE', #604, 1000.000000000000000 ) ;
#453 = ORIENTED_EDGE ( 'NONE', *, *, #648, .T. ) ;
#454 = CARTESIAN_POINT ( 'NONE',  ( 40.25000000000001421, 0.2999999999999999334, -2.400000000000216183 ) ) ;
#455 = ORIENTED_EDGE ( 'NONE', *, *, #261, .F. ) ;
#456 = DIRECTION ( 'NONE',  ( 0.000000000000000000, 0.000000000000000000, 1.000000000000000000 ) ) ;
#457 = CARTESIAN_POINT ( 'NONE',  ( -40.25000000000001421, 0.2999999999999999334, -0.9999999999999947820 ) ) ;
#458 = ORIENTED_EDGE ( 'NONE', *, *, #316, .F. ) ;
#459 = FACE_OUTER_BOUND ( 'NONE', #643, .T. ) ;
#460 = DIRECTION ( 'NONE',  ( -1.000000000000000000, 0.000000000000000000, 0.000000000000000000 ) ) ;
#461 = LINE ( 'NONE', #138, #464 ) ;
#462 = AXIS2_PLACEMENT_3D ( 'NONE', #776, #107, #772 ) ;
#463 = CARTESIAN_POINT ( 'NONE',  ( 31.65000000000001279, 2.900000000000001688, -4.999999999999992895 ) ) ;
#464 = VECTOR ( 'NONE', #612, 1000.000000000000000 ) ;
#465 =( NAMED_UNIT ( * ) SI_UNIT ( $, .STERADIAN. ) SOLID_ANGLE_UNIT ( ) );
#466 = EDGE_CURVE ( 'NONE', #135, #650, #375, .T. ) ;
#467 = CARTESIAN_POINT ( 'NONE',  ( 22.85857157145713003, 0.000000000000000000, 9.999999999999989342 ) ) ;
#468 = FACE_OUTER_BOUND ( 'NONE', #623, .T. ) ;
#469 = ORIENTED_EDGE ( 'NONE', *, *, #337, .F. ) ;
#470 = DIRECTION ( 'NONE',  ( -0.000000000000000000, -1.000000000000000000, -0.000000000000000000 ) ) ;
#471 = EDGE_CURVE ( 'NONE', #34, #829, #36, .T. ) ;
#472 = EDGE_LOOP ( 'NONE', ( #731, #110, #401, #407 ) ) ;
#473 = CARTESIAN_POINT ( 'NONE',  ( 48.85000000000001563, 5.500000000000001776, -4.999999999999992895 ) ) ;
#474 = VERTEX_POINT ( 'NONE', #760 ) ;
#475 = FACE_BOUND ( 'NONE', #342, .T. ) ;
#476 = CYLINDRICAL_SURFACE ( 'NONE', #655, 1.399999999999995914 ) ;
#477 = VECTOR ( 'NONE', #516, 1000.000000000000000 ) ;
#478 = CARTESIAN_POINT ( 'NONE',  ( -50.50000000000002132, 0.000000000000000000, 3.000000000000007105 ) ) ;
#479 = ORIENTED_EDGE ( 'NONE', *, *, #291, .F. ) ;
#480 = AXIS2_PLACEMENT_3D ( 'NONE', #309, #238, #570 ) ;
#481 = DIRECTION ( 'NONE',  ( 0.000000000000000000, 1.000000000000000000, 0.000000000000000000 ) ) ;
#482 = EDGE_LOOP ( 'NONE', ( #566, #671, #244, #619 ) ) ;
#483 = CARTESIAN_POINT ( 'NONE',  ( -31.65000000000001279, 2.900000000000001688, -4.999999999999992895 ) ) ;
#484 = ORIENTED_EDGE ( 'NONE', *, *, #38, .F. ) ;
#485 = CARTESIAN_POINT ( 'NONE',  ( -40.25000000000001421, 0.2999999999999999334, -0.9999999999999947820 ) ) ;
#486 = DIRECTION ( 'NONE',  ( 1.000000000000000000, -0.000000000000000000, 8.673617379884035472E-16 ) ) ;
#487 = DIRECTION ( 'NONE',  ( -1.000000000000000000, 0.000000000000000000, -0.000000000000000000 ) ) ;
#488 = ORIENTED_EDGE ( 'NONE', *, *, #707, .T. ) ;
#489 = ADVANCED_FACE ( 'NONE', ( #162 ), #430, .T. ) ;
#490 = DIRECTION ( 'NONE',  ( 0.000000000000000000, 0.000000000000000000, 1.000000000000000000 ) ) ;
#491 = DIRECTION ( 'NONE',  ( 1.000000000000000000, 0.000000000000000000, 0.000000000000000000 ) ) ;
#492 = ORIENTED_EDGE ( 'NONE', *, *, #577, .T. ) ;
#493 = AXIS2_PLACEMENT_3D ( 'NONE', #98, #561, #828 ) ;
#494 = VECTOR ( 'NONE', #719, 1000.000000000000000 ) ;
#495 = CARTESIAN_POINT ( 'NONE',  ( -1.109416176496796996E-15, 5.500000000000010658, 3.000000000000007105 ) ) ;
#496 = CIRCLE ( 'NONE', #600, 1.399999999999995914 ) ;
#497 = EDGE_CURVE ( 'NONE', #235, #331, #295, .T. ) ;
#498 = LINE ( 'NONE', #169, #640 ) ;
#499 = ORIENTED_EDGE ( 'NONE', *, *, #822, .F. ) ;
#500 = FACE_OUTER_BOUND ( 'NONE', #810, .T. ) ;
#501 = DIRECTION ( 'NONE',  ( 0.000000000000000000, 0.000000000000000000, 1.000000000000000000 ) ) ;
#502 = ORIENTED_EDGE ( 'NONE', *, *, #519, .T. ) ;
#503 =( LENGTH_UNIT ( ) NAMED_UNIT ( * ) SI_UNIT ( .MILLI., .METRE. ) );
#504 = CARTESIAN_POINT ( 'NONE',  ( 40.25000000000001421, -2.710505431213761085E-17, 0.6999999999997797984 ) ) ;
#505 = ORIENTED_EDGE ( 'NONE', *, *, #497, .F. ) ;
#506 = AXIS2_PLACEMENT_3D ( 'NONE', #607, #803, #205 ) ;
#507 = ORIENTED_EDGE ( 'NONE', *, *, #648, .F. ) ;
#508 = EDGE_LOOP ( 'NONE', ( #592, #537, #382, #241 ) ) ;
#509 = FACE_OUTER_BOUND ( 'NONE', #49, .T. ) ;
#510 = EDGE_CURVE ( 'NONE', #224, #77, #793, .T. ) ;
#511 = EDGE_LOOP ( 'NONE', ( #256, #550 ) ) ;
#512 = FACE_OUTER_BOUND ( 'NONE', #813, .T. ) ;
#513 = AXIS2_PLACEMENT_3D ( 'NONE', #89, #10, #726 ) ;
#514 = ORIENTED_EDGE ( 'NONE', *, *, #180, .F. ) ;
#515 = LINE ( 'NONE', #6, #396 ) ;
#516 = DIRECTION ( 'NONE',  ( 1.000000000000000000, -0.000000000000000000, 0.000000000000000000 ) ) ;
#517 = UNCERTAINTY_MEASURE_WITH_UNIT (LENGTH_MEASURE( 1.000000000000000082E-05 ), #649, 'distance_accuracy_value', 'NONE');
#518 = ORIENTED_EDGE ( 'NONE', *, *, #634, .T. ) ;
#519 = EDGE_CURVE ( 'NONE', #43, #769, #262, .T. ) ;
#520 = CARTESIAN_POINT ( 'NONE',  ( -50.50000000000001421, 0.000000000000000000, -4.999999999999992895 ) ) ;
#521 = PLANE ( 'NONE',  #546 ) ;
#522 = VERTEX_POINT ( 'NONE', #313 ) ;
#523 = DIRECTION ( 'NONE',  ( 0.000000000000000000, 0.000000000000000000, 1.000000000000000000 ) ) ;
#524 = DIRECTION ( 'NONE',  ( -1.000000000000000000, 0.000000000000000000, 3.061616997868382648E-16 ) ) ;
#525 = CIRCLE ( 'NONE', #739, 1.399999999999995914 ) ;
#526 = ORIENTED_EDGE ( 'NONE', *, *, #728, .F. ) ;
#527 = VECTOR ( 'NONE', #727, 1000.000000000000000 ) ;
#528 = CYLINDRICAL_SURFACE ( 'NONE', #722, 1.399999999999998135 ) ;
#529 = VECTOR ( 'NONE', #203, 1000.000000000000000 ) ;
#530 = ORIENTED_EDGE ( 'NONE', *, *, #287, .F. ) ;
#531 = CARTESIAN_POINT ( 'NONE',  ( 31.65000000000001279, 0.000000000000000000, 3.000000000000007105 ) ) ;
#532 = VERTEX_POINT ( 'NONE', #662 ) ;
#533 = CARTESIAN_POINT ( 'NONE',  ( -31.65000000000001279, 7.000000000000000000, -4.999999999999992895 ) ) ;
#534 = ORIENTED_EDGE ( 'NONE', *, *, #378, .F. ) ;
#535 = CARTESIAN_POINT ( 'NONE',  ( 50.49999999999998579, 7.000000000000000000, 2.999999999999995559 ) ) ;
#536 = EDGE_CURVE ( 'NONE', #769, #431, #543, .T. ) ;
#537 = ORIENTED_EDGE ( 'NONE', *, *, #425, .T. ) ;
#538 = DIRECTION ( 'NONE',  ( 0.000000000000000000, 0.000000000000000000, -1.000000000000000000 ) ) ;
#539 = MANIFOLD_SOLID_BREP ( 'Fillet2', #54 ) ;
#540 = CARTESIAN_POINT ( 'NONE',  ( 29.99999999999998934, 7.000000000000000000, 3.000000000000000888 ) ) ;
#541 = DIRECTION ( 'NONE',  ( -1.000000000000000000, 0.000000000000000000, -0.000000000000000000 ) ) ;
#542 = ADVANCED_FACE ( 'NONE', ( #715 ), #521, .F. ) ;
#543 = CIRCLE ( 'NONE', #318, 0.2999999999999999334 ) ;
#544 = LINE ( 'NONE', #801, #437 ) ;
#545 = EDGE_LOOP ( 'NONE', ( #208, #82, #589, #530 ) ) ;
#546 = AXIS2_PLACEMENT_3D ( 'NONE', #653, #65, #121 ) ;
#547 = DIRECTION ( 'NONE',  ( 8.673617379884035472E-16, 0.000000000000000000, -1.000000000000000000 ) ) ;
#548 = ORIENTED_EDGE ( 'NONE', *, *, #250, .T. ) ;
#549 = CARTESIAN_POINT ( 'NONE',  ( 50.49999999999999289, 7.000000000000000000, -5.000000000000004441 ) ) ;
#550 = ORIENTED_EDGE ( 'NONE', *, *, #196, .T. ) ;
#551 = EDGE_CURVE ( 'NONE', #16, #522, #192, .T. ) ;
#552 = LINE ( 'NONE', #495, #394 ) ;
#553 = LINE ( 'NONE', #618, #292 ) ;
#554 = VERTEX_POINT ( 'NONE', #189 ) ;
#555 = DIRECTION ( 'NONE',  ( 0.000000000000000000, 0.000000000000000000, 1.000000000000000000 ) ) ;
#556 = DIRECTION ( 'NONE',  ( -0.000000000000000000, -1.000000000000000000, -0.000000000000000000 ) ) ;
#557 = ORIENTED_EDGE ( 'NONE', *, *, #702, .F. ) ;
#558 = PRODUCT_DEFINITION_FORMATION_WITH_SPECIFIED_SOURCE ( 'ANY', '', #568, .NOT_KNOWN. ) ;
#559 = AXIS2_PLACEMENT_3D ( 'NONE', #217, #486, #326 ) ;
#560 = EDGE_CURVE ( 'NONE', #66, #34, #799, .T. ) ;
#561 = DIRECTION ( 'NONE',  ( 0.000000000000000000, 1.000000000000000000, 0.000000000000000000 ) ) ;
#562 = ORIENTED_EDGE ( 'NONE', *, *, #120, .T. ) ;
#563 = UNCERTAINTY_MEASURE_WITH_UNIT (LENGTH_MEASURE( 1.000000000000000082E-05 ), #503, 'distance_accuracy_value', 'NONE');
#564 = PLANE ( 'NONE',  #493 ) ;
#565 = EDGE_LOOP ( 'NONE', ( #20, #449, #797, #499 ) ) ;
#566 = ORIENTED_EDGE ( 'NONE', *, *, #250, .F. ) ;
#567 = EDGE_CURVE ( 'NONE', #785, #532, #258, .T. ) ;
#568 = PRODUCT ( 'back_plate_connector', 'back_plate_connector', '', ( #705 ) ) ;
#569 = AXIS2_PLACEMENT_3D ( 'NONE', #108, #487, #752 ) ;
#570 = DIRECTION ( 'NONE',  ( 0.000000000000000000, 0.000000000000000000, 1.000000000000000000 ) ) ;
#571 = CIRCLE ( 'NONE', #240, 1.699999999999995737 ) ;
#572 = VERTEX_POINT ( 'NONE', #582 ) ;
#573 = EDGE_CURVE ( 'NONE', #265, #675, #389, .T. ) ;
#574 = CARTESIAN_POINT ( 'NONE',  ( 0.000000000000000000, 0.000000000000000000, 0.000000000000000000 ) ) ;
#575 = ORIENTED_EDGE ( 'NONE', *, *, #312, .F. ) ;
#576 = CARTESIAN_POINT ( 'NONE',  ( -40.25000000000001421, 2.900000000000001688, -0.9999999999999947820 ) ) ;
#577 = EDGE_CURVE ( 'NONE', #125, #43, #757, .T. ) ;
#578 = EDGE_CURVE ( 'NONE', #325, #692, #615, .T. ) ;
#579 = ORIENTED_EDGE ( 'NONE', *, *, #745, .T. ) ;
#580 = LINE ( 'NONE', #779, #712 ) ;
#581 = VECTOR ( 'NONE', #694, 1000.000000000000000 ) ;
#582 = CARTESIAN_POINT ( 'NONE',  ( -40.25000000000001421, -2.710505431213761085E-17, -2.699999999999990408 ) ) ;
#583 = ADVANCED_FACE ( 'NONE', ( #61 ), #711, .T. ) ;
#584 = VECTOR ( 'NONE', #368, 1000.000000000000000 ) ;
#585 = VECTOR ( 'NONE', #335, 1000.000000000000000 ) ;
#586 = ORIENTED_EDGE ( 'NONE', *, *, #432, .F. ) ;
#587 = DIRECTION ( 'NONE',  ( 0.000000000000000000, 1.000000000000000000, -0.000000000000000000 ) ) ;
#588 = SURFACE_STYLE_USAGE ( .BOTH. , #392 ) ;
#589 = ORIENTED_EDGE ( 'NONE', *, *, #124, .T. ) ;
#590 = LINE ( 'NONE', #63, #229 ) ;
#591 = CARTESIAN_POINT ( 'NONE',  ( 0.000000000000000000, 2.900000000000001688, -4.999999999999992895 ) ) ;
#592 = ORIENTED_EDGE ( 'NONE', *, *, #659, .F. ) ;
#593 = FACE_OUTER_BOUND ( 'NONE', #347, .T. ) ;
#594 = ORIENTED_EDGE ( 'NONE', *, *, #384, .F. ) ;
#595 = AXIS2_PLACEMENT_3D ( 'NONE', #145, #85, #346 ) ;
#596 = VECTOR ( 'NONE', #149, 1000.000000000000000 ) ;
#597 = ORIENTED_EDGE ( 'NONE', *, *, #822, .T. ) ;
#598 =( GEOMETRIC_REPRESENTATION_CONTEXT ( 3 ) GLOBAL_UNCERTAINTY_ASSIGNED_CONTEXT ( ( #563 ) ) GLOBAL_UNIT_ASSIGNED_CONTEXT ( ( #503, #701, #443 ) ) REPRESENTATION_CONTEXT ( 'NONE', 'WORKASPACE' ) );
#599 = DIRECTION ( 'NONE',  ( 0.000000000000000000, 0.000000000000000000, 1.000000000000000000 ) ) ;
#600 = AXIS2_PLACEMENT_3D ( 'NONE', #576, #188, #718 ) ;
#601 = EDGE_LOOP ( 'NONE', ( #458, #75, #271, #656 ) ) ;
#602 = EDGE_CURVE ( 'NONE', #675, #522, #58, .T. ) ;
#603 = CARTESIAN_POINT ( 'NONE',  ( -48.85000000000001563, 5.500000000000001776, -8.999999999999994671 ) ) ;
#604 = DIRECTION ( 'NONE',  ( -1.000000000000000000, 0.000000000000000000, 0.000000000000000000 ) ) ;
#605 = CARTESIAN_POINT ( 'NONE',  ( 22.85857157145712648, 7.000000000000000000, -9.447712725311118205E-15 ) ) ;
#606 = ORIENTED_EDGE ( 'NONE', *, *, #759, .T. ) ;
#607 = CARTESIAN_POINT ( 'NONE',  ( -40.25000000000001421, 3.000000000000000000, -0.9999999999999947820 ) ) ;
#608 = LINE ( 'NONE', #24, #322 ) ;
#609 = DIRECTION ( 'NONE',  ( -8.673617379884035472E-16, 0.000000000000000000, 1.000000000000000000 ) ) ;
#610 = VERTEX_POINT ( 'NONE', #344 ) ;
#611 = DIRECTION ( 'NONE',  ( -0.000000000000000000, -1.000000000000000000, -0.000000000000000000 ) ) ;
#612 = DIRECTION ( 'NONE',  ( -0.000000000000000000, -0.000000000000000000, 1.000000000000000000 ) ) ;
#613 = FACE_OUTER_BOUND ( 'NONE', #508, .T. ) ;
#614 = EDGE_LOOP ( 'NONE', ( #575, #469, #4, #11 ) ) ;
#615 = CIRCLE ( 'NONE', #157, 10.00000000000000000 ) ;
#616 = CYLINDRICAL_SURFACE ( 'NONE', #642, 1.399999999999998135 ) ;
#617 = CARTESIAN_POINT ( 'NONE',  ( 7.615859162825029051E-16, 7.000000000000000000, 3.000000000000008882 ) ) ;
#618 = CARTESIAN_POINT ( 'NONE',  ( -22.85857157145715846, 0.000000000000000000, 4.549125528721718590E-15 ) ) ;
#619 = ORIENTED_EDGE ( 'NONE', *, *, #417, .F. ) ;
#620 = ADVANCED_FACE ( 'NONE', ( #475, #416 ), #666, .T. ) ;
#621 = CARTESIAN_POINT ( 'NONE',  ( -31.65000000000001279, 2.900000000000001688, -8.999999999999994671 ) ) ;
#622 = FACE_OUTER_BOUND ( 'NONE', #206, .T. ) ;
#623 = EDGE_LOOP ( 'NONE', ( #518, #247, #170, #160 ) ) ;
#624 = EDGE_CURVE ( 'NONE', #837, #310, #710, .T. ) ;
#625 = CYLINDRICAL_SURFACE ( 'NONE', #14, 10.00000000000000000 ) ;
#626 = DIRECTION ( 'NONE',  ( -1.000000000000000000, 0.000000000000000000, -8.673617379884035472E-16 ) ) ;
#627 = ORIENTED_EDGE ( 'NONE', *, *, #835, .T. ) ;
#628 = AXIS2_PLACEMENT_3D ( 'NONE', #281, #230, #755 ) ;
#629 = VECTOR ( 'NONE', #74, 1000.000000000000000 ) ;
#630 = LINE ( 'NONE', #641, #267 ) ;
#631 = PLANE ( 'NONE',  #569 ) ;
#632 = ORIENTED_EDGE ( 'NONE', *, *, #266, .T. ) ;
#633 = FACE_OUTER_BOUND ( 'NONE', #290, .T. ) ;
#634 = EDGE_CURVE ( 'NONE', #675, #219, #814, .T. ) ;
#635 = CARTESIAN_POINT ( 'NONE',  ( -0.000000000000000000, 2.900000000000001688, 3.000000000000007105 ) ) ;
#636 = ORIENTED_EDGE ( 'NONE', *, *, #23, .T. ) ;
#637 = LINE ( 'NONE', #762, #584 ) ;
#638 = ORIENTED_EDGE ( 'NONE', *, *, #227, .F. ) ;
#639 = DIRECTION ( 'NONE',  ( -8.673617379884035472E-16, 0.000000000000000000, 1.000000000000000000 ) ) ;
#640 = VECTOR ( 'NONE', #441, 1000.000000000000000 ) ;
#641 = CARTESIAN_POINT ( 'NONE',  ( -40.25000000000001421, 3.000000000000000000, -2.399999999999990585 ) ) ;
#642 = AXIS2_PLACEMENT_3D ( 'NONE', #222, #611, #87 ) ;
#643 = EDGE_LOOP ( 'NONE', ( #781, #410, #821, #144 ) ) ;
#644 = PLANE ( 'NONE',  #242 ) ;
#645 = EDGE_CURVE ( 'NONE', #219, #16, #348, .T. ) ;
#646 = EDGE_LOOP ( 'NONE', ( #455, #122, #204, #435 ) ) ;
#647 = DIRECTION ( 'NONE',  ( 0.000000000000000000, 0.000000000000000000, 1.000000000000000000 ) ) ;
#648 = EDGE_CURVE ( 'NONE', #265, #62, #758, .T. ) ;
#649 =( LENGTH_UNIT ( ) NAMED_UNIT ( * ) SI_UNIT ( .MILLI., .METRE. ) );
#650 = VERTEX_POINT ( 'NONE', #31 ) ;
#651 = DIRECTION ( 'NONE',  ( -0.000000000000000000, -1.000000000000000000, -0.000000000000000000 ) ) ;
#652 = EDGE_CURVE ( 'NONE', #77, #235, #288, .T. ) ;
#653 = CARTESIAN_POINT ( 'NONE',  ( -1.109416176496796996E-15, 5.500000000000010658, -8.999999999999994671 ) ) ;
#654 = VECTOR ( 'NONE', #35, 1000.000000000000000 ) ;
#655 = AXIS2_PLACEMENT_3D ( 'NONE', #660, #263, #800 ) ;
#656 = ORIENTED_EDGE ( 'NONE', *, *, #337, .T. ) ;
#657 = PLANE ( 'NONE',  #15 ) ;
#658 = CARTESIAN_POINT ( 'NONE',  ( 0.000000000000000000, 2.900000000000001688, -4.999999999999992895 ) ) ;
#659 = EDGE_CURVE ( 'NONE', #86, #769, #740, .T. ) ;
#660 = CARTESIAN_POINT ( 'NONE',  ( -40.25000000000001421, 3.000000000000000000, -0.9999999999999947820 ) ) ;
#661 = LINE ( 'NONE', #406, #294 ) ;
#662 = CARTESIAN_POINT ( 'NONE',  ( -22.85857157145715846, 0.000000000000000000, 4.549125528721717012E-15 ) ) ;
#663 = ORIENTED_EDGE ( 'NONE', *, *, #560, .T. ) ;
#664 = LINE ( 'NONE', #812, #596 ) ;
#665 = ORIENTED_EDGE ( 'NONE', *, *, #215, .T. ) ;
#666 = PLANE ( 'NONE',  #228 ) ;
#667 = AXIS2_PLACEMENT_3D ( 'NONE', #165, #691, #95 ) ;
#668 = CARTESIAN_POINT ( 'NONE',  ( 0.000000000000000000, 2.900000000000001688, 3.000000000000007105 ) ) ;
#669 = CIRCLE ( 'NONE', #29, 1.399999999999995914 ) ;
#670 = CARTESIAN_POINT ( 'NONE',  ( 50.49999999999998579, 0.000000000000000000, 4.380176776841436651E-14 ) ) ;
#671 = ORIENTED_EDGE ( 'NONE', *, *, #717, .T. ) ;
#672 = DIRECTION ( 'NONE',  ( 0.000000000000000000, -0.000000000000000000, 1.000000000000000000 ) ) ;
#673 = FACE_BOUND ( 'NONE', #237, .T. ) ;
#674 = DIRECTION ( 'NONE',  ( -1.000000000000000000, 0.000000000000000000, -0.000000000000000000 ) ) ;
#675 = VERTEX_POINT ( 'NONE', #676 ) ;
#676 = CARTESIAN_POINT ( 'NONE',  ( -48.85000000000001563, 2.900000000000001688, -4.999999999999992895 ) ) ;
#677 = CARTESIAN_POINT ( 'NONE',  ( 50.49999999999998579, 0.000000000000000000, 2.999999999999995559 ) ) ;
#678 = CARTESIAN_POINT ( 'NONE',  ( 0.000000000000000000, 7.000000000000000000, -4.999999999999992895 ) ) ;
#679 = VERTEX_POINT ( 'NONE', #97 ) ;
#680 = DIRECTION ( 'NONE',  ( 0.000000000000000000, 0.000000000000000000, 1.000000000000000000 ) ) ;
#681 = PLANE ( 'NONE',  #771 ) ;
#682 = CIRCLE ( 'NONE', #667, 1.399999999999998135 ) ;
#683 = FACE_OUTER_BOUND ( 'NONE', #807, .T. ) ;
#684 = ORIENTED_EDGE ( 'NONE', *, *, #551, .F. ) ;
#685 = VECTOR ( 'NONE', #315, 1000.000000000000000 ) ;
#686 = CARTESIAN_POINT ( 'NONE',  ( 0.000000000000000000, 7.000000000000000000, 3.000000000000007105 ) ) ;
#687 = ADVANCED_FACE ( 'NONE', ( #79 ), #616, .F. ) ;
#688 = PLANE ( 'NONE',  #251 ) ;
#689 = ORIENTED_EDGE ( 'NONE', *, *, #324, .F. ) ;
#690 = APPLICATION_PROTOCOL_DEFINITION ( 'draft international standard', 'automotive_design', 1998, #428 ) ;
#691 = DIRECTION ( 'NONE',  ( -0.000000000000000000, -1.000000000000000000, -0.000000000000000000 ) ) ;
#692 = VERTEX_POINT ( 'NONE', #540 ) ;
#693 = DIRECTION ( 'NONE',  ( 0.000000000000000000, 0.000000000000000000, 1.000000000000000000 ) ) ;
#694 = DIRECTION ( 'NONE',  ( -0.000000000000000000, -1.000000000000000000, -0.000000000000000000 ) ) ;
#695 = VERTEX_POINT ( 'NONE', #535 ) ;
#696 = VECTOR ( 'NONE', #13, 1000.000000000000000 ) ;
#697 = AXIS2_PLACEMENT_3D ( 'NONE', #341, #674, #730 ) ;
#698 = CARTESIAN_POINT ( 'NONE',  ( 48.85000000000001563, 5.500000000000001776, 3.000000000000007105 ) ) ;
#699 = FACE_OUTER_BOUND ( 'NONE', #48, .T. ) ;
#700 = ORIENTED_EDGE ( 'NONE', *, *, #120, .F. ) ;
#701 =( NAMED_UNIT ( * ) PLANE_ANGLE_UNIT ( ) SI_UNIT ( $, .RADIAN. ) );
#702 = EDGE_CURVE ( 'NONE', #345, #431, #824, .T. ) ;
#703 = ORIENTED_EDGE ( 'NONE', *, *, #324, .T. ) ;
#704 = CARTESIAN_POINT ( 'NONE',  ( 31.65000000000001279, 0.000000000000000000, -8.999999999999994671 ) ) ;
#705 = PRODUCT_CONTEXT ( 'NONE', #282, 'mechanical' ) ;
#706 = CARTESIAN_POINT ( 'NONE',  ( -50.50000000000002132, 7.000000000000000000, 3.000000000000007105 ) ) ;
#707 = EDGE_CURVE ( 'NONE', #532, #474, #253, .T. ) ;
#708 = EDGE_LOOP ( 'NONE', ( #372, #713, #597, #252 ) ) ;
#709 = CARTESIAN_POINT ( 'NONE',  ( -40.25000000000001421, 0.2999999999999999334, -2.699999999999990408 ) ) ;
#710 = CIRCLE ( 'NONE', #369, 1.399999999999995914 ) ;
#711 = TOROIDAL_SURFACE ( 'NONE', #168, 1.699999999999995737, 0.2999999999999999889 ) ;
#712 = VECTOR ( 'NONE', #254, 1000.000000000000000 ) ;
#713 = ORIENTED_EDGE ( 'NONE', *, *, #134, .F. ) ;
#714 = PLANE ( 'NONE',  #117 ) ;
#715 = FACE_OUTER_BOUND ( 'NONE', #472, .T. ) ;
#716 = EDGE_LOOP ( 'NONE', ( #296, #502, #59, #190 ) ) ;
#717 = EDGE_CURVE ( 'NONE', #141, #474, #273, .T. ) ;
#718 = DIRECTION ( 'NONE',  ( 0.000000000000000000, 0.000000000000000000, -1.000000000000000000 ) ) ;
#719 = DIRECTION ( 'NONE',  ( 0.000000000000000000, -1.000000000000000000, 0.000000000000000000 ) ) ;
#720 = EDGE_LOOP ( 'NONE', ( #700, #840, #606, #627 ) ) ;
#721 = DIRECTION ( 'NONE',  ( -1.000000000000000000, 0.000000000000000000, 0.000000000000000000 ) ) ;
#722 = AXIS2_PLACEMENT_3D ( 'NONE', #136, #272, #538 ) ;
#723 = VECTOR ( 'NONE', #359, 1000.000000000000000 ) ;
#724 = CIRCLE ( 'NONE', #106, 10.00000000000000000 ) ;
#725 = CARTESIAN_POINT ( 'NONE',  ( 40.25000000000001421, 2.900000000000001688, 0.3999999999997798650 ) ) ;
#726 = DIRECTION ( 'NONE',  ( 0.000000000000000000, 0.000000000000000000, 1.000000000000000000 ) ) ;
#727 = DIRECTION ( 'NONE',  ( 0.000000000000000000, 1.000000000000000000, -0.000000000000000000 ) ) ;
#728 = EDGE_CURVE ( 'NONE', #554, #16, #552, .T. ) ;
#729 = FACE_OUTER_BOUND ( 'NONE', #565, .T. ) ;
#730 = DIRECTION ( 'NONE',  ( -0.000000000000000000, 0.000000000000000000, 1.000000000000000000 ) ) ;
#731 = ORIENTED_EDGE ( 'NONE', *, *, #270, .T. ) ;
#732 = DIRECTION ( 'NONE',  ( 0.000000000000000000, 0.000000000000000000, 1.000000000000000000 ) ) ;
#733 = PRODUCT_DEFINITION ( 'UNKNOWN', '', #558, #243 ) ;
#734 = CARTESIAN_POINT ( 'NONE',  ( -48.85000000000001563, 5.500000000000001776, 3.000000000000007105 ) ) ;
#735 = EDGE_CURVE ( 'NONE', #199, #51, #819, .T. ) ;
#736 = LINE ( 'NONE', #670, #338 ) ;
#737 = ORIENTED_EDGE ( 'NONE', *, *, #46, .F. ) ;
#738 = DIRECTION ( 'NONE',  ( 0.000000000000000000, 1.000000000000000000, -0.000000000000000000 ) ) ;
#739 = AXIS2_PLACEMENT_3D ( 'NONE', #234, #218, #501 ) ;
#740 = CIRCLE ( 'NONE', #422, 1.399999999999998135 ) ;
#741 = FACE_OUTER_BOUND ( 'NONE', #614, .T. ) ;
#742 = CIRCLE ( 'NONE', #513, 1.699999999999995737 ) ;
#743 = CARTESIAN_POINT ( 'NONE',  ( 22.85857157145712648, 7.000000000000000000, -9.447712725311116627E-15 ) ) ;
#744 = ORIENTED_EDGE ( 'NONE', *, *, #602, .T. ) ;
#745 = EDGE_CURVE ( 'NONE', #833, #572, #571, .T. ) ;
#746 = FACE_OUTER_BOUND ( 'NONE', #96, .T. ) ;
#747 = ORIENTED_EDGE ( 'NONE', *, *, #274, .F. ) ;
#748 = DIRECTION ( 'NONE',  ( -0.000000000000000000, -0.000000000000000000, 1.000000000000000000 ) ) ;
#749 = EDGE_LOOP ( 'NONE', ( #280, #412, #319, #636, #756, #488, #562, #231 ) ) ;
#750 = CARTESIAN_POINT ( 'NONE',  ( -48.85000000000001563, 7.000000000000000000, -4.999999999999992895 ) ) ;
#751 = PLANE ( 'NONE',  #559 ) ;
#752 = DIRECTION ( 'NONE',  ( -0.000000000000000000, 0.000000000000000000, 1.000000000000000000 ) ) ;
#753 = ORIENTED_EDGE ( 'NONE', *, *, #432, .T. ) ;
#754 = DIRECTION ( 'NONE',  ( 0.000000000000000000, 1.000000000000000000, -0.000000000000000000 ) ) ;
#755 = DIRECTION ( 'NONE',  ( 0.000000000000000000, 0.000000000000000000, -1.000000000000000000 ) ) ;
#756 = ORIENTED_EDGE ( 'NONE', *, *, #567, .T. ) ;
#757 = CIRCLE ( 'NONE', #293, 1.399999999999998135 ) ;
#758 = LINE ( 'NONE', #621, #654 ) ;
#759 = EDGE_CURVE ( 'NONE', #141, #199, #143, .T. ) ;
#760 = CARTESIAN_POINT ( 'NONE',  ( -30.00000000000000711, 0.000000000000000000, 3.000000000000007105 ) ) ;
#761 = ORIENTED_EDGE ( 'NONE', *, *, #573, .F. ) ;
#762 = CARTESIAN_POINT ( 'NONE',  ( 48.85000000000001563, 0.000000000000000000, 3.000000000000007105 ) ) ;
#763 = CARTESIAN_POINT ( 'NONE',  ( 1.109416176496796996E-15, 5.500000000000010658, 3.000000000000007105 ) ) ;
#764 = ORIENTED_EDGE ( 'NONE', *, *, #777, .F. ) ;
#765 = ADVANCED_FACE ( 'NONE', ( #269 ), #409, .F. ) ;
#766 = DIRECTION ( 'NONE',  ( 0.000000000000000000, 0.000000000000000000, 1.000000000000000000 ) ) ;
#767 = DIRECTION ( 'NONE',  ( 0.000000000000000000, 1.000000000000000000, -0.000000000000000000 ) ) ;
#768 = LINE ( 'NONE', #419, #581 ) ;
#769 = VERTEX_POINT ( 'NONE', #22 ) ;
#770 = STYLED_ITEM ( 'NONE', ( #332 ), #539 ) ;
#771 = AXIS2_PLACEMENT_3D ( 'NONE', #617, #418, #93 ) ;
#772 = DIRECTION ( 'NONE',  ( 1.000000000000000000, 0.000000000000000000, -3.061616997868383141E-16 ) ) ;
#773 = ORIENTED_EDGE ( 'NONE', *, *, #573, .T. ) ;
#774 = FACE_BOUND ( 'NONE', #358, .T. ) ;
#775 = ADVANCED_FACE ( 'NONE', ( #746 ), #413, .T. ) ;
#776 = CARTESIAN_POINT ( 'NONE',  ( -7.498798913309280595E-31, 7.000000000000000000, -2.449293598294704146E-15 ) ) ;
#777 = EDGE_CURVE ( 'NONE', #62, #554, #780, .T. ) ;
#778 = ORIENTED_EDGE ( 'NONE', *, *, #471, .F. ) ;
#779 = CARTESIAN_POINT ( 'NONE',  ( 48.85000000000001563, 2.900000000000001688, -8.999999999999994671 ) ) ;
#780 = LINE ( 'NONE', #233, #304 ) ;
#781 = ORIENTED_EDGE ( 'NONE', *, *, #46, .T. ) ;
#782 = DIRECTION ( 'NONE',  ( -2.017120320903263209E-16, -1.000000000000000000, 0.000000000000000000 ) ) ;
#783 = VECTOR ( 'NONE', #651, 1000.000000000000000 ) ;
#784 = DIRECTION ( 'NONE',  ( -1.000000000000000000, 2.017120320903263209E-16, 0.000000000000000000 ) ) ;
#785 = VERTEX_POINT ( 'NONE', #300 ) ;
#786 = CARTESIAN_POINT ( 'NONE',  ( 50.49999999999998579, 7.000000000000000000, 2.999999999999995559 ) ) ;
#787 = DIRECTION ( 'NONE',  ( 0.000000000000000000, 0.000000000000000000, 1.000000000000000000 ) ) ;
#788 = ORIENTED_EDGE ( 'NONE', *, *, #759, .F. ) ;
#789 = DIRECTION ( 'NONE',  ( 0.000000000000000000, 0.000000000000000000, -1.000000000000000000 ) ) ;
#790 = CARTESIAN_POINT ( 'NONE',  ( 40.25000000000001421, 0.2999999999999999334, 0.6999999999997797984 ) ) ;
#791 = ORIENTED_EDGE ( 'NONE', *, *, #221, .F. ) ;
#792 = DIRECTION ( 'NONE',  ( 1.000000000000000000, -2.017120320903263209E-16, 0.000000000000000000 ) ) ;
#793 = LINE ( 'NONE', #7, #209 ) ;
#794 = VECTOR ( 'NONE', #481, 1000.000000000000000 ) ;
#795 = CIRCLE ( 'NONE', #424, 0.2999999999999999334 ) ;
#796 = CARTESIAN_POINT ( 'NONE',  ( 3.025680481354872750E-16, 5.500000000000010658, -4.999999999999992895 ) ) ;
#797 = ORIENTED_EDGE ( 'NONE', *, *, #624, .T. ) ;
#798 = ADVANCED_FACE ( 'NONE', ( #500 ), #128, .T. ) ;
#799 = LINE ( 'NONE', #531, #527 ) ;
#800 = DIRECTION ( 'NONE',  ( 0.000000000000000000, 0.000000000000000000, -1.000000000000000000 ) ) ;
#801 = CARTESIAN_POINT ( 'NONE',  ( 0.000000000000000000, 0.000000000000000000, -4.999999999999992895 ) ) ;
#802 = ORIENTED_EDGE ( 'NONE', *, *, #398, .T. ) ;
#803 = DIRECTION ( 'NONE',  ( -0.000000000000000000, -1.000000000000000000, -0.000000000000000000 ) ) ;
#804 = EDGE_CURVE ( 'NONE', #829, #305, #637, .T. ) ;
#805 = CARTESIAN_POINT ( 'NONE',  ( 0.000000000000000000, 7.000000000000000000, -4.999999999999992895 ) ) ;
#806 = CARTESIAN_POINT ( 'NONE',  ( -7.498798913309280595E-31, 7.000000000000000000, -2.449293598294704146E-15 ) ) ;
#807 = EDGE_LOOP ( 'NONE', ( #118, #453, #403, #361 ) ) ;
#808 = CARTESIAN_POINT ( 'NONE',  ( 40.25000000000001421, 0.2999999999999999334, -1.000000000000218270 ) ) ;
#809 = COLOUR_RGB ( '',0.7921568627450980005, 0.8196078431372548767, 0.9333333333333333481 ) ;
#810 = EDGE_LOOP ( 'NONE', ( #336, #109, #376, #557 ) ) ;
#811 = AXIS2_PLACEMENT_3D ( 'NONE', #838, #395, #456 ) ;
#812 = CARTESIAN_POINT ( 'NONE',  ( -50.50000000000002132, 0.000000000000000000, -4.380176776841439807E-14 ) ) ;
#813 = EDGE_LOOP ( 'NONE', ( #1, #791, #26, #352 ) ) ;
#814 = LINE ( 'NONE', #750, #794 ) ;
#815 = FACE_OUTER_BOUND ( 'NONE', #646, .T. ) ;
#816 = DIRECTION ( 'NONE',  ( 1.000000000000000000, -2.017120320903263209E-16, 0.000000000000000000 ) ) ;
#817 = ORIENTED_EDGE ( 'NONE', *, *, #417, .T. ) ;
#818 = ADVANCED_FACE ( 'NONE', ( #633 ), #836, .T. ) ;
#819 = LINE ( 'NONE', #279, #103 ) ;
#820 = FACE_BOUND ( 'NONE', #511, .T. ) ;
#821 = ORIENTED_EDGE ( 'NONE', *, *, #366, .F. ) ;
#822 = EDGE_CURVE ( 'NONE', #843, #310, #630, .T. ) ;
#823 = CARTESIAN_POINT ( 'NONE',  ( -22.85857157145715490, 0.000000000000000000, 10.00000000000000711 ) ) ;
#824 = CIRCLE ( 'NONE', #451, 1.699999999999997957 ) ;
#825 = LINE ( 'NONE', #635, #102 ) ;
#826 = ORIENTED_EDGE ( 'NONE', *, *, #497, .T. ) ;
#827 = AXIS2_PLACEMENT_3D ( 'NONE', #388, #385, #647 ) ;
#828 = DIRECTION ( 'NONE',  ( 0.000000000000000000, -0.000000000000000000, 1.000000000000000000 ) ) ;
#829 = VERTEX_POINT ( 'NONE', #698 ) ;
#830 = CARTESIAN_POINT ( 'NONE',  ( -40.25000000000001421, 0.2999999999999999334, 0.4000000000000010214 ) ) ;
#831 = ADVANCED_FACE ( 'NONE', ( #377 ), #174, .T. ) ;
#832 = FACE_OUTER_BOUND ( 'NONE', #393, .T. ) ;
#833 = VERTEX_POINT ( 'NONE', #373 ) ;
#834 = ORIENTED_EDGE ( 'NONE', *, *, #745, .F. ) ;
#835 = EDGE_CURVE ( 'NONE', #199, #299, #50, .T. ) ;
#836 = TOROIDAL_SURFACE ( 'NONE', #381, 1.699999999999995737, 0.2999999999999999889 ) ;
#837 = VERTEX_POINT ( 'NONE', #830 ) ;
#838 = CARTESIAN_POINT ( 'NONE',  ( -40.25000000000001421, 0.2999999999999999334, 0.7000000000000009548 ) ) ;
#839 = ADVANCED_FACE ( 'NONE', ( #363 ), #625, .F. ) ;
#840 = ORIENTED_EDGE ( 'NONE', *, *, #717, .F. ) ;
#841 = CARTESIAN_POINT ( 'NONE',  ( -30.00000000000000711, 7.000000000000000000, 3.000000000000007105 ) ) ;
#842 = FILL_AREA_STYLE_COLOUR ( '', #809 ) ;
#843 = VERTEX_POINT ( 'NONE', #297 ) ;
#844 = CARTESIAN_POINT ( 'NONE',  ( -40.25000000000001421, 3.000000000000000000, 0.4000000000000010214 ) ) ;
#845 = AXIS2_PLACEMENT_3D ( 'NONE', #364, #626, #42 ) ;
#846 = AXIS2_PLACEMENT_3D ( 'NONE', #823, #738, #226 ) ;
#847 = CARTESIAN_POINT ( 'NONE',  ( 22.85857157145713003, 7.000000000000000000, 9.999999999999989342 ) ) ;
ENDSEC;
END-ISO-10303-21;
