ISO-10303-21;
HEADER;
FILE_DESCRIPTION (( 'STEP AP214' ),
    '1' );
FILE_NAME ('extruder_plunger_mount.STEP',
    '2025-05-19T08:03:26',
    ( '' ),
    ( '' ),
    'SwSTEP 2.0',
    'SolidWorks 2025',
    '' );
FILE_SCHEMA (( 'AUTOMOTIVE_DESIGN' ));
ENDSEC;

DATA;
#1 = VECTOR ( 'NONE', #1231, 1000.000000000000000 ) ;
#2 = CARTESIAN_POINT ( 'NONE',  ( 2.168404344971010840E-15, 8.000000000000000000, 10.00000000000002665 ) ) ;
#3 = AXIS2_PLACEMENT_3D ( 'NONE', #390, #97, #1069 ) ;
#4 = DIRECTION ( 'NONE',  ( 5.204170427930421283E-16, 1.000000000000000000, -0.000000000000000000 ) ) ;
#5 = ORIENTED_EDGE ( 'NONE', *, *, #983, .T. ) ;
#6 = EDGE_CURVE ( 'NONE', #981, #274, #459, .T. ) ;
#7 = ORIENTED_EDGE ( 'NONE', *, *, #1023, .F. ) ;
#8 = CARTESIAN_POINT ( 'NONE',  ( 0.000000000000000000, 5.000000000000000000, -0.8000000000000003775 ) ) ;
#9 = LINE ( 'NONE', #1079, #169 ) ;
#10 = ADVANCED_FACE ( 'NONE', ( #1113 ), #1227, .F. ) ;
#11 = CARTESIAN_POINT ( 'NONE',  ( -2.993325909419153774, -1.925929944387235853E-31, -1.000000000000000888 ) ) ;
#12 = VERTEX_POINT ( 'NONE', #154 ) ;
#13 = VERTEX_POINT ( 'NONE', #780 ) ;
#14 = CARTESIAN_POINT ( 'NONE',  ( 6.999999999999991118, 12.99999975256829110, -50.00000000000000000 ) ) ;
#15 = CARTESIAN_POINT ( 'NONE',  ( 16.99999999999999289, 9.999999999999976907, 0.000000000000000000 ) ) ;
#16 = ORIENTED_EDGE ( 'NONE', *, *, #858, .F. ) ;
#17 = LINE ( 'NONE', #1003, #1171 ) ;
#18 = ORIENTED_EDGE ( 'NONE', *, *, #899, .F. ) ;
#19 = DIRECTION ( 'NONE',  ( -7.228014483236708388E-16, -1.000000000000000000, 0.000000000000000000 ) ) ;
#20 = VECTOR ( 'NONE', #37, 1000.000000000000114 ) ;
#21 = VECTOR ( 'NONE', #1033, 1000.000000000000000 ) ;
#22 = PRESENTATION_STYLE_ASSIGNMENT (( #1073 ) ) ;
#23 = ORIENTED_EDGE ( 'NONE', *, *, #576, .F. ) ;
#24 = CIRCLE ( 'NONE', #190, 10.00000000000000000 ) ;
#25 = DIRECTION ( 'NONE',  ( -0.000000000000000000, -1.000000000000000000, -0.000000000000000000 ) ) ;
#26 = EDGE_LOOP ( 'NONE', ( #729, #244, #518, #259, #736, #782, #1034, #1190, #1093, #559, #529, #1109 ) ) ;
#27 = DIRECTION ( 'NONE',  ( 1.000000000000000000, 0.000000000000000000, -3.469446951953614189E-16 ) ) ;
#28 = EDGE_CURVE ( 'NONE', #263, #427, #1165, .T. ) ;
#29 = EDGE_CURVE ( 'NONE', #909, #119, #482, .T. ) ;
#30 = DIRECTION ( 'NONE',  ( -0.7071068103466494614, 0.7071067520264443518, 0.000000000000000000 ) ) ;
#31 = ORIENTED_EDGE ( 'NONE', *, *, #138, .T. ) ;
#32 = DIRECTION ( 'NONE',  ( -0.7071067811865513475, -0.000000000000000000, -0.7071067811865435759 ) ) ;
#33 = ORIENTED_EDGE ( 'NONE', *, *, #80, .T. ) ;
#34 = DIRECTION ( 'NONE',  ( 0.000000000000000000, 0.000000000000000000, -1.000000000000000000 ) ) ;
#35 =( NAMED_UNIT ( * ) PLANE_ANGLE_UNIT ( ) SI_UNIT ( $, .RADIAN. ) );
#36 = ORIENTED_EDGE ( 'NONE', *, *, #1105, .T. ) ;
#37 = DIRECTION ( 'NONE',  ( -0.7071068103466516819, 0.7071067520264421313, 0.000000000000000000 ) ) ;
#38 = EDGE_LOOP ( 'NONE', ( #241, #300, #700, #342 ) ) ;
#39 = CARTESIAN_POINT ( 'NONE',  ( -17.00000000000002842, 9.999999999999980460, 0.000000000000000000 ) ) ;
#40 = CARTESIAN_POINT ( 'NONE',  ( -10.00000000000003020, -5.000000247431704459, -1.999999999999946265 ) ) ;
#41 = ORIENTED_EDGE ( 'NONE', *, *, #501, .T. ) ;
#42 = VECTOR ( 'NONE', #824, 1000.000000000000000 ) ;
#43 = CARTESIAN_POINT ( 'NONE',  ( 7.000000000000002665, 12.99999975256829110, 4.999999999999998224 ) ) ;
#44 = EDGE_CURVE ( 'NONE', #216, #967, #87, .T. ) ;
#45 = EDGE_CURVE ( 'NONE', #119, #1214, #201, .T. ) ;
#46 = AXIS2_PLACEMENT_3D ( 'NONE', #1048, #1061, #573 ) ;
#47 = VERTEX_POINT ( 'NONE', #964 ) ;
#48 = CARTESIAN_POINT ( 'NONE',  ( 9.999999999999991118, -5.000000247431718670, -1.999999999999980904 ) ) ;
#49 = FACE_OUTER_BOUND ( 'NONE', #1206, .T. ) ;
#50 = EDGE_LOOP ( 'NONE', ( #924, #977, #879, #441 ) ) ;
#51 = EDGE_CURVE ( 'NONE', #909, #150, #375, .T. ) ;
#52 = CARTESIAN_POINT ( 'NONE',  ( 6.999999999999991118, -5.000000247431707123, -50.00000000000000000 ) ) ;
#53 = ORIENTED_EDGE ( 'NONE', *, *, #717, .T. ) ;
#54 = CARTESIAN_POINT ( 'NONE',  ( -7.999999999999981348, -2.000000000000050182, 6.000000000000060396 ) ) ;
#55 = ORIENTED_EDGE ( 'NONE', *, *, #755, .F. ) ;
#56 = CARTESIAN_POINT ( 'NONE',  ( 10.00000000000000000, 9.999999999999973355, -5.000000000000001776 ) ) ;
#57 = ORIENTED_EDGE ( 'NONE', *, *, #264, .F. ) ;
#58 = LINE ( 'NONE', #142, #511 ) ;
#59 = ORIENTED_EDGE ( 'NONE', *, *, #163, .T. ) ;
#60 = DIRECTION ( 'NONE',  ( 0.5773502533168733963, -0.5773503009351225179, -0.5773502533168800577 ) ) ;
#61 = AXIS2_PLACEMENT_3D ( 'NONE', #554, #827, #1215 ) ;
#62 = AXIS2_PLACEMENT_3D ( 'NONE', #776, #763, #581 ) ;
#63 = ORIENTED_EDGE ( 'NONE', *, *, #384, .F. ) ;
#64 = ADVANCED_FACE ( 'NONE', ( #192 ), #1153, .T. ) ;
#65 = EDGE_LOOP ( 'NONE', ( #1019, #769, #7, #203, #1103, #590, #548, #891 ) ) ;
#66 = ADVANCED_FACE ( 'NONE', ( #303 ), #574, .T. ) ;
#67 = CARTESIAN_POINT ( 'NONE',  ( -10.00000000000003020, -2.000000000000017319, -1.999999999999946265 ) ) ;
#68 = ORIENTED_EDGE ( 'NONE', *, *, #89, .T. ) ;
#69 = CARTESIAN_POINT ( 'NONE',  ( -10.00000000000002665, 9.999999999999975131, -50.00000000000000000 ) ) ;
#70 = VERTEX_POINT ( 'NONE', #207 ) ;
#71 = CARTESIAN_POINT ( 'NONE',  ( -10.00000000000003020, -2.000000000000018652, -1.999999999999946265 ) ) ;
#72 = EDGE_CURVE ( 'NONE', #901, #324, #290, .T. ) ;
#73 = VERTEX_POINT ( 'NONE', #860 ) ;
#74 = CARTESIAN_POINT ( 'NONE',  ( -10.00000000000003020, -2.000000000000018652, 0.000000000000000000 ) ) ;
#75 = DIRECTION ( 'NONE',  ( 1.000000000000000000, 0.000000000000000000, 0.000000000000000000 ) ) ;
#76 = DIRECTION ( 'NONE',  ( 1.000000000000000000, -2.478176394252581141E-16, -0.000000000000000000 ) ) ;
#77 = CARTESIAN_POINT ( 'NONE',  ( -2.993325909419153774, 3.200000000000000178, -1.000000000000000888 ) ) ;
#78 = ADVANCED_FACE ( 'NONE', ( #960 ), #1141, .F. ) ;
#79 = VECTOR ( 'NONE', #628, 1000.000000000000000 ) ;
#80 = EDGE_CURVE ( 'NONE', #865, #1132, #371, .T. ) ;
#81 = VECTOR ( 'NONE', #703, 1000.000000000000000 ) ;
#82 = ORIENTED_EDGE ( 'NONE', *, *, #848, .T. ) ;
#83 = LINE ( 'NONE', #179, #936 ) ;
#84 = AXIS2_PLACEMENT_3D ( 'NONE', #457, #622, #462 ) ;
#85 = VECTOR ( 'NONE', #409, 1000.000000000000000 ) ;
#86 = PLANE ( 'NONE',  #873 ) ;
#87 = LINE ( 'NONE', #580, #412 ) ;
#88 = CARTESIAN_POINT ( 'NONE',  ( -14.00000000000002665, 9.999999999999980460, 2.999999999999995559 ) ) ;
#89 = EDGE_CURVE ( 'NONE', #613, #512, #660, .T. ) ;
#90 = EDGE_LOOP ( 'NONE', ( #743, #944, #534, #821 ) ) ;
#91 = CARTESIAN_POINT ( 'NONE',  ( 13.99999999999999467, -2.000000000000023981, -50.00000000000000000 ) ) ;
#92 = ADVANCED_FACE ( 'NONE', ( #867 ), #1045, .T. ) ;
#93 = CARTESIAN_POINT ( 'NONE',  ( 0.000000000000000000, 0.000000000000000000, -0.8000000000000003775 ) ) ;
#94 = LINE ( 'NONE', #202, #992 ) ;
#95 = CARTESIAN_POINT ( 'NONE',  ( 9.999999999999991118, 9.999999999999973355, -50.00000000000000000 ) ) ;
#96 = PLANE ( 'NONE',  #410 ) ;
#97 = DIRECTION ( 'NONE',  ( -0.7071067811865436870, 0.000000000000000000, 0.7071067811865514585 ) ) ;
#98 = DIRECTION ( 'NONE',  ( 1.000000000000000000, 0.000000000000000000, -3.469446951953614189E-16 ) ) ;
#99 = ORIENTED_EDGE ( 'NONE', *, *, #281, .F. ) ;
#100 = ORIENTED_EDGE ( 'NONE', *, *, #885, .T. ) ;
#101 = CARTESIAN_POINT ( 'NONE',  ( 13.99999999999999112, 12.99999975256829110, 0.000000000000000000 ) ) ;
#102 = ADVANCED_FACE ( 'NONE', ( #487 ), #1145, .T. ) ;
#103 = VECTOR ( 'NONE', #291, 1000.000000000000000 ) ;
#104 =( GEOMETRIC_REPRESENTATION_CONTEXT ( 3 ) GLOBAL_UNCERTAINTY_ASSIGNED_CONTEXT ( ( #933 ) ) GLOBAL_UNIT_ASSIGNED_CONTEXT ( ( #1158, #278, #558 ) ) REPRESENTATION_CONTEXT ( 'NONE', 'WORKASPACE' ) );
#105 = CARTESIAN_POINT ( 'NONE',  ( 13.99999999999999112, 9.999999999999976907, -50.00000000000000000 ) ) ;
#106 = VECTOR ( 'NONE', #976, 1000.000000000000227 ) ;
#107 = CARTESIAN_POINT ( 'NONE',  ( 2.993325909419153774, 2.200000000000000178, -1.000000000000000888 ) ) ;
#108 = ORIENTED_EDGE ( 'NONE', *, *, #941, .F. ) ;
#109 = ORIENTED_EDGE ( 'NONE', *, *, #6, .T. ) ;
#110 = DIRECTION ( 'NONE',  ( -0.000000000000000000, -1.000000000000000000, -0.000000000000000000 ) ) ;
#111 = CARTESIAN_POINT ( 'NONE',  ( 6.999999999999991118, -5.000000247431707123, 0.000000000000000000 ) ) ;
#112 = EDGE_LOOP ( 'NONE', ( #798, #1178, #987, #1041 ) ) ;
#113 = CARTESIAN_POINT ( 'NONE',  ( -7.000000000000024869, 12.99999975256829288, 0.000000000000000000 ) ) ;
#114 = ORIENTED_EDGE ( 'NONE', *, *, #741, .F. ) ;
#115 = FACE_OUTER_BOUND ( 'NONE', #50, .T. ) ;
#116 = DIRECTION ( 'NONE',  ( -1.000000000000000000, 0.000000000000000000, 0.000000000000000000 ) ) ;
#117 = FACE_OUTER_BOUND ( 'NONE', #837, .T. ) ;
#118 =( BOUNDED_CURVE ( )  B_SPLINE_CURVE ( 3, ( #284, #388, #1134, #1246 ),
 .UNSPECIFIED., .F., .F. ) 
 B_SPLINE_CURVE_WITH_KNOTS ( ( 4, 4 ),
 ( 5.355890089177971269, 7.210480515793545209 ),
 .UNSPECIFIED. ) 
 CURVE ( )  GEOMETRIC_REPRESENTATION_ITEM ( )  RATIONAL_B_SPLINE_CURVE ( ( 1.000000000000000000, 0.7333333358367069010, 0.7333333358367069010, 1.000000000000000000 ) ) 
 REPRESENTATION_ITEM ( '' )  );
#119 = VERTEX_POINT ( 'NONE', #1237 ) ;
#120 = DIRECTION ( 'NONE',  ( 5.204170427930421283E-16, -1.000000000000000000, 0.000000000000000000 ) ) ;
#121 = EDGE_CURVE ( 'NONE', #216, #901, #1159, .T. ) ;
#122 = ADVANCED_FACE ( 'NONE', ( #762 ), #672, .T. ) ;
#123 = ORIENTED_EDGE ( 'NONE', *, *, #177, .T. ) ;
#124 = LINE ( 'NONE', #1000, #634 ) ;
#125 = VECTOR ( 'NONE', #787, 1000.000000000000000 ) ;
#126 = VECTOR ( 'NONE', #389, 1000.000000000000000 ) ;
#127 = DIRECTION ( 'NONE',  ( 8.673617379884026597E-16, 0.000000000000000000, -1.000000000000000000 ) ) ;
#128 = ORIENTED_EDGE ( 'NONE', *, *, #637, .F. ) ;
#129 = AXIS2_PLACEMENT_3D ( 'NONE', #280, #586, #285 ) ;
#130 = CARTESIAN_POINT ( 'NONE',  ( 9.999999999999991118, 8.000000000000000000, 5.000000000000015099 ) ) ;
#131 = VERTEX_POINT ( 'NONE', #105 ) ;
#132 = CARTESIAN_POINT ( 'NONE',  ( 16.99999999999998934, -2.000000000000026201, 0.000000000000000000 ) ) ;
#133 = DIRECTION ( 'NONE',  ( 0.000000000000000000, -0.000000000000000000, 1.000000000000000000 ) ) ;
#134 = ORIENTED_EDGE ( 'NONE', *, *, #171, .T. ) ;
#135 = CARTESIAN_POINT ( 'NONE',  ( 6.999999999999991118, 12.99999975256829110, -50.00000000000000000 ) ) ;
#136 = ORIENTED_EDGE ( 'NONE', *, *, #29, .F. ) ;
#137 = LINE ( 'NONE', #910, #149 ) ;
#138 = EDGE_CURVE ( 'NONE', #939, #786, #9, .T. ) ;
#139 = ORIENTED_EDGE ( 'NONE', *, *, #848, .F. ) ;
#140 = CARTESIAN_POINT ( 'NONE',  ( -17.00000000000002842, 9.999999999999980460, -50.00000000000000000 ) ) ;
#141 = ORIENTED_EDGE ( 'NONE', *, *, #1122, .F. ) ;
#142 = CARTESIAN_POINT ( 'NONE',  ( -7.999999999999943157, -5.000000247431706235, 6.000000000000079048 ) ) ;
#143 = EDGE_CURVE ( 'NONE', #336, #451, #616, .T. ) ;
#144 = DIRECTION ( 'NONE',  ( 2.891205793294682271E-16, 1.000000000000000000, 1.445602896647360857E-16 ) ) ;
#145 = VECTOR ( 'NONE', #332, 1000.000000000000000 ) ;
#146 = ORIENTED_EDGE ( 'NONE', *, *, #648, .T. ) ;
#147 = LINE ( 'NONE', #535, #166 ) ;
#148 = VECTOR ( 'NONE', #969, 1000.000000000000000 ) ;
#149 = VECTOR ( 'NONE', #988, 999.9999999999998863 ) ;
#150 = VERTEX_POINT ( 'NONE', #402 ) ;
#151 = CARTESIAN_POINT ( 'NONE',  ( -14.00000000000002665, 12.99999975256829465, -50.00000000000000000 ) ) ;
#152 = LINE ( 'NONE', #69, #233 ) ;
#153 = DIRECTION ( 'NONE',  ( 0.000000000000000000, 1.000000000000000000, 0.000000000000000000 ) ) ;
#154 = CARTESIAN_POINT ( 'NONE',  ( 13.99999999999999112, 12.99999975256829110, -50.00000000000000000 ) ) ;
#155 = CARTESIAN_POINT ( 'NONE',  ( -14.00000000000002665, 12.99999975256829465, 0.000000000000000000 ) ) ;
#156 = ORIENTED_EDGE ( 'NONE', *, *, #143, .F. ) ;
#157 = DIRECTION ( 'NONE',  ( -0.8944271909999134129, 2.216548351113630549E-16, -0.4472135954999629237 ) ) ;
#158 = DIRECTION ( 'NONE',  ( -0.000000000000000000, -1.000000000000000000, -0.000000000000000000 ) ) ;
#159 = LINE ( 'NONE', #1202, #450 ) ;
#160 = VERTEX_POINT ( 'NONE', #889 ) ;
#161 = UNCERTAINTY_MEASURE_WITH_UNIT (LENGTH_MEASURE( 1.000000000000000082E-05 ), #418, 'distance_accuracy_value', 'NONE');
#162 = EDGE_CURVE ( 'NONE', #274, #160, #794, .T. ) ;
#163 = EDGE_CURVE ( 'NONE', #324, #930, #1185, .T. ) ;
#164 = ORIENTED_EDGE ( 'NONE', *, *, #815, .F. ) ;
#165 = PLANE ( 'NONE',  #1252 ) ;
#166 = VECTOR ( 'NONE', #921, 1000.000000000000000 ) ;
#167 = VECTOR ( 'NONE', #1044, 1000.000000000000000 ) ;
#168 = VERTEX_POINT ( 'NONE', #1125 ) ;
#169 = VECTOR ( 'NONE', #116, 1000.000000000000000 ) ;
#170 = DIRECTION ( 'NONE',  ( -0.7071068103466519039, -0.7071067520264420203, -0.000000000000000000 ) ) ;
#171 = EDGE_CURVE ( 'NONE', #283, #1098, #1120, .T. ) ;
#172 = ORIENTED_EDGE ( 'NONE', *, *, #606, .F. ) ;
#173 = DIRECTION ( 'NONE',  ( 2.891205793294679805E-16, 1.000000000000000000, -7.836629005481903948E-32 ) ) ;
#174 = ORIENTED_EDGE ( 'NONE', *, *, #1245, .F. ) ;
#175 = CARTESIAN_POINT ( 'NONE',  ( -10.00000000000000000, -5.000000247431718670, 5.000000000000011546 ) ) ;
#176 = VERTEX_POINT ( 'NONE', #351 ) ;
#177 = EDGE_CURVE ( 'NONE', #512, #47, #152, .T. ) ;
#178 = DIRECTION ( 'NONE',  ( 0.000000000000000000, 0.000000000000000000, -1.000000000000000000 ) ) ;
#179 = CARTESIAN_POINT ( 'NONE',  ( -10.00000000000002665, 9.999999999999975131, 0.000000000000000000 ) ) ;
#180 = DIRECTION ( 'NONE',  ( -5.059610138265688673E-15, -1.000000000000000000, 0.000000000000000000 ) ) ;
#181 = ADVANCED_FACE ( 'NONE', ( #363 ), #557, .F. ) ;
#182 = DIRECTION ( 'NONE',  ( 1.000000000000000000, 0.000000000000000000, -2.168404344971005170E-16 ) ) ;
#183 = CARTESIAN_POINT ( 'NONE',  ( 0.000000000000000000, 3.200000000000000178, -0.8000000000000003775 ) ) ;
#184 = EDGE_CURVE ( 'NONE', #319, #1148, #842, .T. ) ;
#185 = ADVANCED_FACE ( 'NONE', ( #724 ), #344, .F. ) ;
#186 = VECTOR ( 'NONE', #247, 1000.000000000000000 ) ;
#187 = VECTOR ( 'NONE', #438, 1000.000000000000114 ) ;
#188 = ORIENTED_EDGE ( 'NONE', *, *, #979, .T. ) ;
#189 = DIRECTION ( 'NONE',  ( 0.000000000000000000, 0.000000000000000000, -1.000000000000000000 ) ) ;
#190 = AXIS2_PLACEMENT_3D ( 'NONE', #764, #866, #1149 ) ;
#191 = DIRECTION ( 'NONE',  ( 1.000000000000000000, -5.059610138265688673E-15, 0.000000000000000000 ) ) ;
#192 = FACE_OUTER_BOUND ( 'NONE', #204, .T. ) ;
#193 = LINE ( 'NONE', #391, #971 ) ;
#194 = CARTESIAN_POINT ( 'NONE',  ( 9.999999999999992895, 0.000000000000000000, -50.00000000000000000 ) ) ;
#195 = CARTESIAN_POINT ( 'NONE',  ( 0.000000000000000000, 0.000000000000000000, -1.000000000000000888 ) ) ;
#196 = CARTESIAN_POINT ( 'NONE',  ( 3.994996871087635792, 0.000000000000000000, -1.000000000000000888 ) ) ;
#197 = EDGE_LOOP ( 'NONE', ( #1002, #1089, #59, #220 ) ) ;
#198 = EDGE_LOOP ( 'NONE', ( #18, #600, #421, #994 ) ) ;
#199 = CARTESIAN_POINT ( 'NONE',  ( 10.00000000000000000, 0.000000000000000000, 5.000000000000011546 ) ) ;
#200 = EDGE_CURVE ( 'NONE', #13, #1027, #357, .T. ) ;
#201 = LINE ( 'NONE', #853, #592 ) ;
#202 = CARTESIAN_POINT ( 'NONE',  ( -10.00000000000002665, -5.001000247431707457, -4.999999999999997335 ) ) ;
#203 = ORIENTED_EDGE ( 'NONE', *, *, #576, .T. ) ;
#204 = EDGE_LOOP ( 'NONE', ( #224, #823, #447, #847 ) ) ;
#205 = VECTOR ( 'NONE', #779, 1000.000000000000000 ) ;
#206 = VECTOR ( 'NONE', #569, 1000.000000000000000 ) ;
#207 = CARTESIAN_POINT ( 'NONE',  ( 9.999999999999991118, -2.000000000000021316, -1.999999999999980904 ) ) ;
#208 = VECTOR ( 'NONE', #1091, 1000.000000000000227 ) ;
#209 = EDGE_CURVE ( 'NONE', #362, #865, #248, .T. ) ;
#210 = DIRECTION ( 'NONE',  ( -0.000000000000000000, 1.000000000000000000, 0.000000000000000000 ) ) ;
#211 = ORIENTED_EDGE ( 'NONE', *, *, #1023, .T. ) ;
#212 = CARTESIAN_POINT ( 'NONE',  ( -10.00000000000000000, 0.000000000000000000, 5.000000000000011546 ) ) ;
#213 = ORIENTED_EDGE ( 'NONE', *, *, #333, .F. ) ;
#214 = FACE_OUTER_BOUND ( 'NONE', #999, .T. ) ;
#215 = PLANE ( 'NONE',  #1135 ) ;
#216 = VERTEX_POINT ( 'NONE', #640 ) ;
#217 = ADVANCED_FACE ( 'NONE', ( #49 ), #1021, .T. ) ;
#218 = EDGE_CURVE ( 'NONE', #131, #370, #444, .T. ) ;
#219 = CARTESIAN_POINT ( 'NONE',  ( 0.000000000000000000, 2.200000000000000178, -0.8000000000000003775 ) ) ;
#220 = ORIENTED_EDGE ( 'NONE', *, *, #1080, .T. ) ;
#221 = DIRECTION ( 'NONE',  ( -1.000000000000000000, 0.000000000000000000, 0.000000000000000000 ) ) ;
#222 = CARTESIAN_POINT ( 'NONE',  ( 13.99999999999999467, -2.000000000000023981, -50.00000000000000000 ) ) ;
#223 = SURFACE_SIDE_STYLE ('',( #304 ) ) ;
#224 = ORIENTED_EDGE ( 'NONE', *, *, #717, .F. ) ;
#225 = B_SPLINE_CURVE_WITH_KNOTS ( 'NONE', 3,
 ( #773, #364, #959, #1039 ),
 .UNSPECIFIED., .F., .F.,
 ( 4, 4 ),
 ( 0.009115123351424059273, 0.01153242437732511505 ),
 .UNSPECIFIED. ) ;
#226 = DIRECTION ( 'NONE',  ( -1.000000000000000000, 0.000000000000000000, 0.000000000000000000 ) ) ;
#227 = ADVANCED_FACE ( 'NONE', ( #1211 ), #381, .T. ) ;
#228 = VERTEX_POINT ( 'NONE', #857 ) ;
#229 = CARTESIAN_POINT ( 'NONE',  ( 16.99999999999999289, 8.000000000000001776, 1.500000000000093703 ) ) ;
#230 = VECTOR ( 'NONE', #437, 1000.000000000000000 ) ;
#231 = VECTOR ( 'NONE', #911, 1000.000000000000000 ) ;
#232 = VERTEX_POINT ( 'NONE', #199 ) ;
#233 = VECTOR ( 'NONE', #170, 1000.000000000000000 ) ;
#234 = CARTESIAN_POINT ( 'NONE',  ( 0.000000000000000000, 3.200000000000000178, -0.8000000000000003775 ) ) ;
#235 = EDGE_LOOP ( 'NONE', ( #293, #656, #316, #249, #213, #949, #1117, #1161, #645, #973, #966 ) ) ;
#236 = PLANE ( 'NONE',  #1009 ) ;
#237 = LINE ( 'NONE', #508, #852 ) ;
#238 = ORIENTED_EDGE ( 'NONE', *, *, #1083, .T. ) ;
#239 = DIRECTION ( 'NONE',  ( 1.000000000000000000, 0.000000000000000000, -2.168404344971005417E-16 ) ) ;
#240 = EDGE_CURVE ( 'NONE', #909, #920, #252, .T. ) ;
#241 = ORIENTED_EDGE ( 'NONE', *, *, #368, .F. ) ;
#242 = CARTESIAN_POINT ( 'NONE',  ( 0.000000000000000000, 5.000000000000000000, -0.8000000000000003775 ) ) ;
#243 = LINE ( 'NONE', #919, #187 ) ;
#244 = ORIENTED_EDGE ( 'NONE', *, *, #943, .F. ) ;
#245 = DIRECTION ( 'NONE',  ( 0.000000000000000000, 0.000000000000000000, -1.000000000000000000 ) ) ;
#246 = ORIENTED_EDGE ( 'NONE', *, *, #121, .F. ) ;
#247 = DIRECTION ( 'NONE',  ( -0.000000000000000000, -0.000000000000000000, -1.000000000000000000 ) ) ;
#248 = LINE ( 'NONE', #918, #955 ) ;
#249 = ORIENTED_EDGE ( 'NONE', *, *, #1197, .F. ) ;
#250 = VECTOR ( 'NONE', #1106, 1000.000000000000000 ) ;
#251 = CARTESIAN_POINT ( 'NONE',  ( 3.994996871087635792, 0.000000000000000000, -1.000000000000000888 ) ) ;
#252 = CIRCLE ( 'NONE', #1119, 6.800000000000000711 ) ;
#253 = ORIENTED_EDGE ( 'NONE', *, *, #209, .T. ) ;
#254 = LINE ( 'NONE', #723, #79 ) ;
#255 = DIRECTION ( 'NONE',  ( 1.000000000000000000, 0.000000000000000000, -2.168404344971005417E-16 ) ) ;
#256 = CARTESIAN_POINT ( 'NONE',  ( 14.00000000000000533, 8.000000000000008882, 3.000000000000052847 ) ) ;
#257 = ADVANCED_FACE ( 'NONE', ( #377 ), #493, .T. ) ;
#258 = EDGE_CURVE ( 'NONE', #901, #12, #485, .T. ) ;
#259 = ORIENTED_EDGE ( 'NONE', *, *, #372, .F. ) ;
#260 = CARTESIAN_POINT ( 'NONE',  ( -6.800000000000021139, -5.001000247431698575, -4.999999999999998224 ) ) ;
#261 = EDGE_LOOP ( 'NONE', ( #844, #722, #408, #353 ) ) ;
#262 = DIRECTION ( 'NONE',  ( 0.000000000000000000, -0.000000000000000000, 1.000000000000000000 ) ) ;
#263 = VERTEX_POINT ( 'NONE', #578 ) ;
#264 = EDGE_CURVE ( 'NONE', #1137, #678, #945, .T. ) ;
#265 = ORIENTED_EDGE ( 'NONE', *, *, #200, .T. ) ;
#266 = PLANE ( 'NONE',  #706 ) ;
#267 = VECTOR ( 'NONE', #448, 1000.000000000000000 ) ;
#268 = AXIS2_PLACEMENT_3D ( 'NONE', #463, #1136, #75 ) ;
#269 = ORIENTED_EDGE ( 'NONE', *, *, #276, .T. ) ;
#270 = AXIS2_PLACEMENT_3D ( 'NONE', #1015, #540, #1129 ) ;
#271 = LINE ( 'NONE', #654, #515 ) ;
#272 = EDGE_CURVE ( 'NONE', #693, #308, #950, .T. ) ;
#273 = FACE_OUTER_BOUND ( 'NONE', #907, .T. ) ;
#274 = VERTEX_POINT ( 'NONE', #91 ) ;
#275 = DIRECTION ( 'NONE',  ( -0.000000000000000000, -1.000000000000000000, -0.000000000000000000 ) ) ;
#276 = EDGE_CURVE ( 'NONE', #176, #643, #1157, .T. ) ;
#277 = CARTESIAN_POINT ( 'NONE',  ( -6.800000000000015810, 5.000000000000000000, -1.000000000000000888 ) ) ;
#278 =( NAMED_UNIT ( * ) PLANE_ANGLE_UNIT ( ) SI_UNIT ( $, .RADIAN. ) );
#279 = EDGE_CURVE ( 'NONE', #545, #47, #83, .T. ) ;
#280 = CARTESIAN_POINT ( 'NONE',  ( -10.00000000000002665, 9.999999999999975131, 0.000000000000000000 ) ) ;
#281 = EDGE_CURVE ( 'NONE', #967, #283, #118, .T. ) ;
#282 = CARTESIAN_POINT ( 'NONE',  ( 8.000000000000015987, 12.00000000000001954, 5.999999999999978684 ) ) ;
#283 = VERTEX_POINT ( 'NONE', #664 ) ;
#284 = CARTESIAN_POINT ( 'NONE',  ( 8.000000000000015987, 12.00000000000001954, 5.999999999999978684 ) ) ;
#285 = DIRECTION ( 'NONE',  ( 0.7071068103466519039, 0.7071067520264419093, 0.000000000000000000 ) ) ;
#286 = CARTESIAN_POINT ( 'NONE',  ( 8.000000000000015987, 0.000000000000000000, 5.999999999999979572 ) ) ;
#287 = VECTOR ( 'NONE', #560, 1000.000000000000000 ) ;
#288 = FACE_OUTER_BOUND ( 'NONE', #65, .T. ) ;
#289 = VECTOR ( 'NONE', #602, 1000.000000000000000 ) ;
#290 = LINE ( 'NONE', #495, #1154 ) ;
#291 = DIRECTION ( 'NONE',  ( -1.000000000000000000, 2.478176394252581634E-16, -0.000000000000000000 ) ) ;
#292 = APPLICATION_CONTEXT ( 'automotive_design' ) ;
#293 = ORIENTED_EDGE ( 'NONE', *, *, #171, .F. ) ;
#294 = EDGE_CURVE ( 'NONE', #1098, #975, #24, .T. ) ;
#295 = ADVANCED_FACE ( 'NONE', ( #288 ), #394, .T. ) ;
#296 = DIRECTION ( 'NONE',  ( 0.8944271909999134129, -0.000000000000000000, 0.4472135954999629237 ) ) ;
#297 = DIRECTION ( 'NONE',  ( 1.000000000000000000, 0.000000000000000000, 0.000000000000000000 ) ) ;
#298 = CARTESIAN_POINT ( 'NONE',  ( 3.661222145210834444, 0.7333859420392749850, -1.000000000000000888 ) ) ;
#299 = ORIENTED_EDGE ( 'NONE', *, *, #941, .T. ) ;
#300 = ORIENTED_EDGE ( 'NONE', *, *, #748, .F. ) ;
#301 = DIRECTION ( 'NONE',  ( 3.469446951953614189E-16, -0.000000000000000000, 1.000000000000000000 ) ) ;
#302 = EDGE_CURVE ( 'NONE', #47, #473, #271, .T. ) ;
#303 = FACE_OUTER_BOUND ( 'NONE', #719, .T. ) ;
#304 = SURFACE_STYLE_FILL_AREA ( #502 ) ;
#305 = ORIENTED_EDGE ( 'NONE', *, *, #302, .T. ) ;
#306 = PLANE ( 'NONE',  #990 ) ;
#307 = VECTOR ( 'NONE', #1084, 1000.000000000000000 ) ;
#308 = VERTEX_POINT ( 'NONE', #175 ) ;
#309 = CARTESIAN_POINT ( 'NONE',  ( 9.999999999999991118, 9.999999999999973355, 0.000000000000000000 ) ) ;
#310 = AXIS2_PLACEMENT_3D ( 'NONE', #2, #863, #182 ) ;
#311 = EDGE_CURVE ( 'NONE', #232, #13, #562, .T. ) ;
#312 = AXIS2_PLACEMENT_3D ( 'NONE', #474, #982, #614 ) ;
#313 = FACE_OUTER_BOUND ( 'NONE', #26, .T. ) ;
#314 = ORIENTED_EDGE ( 'NONE', *, *, #398, .F. ) ;
#315 = DIRECTION ( 'NONE',  ( 0.000000000000000000, 0.000000000000000000, -1.000000000000000000 ) ) ;
#316 = ORIENTED_EDGE ( 'NONE', *, *, #1105, .F. ) ;
#317 = LINE ( 'NONE', #888, #366 ) ;
#318 = CARTESIAN_POINT ( 'NONE',  ( 6.999999999999991118, 12.99999975256829110, 0.000000000000000000 ) ) ;
#319 = VERTEX_POINT ( 'NONE', #1251 ) ;
#320 = PLANE ( 'NONE',  #1216 ) ;
#321 = ORIENTED_EDGE ( 'NONE', *, *, #635, .F. ) ;
#322 = DIRECTION ( 'NONE',  ( 0.000000000000000000, 0.000000000000000000, -1.000000000000000000 ) ) ;
#323 = DIRECTION ( 'NONE',  ( -1.000000000000000000, -1.156482221934423811E-15, 0.000000000000000000 ) ) ;
#324 = VERTEX_POINT ( 'NONE', #754 ) ;
#325 = DIRECTION ( 'NONE',  ( 0.7071068103466496835, 0.7071067520264442408, 0.000000000000000000 ) ) ;
#326 = VERTEX_POINT ( 'NONE', #277 ) ;
#327 = FACE_OUTER_BOUND ( 'NONE', #261, .T. ) ;
#328 = VECTOR ( 'NONE', #440, 1000.000000000000114 ) ;
#329 = VECTOR ( 'NONE', #738, 1000.000000000000000 ) ;
#330 = FILL_AREA_STYLE_COLOUR ( '', #452 ) ;
#331 = VERTEX_POINT ( 'NONE', #95 ) ;
#332 = DIRECTION ( 'NONE',  ( 2.891205793294681778E-16, 1.000000000000000000, -0.000000000000000000 ) ) ;
#333 = EDGE_CURVE ( 'NONE', #1148, #912, #772, .T. ) ;
#334 = ORIENTED_EDGE ( 'NONE', *, *, #775, .F. ) ;
#335 = CARTESIAN_POINT ( 'NONE',  ( -14.00000000000003020, -5.000000247431703571, 0.000000000000000000 ) ) ;
#336 = VERTEX_POINT ( 'NONE', #675 ) ;
#337 = DIRECTION ( 'NONE',  ( -2.891205793294679805E-16, -1.000000000000000000, 7.836629005481903948E-32 ) ) ;
#338 = ORIENTED_EDGE ( 'NONE', *, *, #871, .F. ) ;
#339 = CARTESIAN_POINT ( 'NONE',  ( -10.00000000000001776, 9.999999999999975131, -4.999999999999997335 ) ) ;
#340 = VERTEX_POINT ( 'NONE', #658 ) ;
#341 = CARTESIAN_POINT ( 'NONE',  ( 9.999999999999991118, 9.999999999999973355, 0.000000000000000000 ) ) ;
#342 = ORIENTED_EDGE ( 'NONE', *, *, #623, .F. ) ;
#343 = CARTESIAN_POINT ( 'NONE',  ( -6.800000000000018474, 0.000000000000000000, -1.000000000000000888 ) ) ;
#344 = PLANE ( 'NONE',  #732 ) ;
#345 = ADVANCED_FACE ( 'NONE', ( #1043 ), #566, .T. ) ;
#346 = VECTOR ( 'NONE', #1189, 1000.000000000000000 ) ;
#347 = ORIENTED_EDGE ( 'NONE', *, *, #983, .F. ) ;
#348 = VECTOR ( 'NONE', #4, 1000.000000000000000 ) ;
#349 = CARTESIAN_POINT ( 'NONE',  ( -14.00000000000002665, 9.999999999999980460, 0.000000000000000000 ) ) ;
#350 = ORIENTED_EDGE ( 'NONE', *, *, #361, .F. ) ;
#351 = CARTESIAN_POINT ( 'NONE',  ( -10.00000000000002665, 0.000000000000000000, -4.999999999999997335 ) ) ;
#352 = CARTESIAN_POINT ( 'NONE',  ( -4.000000000000075495, 0.000000000000000000, 8.000000000000040856 ) ) ;
#353 = ORIENTED_EDGE ( 'NONE', *, *, #1054, .T. ) ;
#354 = DIRECTION ( 'NONE',  ( 0.000000000000000000, 1.000000000000000000, 0.000000000000000000 ) ) ;
#355 = EDGE_CURVE ( 'NONE', #319, #228, #1078, .T. ) ;
#356 = VERTEX_POINT ( 'NONE', #525 ) ;
#357 = LINE ( 'NONE', #644, #812 ) ;
#358 = PRODUCT_DEFINITION ( 'UNKNOWN', '', #430, #456 ) ;
#359 = DIRECTION ( 'NONE',  ( -1.000000000000000000, 7.228014483236707402E-16, 0.000000000000000000 ) ) ;
#360 = DIRECTION ( 'NONE',  ( 0.7071068103466516819, -0.7071067520264421313, 0.000000000000000000 ) ) ;
#361 = EDGE_CURVE ( 'NONE', #1047, #70, #137, .T. ) ;
#362 = VERTEX_POINT ( 'NONE', #1099 ) ;
#363 = FACE_OUTER_BOUND ( 'NONE', #198, .T. ) ;
#364 = CARTESIAN_POINT ( 'NONE',  ( -3.661222149465216180, 0.7333859326913430010, -1.000000000000000888 ) ) ;
#365 = EDGE_LOOP ( 'NONE', ( #627, #188, #497, #134 ) ) ;
#366 = VECTOR ( 'NONE', #1164, 1000.000000000000000 ) ;
#367 = DIRECTION ( 'NONE',  ( 0.000000000000000000, 0.000000000000000000, -1.000000000000000000 ) ) ;
#368 = EDGE_CURVE ( 'NONE', #618, #331, #905, .T. ) ;
#369 = STYLED_ITEM ( 'NONE', ( #22 ), #1060 ) ;
#370 = VERTEX_POINT ( 'NONE', #689 ) ;
#371 = CIRCLE ( 'NONE', #854, 4.000000000000000000 ) ;
#372 = EDGE_CURVE ( 'NONE', #1132, #461, #799, .T. ) ;
#373 = DIRECTION ( 'NONE',  ( -1.387778780781445676E-16, -0.000000000000000000, -1.000000000000000000 ) ) ;
#374 = CARTESIAN_POINT ( 'NONE',  ( 6.799999999999981171, 5.000000000000000000, -5.000000000000000888 ) ) ;
#375 = LINE ( 'NONE', #1248, #1219 ) ;
#376 = PLANE ( 'NONE',  #387 ) ;
#377 = FACE_OUTER_BOUND ( 'NONE', #197, .T. ) ;
#378 = DIRECTION ( 'NONE',  ( -1.000000000000000000, 5.059610138265688673E-15, -0.000000000000000000 ) ) ;
#379 = CARTESIAN_POINT ( 'NONE',  ( -7.000000000000024869, 12.99999975256829288, -50.00000000000000000 ) ) ;
#380 = FACE_OUTER_BOUND ( 'NONE', #653, .T. ) ;
#381 = PLANE ( 'NONE',  #789 ) ;
#382 = PRODUCT_CONTEXT ( 'NONE', #1222, 'mechanical' ) ;
#383 = CARTESIAN_POINT ( 'NONE',  ( 20.00000000000024869, 12.99999975256829110, 0.000000000000000000 ) ) ;
#384 = EDGE_CURVE ( 'NONE', #326, #920, #124, .T. ) ;
#385 = PLANE ( 'NONE',  #553 ) ;
#386 = VECTOR ( 'NONE', #60, 1000.000000000000114 ) ;
#387 = AXIS2_PLACEMENT_3D ( 'NONE', #1250, #758, #98 ) ;
#388 = CARTESIAN_POINT ( 'NONE',  ( 3.636363666621390767, 6.181818222161858500, 11.81818177783818236 ) ) ;
#389 = DIRECTION ( 'NONE',  ( 0.000000000000000000, 1.000000000000000000, 0.000000000000000000 ) ) ;
#390 = CARTESIAN_POINT ( 'NONE',  ( 6.999999999999938716, -45.00000000000000000, -5.000000000000000888 ) ) ;
#391 = CARTESIAN_POINT ( 'NONE',  ( 13.99999999999999112, 9.999999999999976907, 0.000000000000000000 ) ) ;
#392 = ORIENTED_EDGE ( 'NONE', *, *, #871, .T. ) ;
#393 = EDGE_LOOP ( 'NONE', ( #305, #404, #392, #796, #916, #1025, #1143, #878, #68, #123 ) ) ;
#394 = PLANE ( 'NONE',  #895 ) ;
#395 = CARTESIAN_POINT ( 'NONE',  ( 6.799999999999981171, 5.000000000000000000, -1.000000000000000888 ) ) ;
#396 = CARTESIAN_POINT ( 'NONE',  ( -7.000000000000029310, -5.000000247431705347, -50.00000000000000000 ) ) ;
#397 = ORIENTED_EDGE ( 'NONE', *, *, #1071, .F. ) ;
#398 = EDGE_CURVE ( 'NONE', #647, #12, #401, .T. ) ;
#399 = EDGE_CURVE ( 'NONE', #1148, #263, #805, .T. ) ;
#400 = EDGE_LOOP ( 'NONE', ( #595, #5, #818, #1229, #432, #334, #265, #1107, #598, #874 ) ) ;
#401 = LINE ( 'NONE', #14, #85 ) ;
#402 = CARTESIAN_POINT ( 'NONE',  ( 6.797058187186571843, 3.200000000000000178, -1.000000000000000888 ) ) ;
#403 = DIRECTION ( 'NONE',  ( -0.000000000000000000, -1.000000000000000000, -0.000000000000000000 ) ) ;
#404 = ORIENTED_EDGE ( 'NONE', *, *, #1170, .T. ) ;
#405 = DIRECTION ( 'NONE',  ( 0.000000000000000000, -0.000000000000000000, 1.000000000000000000 ) ) ;
#406 = EDGE_CURVE ( 'NONE', #930, #336, #513, .T. ) ;
#407 = VECTOR ( 'NONE', #226, 1000.000000000000000 ) ;
#408 = ORIENTED_EDGE ( 'NONE', *, *, #606, .T. ) ;
#409 = DIRECTION ( 'NONE',  ( 1.000000000000000000, 0.000000000000000000, 0.000000000000000000 ) ) ;
#410 = AXIS2_PLACEMENT_3D ( 'NONE', #567, #1151, #1056 ) ;
#411 = ADVANCED_FACE ( 'NONE', ( #327 ), #680, .F. ) ;
#412 = VECTOR ( 'NONE', #757, 1000.000000000000114 ) ;
#413 = ADVANCED_FACE ( 'NONE', ( #115 ), #897, .T. ) ;
#414 = EDGE_LOOP ( 'NONE', ( #1198, #778, #253, #108, #57, #604, #524 ) ) ;
#415 = CARTESIAN_POINT ( 'NONE',  ( -14.00000000000002665, 12.99999975256829465, -50.00000000000000000 ) ) ;
#416 = ORIENTED_EDGE ( 'NONE', *, *, #45, .F. ) ;
#417 = DIRECTION ( 'NONE',  ( -0.000000000000000000, -1.000000000000000000, -0.000000000000000000 ) ) ;
#418 =( LENGTH_UNIT ( ) NAMED_UNIT ( * ) SI_UNIT ( .MILLI., .METRE. ) );
#419 = ORIENTED_EDGE ( 'NONE', *, *, #279, .F. ) ;
#420 = LINE ( 'NONE', #1182, #407 ) ;
#421 = ORIENTED_EDGE ( 'NONE', *, *, #662, .T. ) ;
#422 = DIRECTION ( 'NONE',  ( 1.000000000000000000, -0.000000000000000000, -0.000000000000000000 ) ) ;
#423 = FACE_OUTER_BOUND ( 'NONE', #1007, .T. ) ;
#424 = VERTEX_POINT ( 'NONE', #519 ) ;
#425 = EDGE_CURVE ( 'NONE', #150, #1137, #317, .T. ) ;
#426 = CARTESIAN_POINT ( 'NONE',  ( 10.00000000000000888, 4.999999999999999112, -5.000000000000001776 ) ) ;
#427 = VERTEX_POINT ( 'NONE', #708 ) ;
#428 = DIRECTION ( 'NONE',  ( -1.156482221934423811E-15, 1.000000000000000000, -0.000000000000000000 ) ) ;
#429 = VECTOR ( 'NONE', #861, 1000.000000000000000 ) ;
#430 = PRODUCT_DEFINITION_FORMATION_WITH_SPECIFIED_SOURCE ( 'ANY', '', #726, .NOT_KNOWN. ) ;
#431 = DIRECTION ( 'NONE',  ( -0.7071067811865437980, 1.752335333352418289E-16, 0.7071067811865513475 ) ) ;
#432 = ORIENTED_EDGE ( 'NONE', *, *, #748, .T. ) ;
#433 = VECTOR ( 'NONE', #144, 1000.000000000000000 ) ;
#434 = CARTESIAN_POINT ( 'NONE',  ( 9.999999999999991118, -2.000000000000021316, -50.00000000000000000 ) ) ;
#435 = ADVANCED_FACE ( 'NONE', ( #591 ), #236, .F. ) ;
#436 = EDGE_LOOP ( 'NONE', ( #937, #537, #1209, #588 ) ) ;
#437 = DIRECTION ( 'NONE',  ( 0.000000000000000000, -1.000000000000000000, 0.000000000000000000 ) ) ;
#438 = DIRECTION ( 'NONE',  ( 0.7071067520264442408, -0.7071068103466495725, -0.000000000000000000 ) ) ;
#439 = ORIENTED_EDGE ( 'NONE', *, *, #716, .T. ) ;
#440 = DIRECTION ( 'NONE',  ( 0.7071067520264443518, 0.7071068103466494614, 0.000000000000000000 ) ) ;
#441 = ORIENTED_EDGE ( 'NONE', *, *, #858, .T. ) ;
#442 = CARTESIAN_POINT ( 'NONE',  ( -10.00000000000003020, -2.000000000000018652, -1.999999999999946265 ) ) ;
#443 = ADVANCED_FACE ( 'NONE', ( #1169 ), #1184, .F. ) ;
#444 = LINE ( 'NONE', #825, #974 ) ;
#445 = ORIENTED_EDGE ( 'NONE', *, *, #384, .T. ) ;
#446 = CARTESIAN_POINT ( 'NONE',  ( -7.000000000000015099, 12.99999975256829288, -4.999999999999998224 ) ) ;
#447 = ORIENTED_EDGE ( 'NONE', *, *, #279, .T. ) ;
#448 = DIRECTION ( 'NONE',  ( -0.000000000000000000, -0.000000000000000000, -1.000000000000000000 ) ) ;
#449 = LINE ( 'NONE', #833, #788 ) ;
#450 = VECTOR ( 'NONE', #245, 1000.000000000000000 ) ;
#451 = VERTEX_POINT ( 'NONE', #701 ) ;
#452 = COLOUR_RGB ( '',0.7921568627450980005, 0.8196078431372548767, 0.9333333333333333481 ) ;
#453 = LINE ( 'NONE', #626, #1094 ) ;
#454 = VECTOR ( 'NONE', #584, 1000.000000000000000 ) ;
#455 = ORIENTED_EDGE ( 'NONE', *, *, #399, .F. ) ;
#456 = PRODUCT_DEFINITION_CONTEXT ( 'detailed design', #292, 'design' ) ;
#457 = CARTESIAN_POINT ( 'NONE',  ( 0.000000000000000000, -1.925929944387235853E-31, -0.8000000000000003775 ) ) ;
#458 = CARTESIAN_POINT ( 'NONE',  ( -3.994996871087635792, 0.000000000000000000, -1.000000000000000888 ) ) ;
#459 = LINE ( 'NONE', #734, #1096 ) ;
#460 = LINE ( 'NONE', #256, #934 ) ;
#461 = VERTEX_POINT ( 'NONE', #500 ) ;
#462 = DIRECTION ( 'NONE',  ( 0.000000000000000000, 0.000000000000000000, -1.000000000000000000 ) ) ;
#463 = CARTESIAN_POINT ( 'NONE',  ( 0.000000000000000000, 0.000000000000000000, 0.000000000000000000 ) ) ;
#464 = EDGE_LOOP ( 'NONE', ( #99, #516, #128, #1183 ) ) ;
#465 = DIRECTION ( 'NONE',  ( 0.7071067811865513475, -2.044391222244510191E-16, 0.7071067811865437980 ) ) ;
#466 = ORIENTED_EDGE ( 'NONE', *, *, #846, .F. ) ;
#467 = DIRECTION ( 'NONE',  ( 0.000000000000000000, 0.000000000000000000, 1.000000000000000000 ) ) ;
#468 = DIRECTION ( 'NONE',  ( -1.000000000000000000, 0.000000000000000000, 0.000000000000000000 ) ) ;
#469 = CIRCLE ( 'NONE', #1070, 6.800000000000000711 ) ;
#470 = CARTESIAN_POINT ( 'NONE',  ( 8.000000000000015987, 8.000000000000000000, 5.999999999999978684 ) ) ;
#471 = AXIS2_PLACEMENT_3D ( 'NONE', #318, #210, #133 ) ;
#472 = VECTOR ( 'NONE', #158, 1000.000000000000000 ) ;
#473 = VERTEX_POINT ( 'NONE', #880 ) ;
#474 = CARTESIAN_POINT ( 'NONE',  ( 16.99999999999999289, 9.999999999999976907, 0.000000000000000000 ) ) ;
#475 = DIRECTION ( 'NONE',  ( -0.000000000000000000, -0.000000000000000000, -1.000000000000000000 ) ) ;
#476 = PLANE ( 'NONE',  #62 ) ;
#477 = ORIENTED_EDGE ( 'NONE', *, *, #846, .T. ) ;
#478 = DIRECTION ( 'NONE',  ( 1.387778780781445922E-16, 0.000000000000000000, 1.000000000000000000 ) ) ;
#479 = ADVANCED_FACE ( 'NONE', ( #214 ), #596, .T. ) ;
#480 = EDGE_CURVE ( 'NONE', #340, #73, #811, .T. ) ;
#481 = CARTESIAN_POINT ( 'NONE',  ( -17.00000000000003197, -2.000000000000005329, 0.000000000000000000 ) ) ;
#482 = LINE ( 'NONE', #395, #148 ) ;
#483 = DIRECTION ( 'NONE',  ( 0.000000000000000000, 0.000000000000000000, -1.000000000000000000 ) ) ;
#484 = ORIENTED_EDGE ( 'NONE', *, *, #1249, .F. ) ;
#485 = LINE ( 'NONE', #101, #571 ) ;
#486 = LINE ( 'NONE', #749, #21 ) ;
#487 = FACE_OUTER_BOUND ( 'NONE', #503, .T. ) ;
#488 = EDGE_CURVE ( 'NONE', #461, #424, #1199, .T. ) ;
#489 = DIRECTION ( 'NONE',  ( -1.000000000000000000, 0.000000000000000000, 2.168404344971005417E-16 ) ) ;
#490 = ORIENTED_EDGE ( 'NONE', *, *, #406, .F. ) ;
#491 = VECTOR ( 'NONE', #621, 1000.000000000000000 ) ;
#492 = ORIENTED_EDGE ( 'NONE', *, *, #1188, .F. ) ;
#493 = PLANE ( 'NONE',  #46 ) ;
#494 = AXIS2_PLACEMENT_3D ( 'NONE', #633, #1121, #255 ) ;
#495 = CARTESIAN_POINT ( 'NONE',  ( 13.99999999999999112, 8.000000000000000000, 3.000000000000060396 ) ) ;
#496 = CARTESIAN_POINT ( 'NONE',  ( -14.00000000000003375, -2.000000000000020428, 0.000000000000000000 ) ) ;
#497 = ORIENTED_EDGE ( 'NONE', *, *, #281, .T. ) ;
#498 = EDGE_CURVE ( 'NONE', #362, #1027, #829, .T. ) ;
#499 = ORIENTED_EDGE ( 'NONE', *, *, #45, .T. ) ;
#500 = CARTESIAN_POINT ( 'NONE',  ( -6.800000000000018474, 0.000000000000000000, -1.000000000000000888 ) ) ;
#501 = EDGE_CURVE ( 'NONE', #522, #340, #546, .T. ) ;
#502 = FILL_AREA_STYLE ('',( #330 ) ) ;
#503 = EDGE_LOOP ( 'NONE', ( #607, #397, #484, #1218, #712, #445, #1101 ) ) ;
#504 = DIRECTION ( 'NONE',  ( 0.000000000000000000, 0.000000000000000000, -1.000000000000000000 ) ) ;
#505 = ORIENTED_EDGE ( 'NONE', *, *, #1245, .T. ) ;
#506 = CARTESIAN_POINT ( 'NONE',  ( 20.00000000000024869, 8.000000000000000000, 0.000000000000000000 ) ) ;
#507 = CARTESIAN_POINT ( 'NONE',  ( 20.00000000000024158, -2.000000000000027978, 2.891205793294652195E-15 ) ) ;
#508 = CARTESIAN_POINT ( 'NONE',  ( 10.00000000000000533, -5.000000247431707123, -3.469446951953599595E-15 ) ) ;
#509 = EDGE_LOOP ( 'NONE', ( #704, #416, #136, #759, #63, #1126 ) ) ;
#510 = CARTESIAN_POINT ( 'NONE',  ( -7.000000000000029310, -5.000000247431705347, -4.999999999999998224 ) ) ;
#511 = VECTOR ( 'NONE', #157, 1000.000000000000000 ) ;
#512 = VERTEX_POINT ( 'NONE', #715 ) ;
#513 = LINE ( 'NONE', #229, #551 ) ;
#514 = CONICAL_SURFACE ( 'NONE', #709, 3.000000000000000888, 0.4266274931268757564 ) ;
#515 = VECTOR ( 'NONE', #1038, 1000.000000000000000 ) ;
#516 = ORIENTED_EDGE ( 'NONE', *, *, #44, .F. ) ;
#517 = CARTESIAN_POINT ( 'NONE',  ( 9.999999999999991118, -2.000000000000021316, 0.000000000000000000 ) ) ;
#518 = ORIENTED_EDGE ( 'NONE', *, *, #488, .F. ) ;
#519 = CARTESIAN_POINT ( 'NONE',  ( -6.800000000000018474, 0.000000000000000000, -4.999999999999998224 ) ) ;
#520 = ADVANCED_FACE ( 'NONE', ( #1104 ), #1210, .T. ) ;
#521 = CARTESIAN_POINT ( 'NONE',  ( -6.797058187186571843, -1.925929944387235853E-31, -1.000000000000000888 ) ) ;
#522 = VERTEX_POINT ( 'NONE', #923 ) ;
#523 = CARTESIAN_POINT ( 'NONE',  ( 2.993325909419153774, 2.200000000000000178, -1.000000000000000888 ) ) ;
#524 = ORIENTED_EDGE ( 'NONE', *, *, #51, .F. ) ;
#525 = CARTESIAN_POINT ( 'NONE',  ( -14.00000000000003375, -2.000000000000020428, 2.999999999999992450 ) ) ;
#526 = LINE ( 'NONE', #260, #231 ) ;
#527 = ORIENTED_EDGE ( 'NONE', *, *, #1213, .F. ) ;
#528 = LINE ( 'NONE', #1102, #125 ) ;
#529 = ORIENTED_EDGE ( 'NONE', *, *, #294, .F. ) ;
#530 = FACE_OUTER_BOUND ( 'NONE', #235, .T. ) ;
#531 = VECTOR ( 'NONE', #902, 1000.000000000000000 ) ;
#532 = DIRECTION ( 'NONE',  ( -5.204170427930421283E-16, -1.000000000000000000, 0.000000000000000000 ) ) ;
#533 = CARTESIAN_POINT ( 'NONE',  ( 7.000000000000000888, 12.99999975256829110, -5.000000000000001776 ) ) ;
#534 = ORIENTED_EDGE ( 'NONE', *, *, #742, .T. ) ;
#535 = CARTESIAN_POINT ( 'NONE',  ( 16.99999999999999289, 9.999999999999976907, -50.00000000000000000 ) ) ;
#536 = EDGE_CURVE ( 'NONE', #356, #319, #1005, .T. ) ;
#537 = ORIENTED_EDGE ( 'NONE', *, *, #355, .F. ) ;
#538 = CARTESIAN_POINT ( 'NONE',  ( 6.799999999999983835, 0.000000000000000000, -1.000000000000000888 ) ) ;
#539 = PRODUCT_DEFINITION_SHAPE ( 'NONE', 'NONE',  #358 ) ;
#540 = DIRECTION ( 'NONE',  ( 1.000000000000000000, -1.156482221934423811E-15, 0.000000000000000000 ) ) ;
#541 = VERTEX_POINT ( 'NONE', #442 ) ;
#542 = EDGE_CURVE ( 'NONE', #308, #522, #58, .T. ) ;
#543 = DIRECTION ( 'NONE',  ( -1.000000000000000000, 0.000000000000000000, -0.000000000000000000 ) ) ;
#544 = ADVANCED_FACE ( 'NONE', ( #530 ), #730, .F. ) ;
#545 = VERTEX_POINT ( 'NONE', #339 ) ;
#546 = LINE ( 'NONE', #335, #42 ) ;
#547 = EDGE_CURVE ( 'NONE', #70, #926, #1118, .T. ) ;
#548 = ORIENTED_EDGE ( 'NONE', *, *, #368, .T. ) ;
#549 = CARTESIAN_POINT ( 'NONE',  ( 10.00000000000000888, -5.001000247431707457, -5.000000000000001776 ) ) ;
#550 = EDGE_LOOP ( 'NONE', ( #1022, #455, #1066, #714 ) ) ;
#551 = VECTOR ( 'NONE', #791, 1000.000000000000000 ) ;
#552 = ORIENTED_EDGE ( 'NONE', *, *, #163, .F. ) ;
#553 = AXIS2_PLACEMENT_3D ( 'NONE', #587, #178, #864 ) ;
#554 = CARTESIAN_POINT ( 'NONE',  ( 0.000000000000000000, 8.000000000000000000, 0.000000000000000000 ) ) ;
#555 = VERTEX_POINT ( 'NONE', #819 ) ;
#556 = EDGE_CURVE ( 'NONE', #643, #308, #254, .T. ) ;
#557 = CYLINDRICAL_SURFACE ( 'NONE', #84, 3.000000000000000888 ) ;
#558 =( NAMED_UNIT ( * ) SI_UNIT ( $, .STERADIAN. ) SOLID_ANGLE_UNIT ( ) );
#559 = ORIENTED_EDGE ( 'NONE', *, *, #1032, .T. ) ;
#560 = DIRECTION ( 'NONE',  ( 0.7071068103466516819, -0.7071067520264422424, -0.000000000000000000 ) ) ;
#561 = ORIENTED_EDGE ( 'NONE', *, *, #648, .F. ) ;
#562 = LINE ( 'NONE', #194, #1014 ) ;
#563 = LINE ( 'NONE', #765, #167 ) ;
#564 = ORIENTED_EDGE ( 'NONE', *, *, #978, .F. ) ;
#565 = LINE ( 'NONE', #855, #1234 ) ;
#566 = PLANE ( 'NONE',  #312 ) ;
#567 = CARTESIAN_POINT ( 'NONE',  ( -17.00000000000002842, 9.999999999999980460, 0.000000000000000000 ) ) ;
#568 = DIRECTION ( 'NONE',  ( 0.000000000000000000, 0.000000000000000000, -1.000000000000000000 ) ) ;
#569 = DIRECTION ( 'NONE',  ( 0.000000000000000000, 0.000000000000000000, -1.000000000000000000 ) ) ;
#570 = VECTOR ( 'NONE', #655, 1000.000000000000227 ) ;
#571 = VECTOR ( 'NONE', #1055, 1000.000000000000000 ) ;
#572 = EDGE_CURVE ( 'NONE', #427, #613, #1012, .T. ) ;
#573 = DIRECTION ( 'NONE',  ( 0.000000000000000000, -0.000000000000000000, 1.000000000000000000 ) ) ;
#574 = PLANE ( 'NONE',  #3 ) ;
#575 = CARTESIAN_POINT ( 'NONE',  ( -14.00000000000002665, 9.999999999999980460, 0.000000000000000000 ) ) ;
#576 = EDGE_CURVE ( 'NONE', #883, #232, #612, .T. ) ;
#577 = ORIENTED_EDGE ( 'NONE', *, *, #741, .T. ) ;
#578 = CARTESIAN_POINT ( 'NONE',  ( -17.00000000000002842, 9.999999999999980460, -50.00000000000000000 ) ) ;
#579 = DIRECTION ( 'NONE',  ( 0.000000000000000000, 0.000000000000000000, -1.000000000000000000 ) ) ;
#580 = CARTESIAN_POINT ( 'NONE',  ( 16.66666666666698760, 16.33333333333336057, 1.666666666666591468 ) ) ;
#581 = DIRECTION ( 'NONE',  ( 0.000000000000000000, 0.000000000000000000, -1.000000000000000000 ) ) ;
#582 = ORIENTED_EDGE ( 'NONE', *, *, #899, .T. ) ;
#583 = ORIENTED_EDGE ( 'NONE', *, *, #488, .T. ) ;
#584 = DIRECTION ( 'NONE',  ( 2.602085213965208669E-15, -6.448426153082258647E-31, 1.000000000000000000 ) ) ;
#585 = ADVANCED_FACE ( 'NONE', ( #1095 ), #320, .T. ) ;
#586 = DIRECTION ( 'NONE',  ( 0.7071067520264419093, -0.7071068103466519039, 0.000000000000000000 ) ) ;
#587 = CARTESIAN_POINT ( 'NONE',  ( 0.000000000000000000, 0.000000000000000000, -1.000000000000000888 ) ) ;
#588 = ORIENTED_EDGE ( 'NONE', *, *, #399, .T. ) ;
#589 = AXIS2_PLACEMENT_3D ( 'NONE', #1090, #608, #995 ) ;
#590 = ORIENTED_EDGE ( 'NONE', *, *, #775, .T. ) ;
#591 = FACE_OUTER_BOUND ( 'NONE', #1201, .T. ) ;
#592 = VECTOR ( 'NONE', #475, 1000.000000000000000 ) ;
#593 = ORIENTED_EDGE ( 'NONE', *, *, #662, .F. ) ;
#594 = CARTESIAN_POINT ( 'NONE',  ( 6.999999999999991118, -5.000000247431707123, -50.00000000000000000 ) ) ;
#595 = ORIENTED_EDGE ( 'NONE', *, *, #943, .T. ) ;
#596 = PLANE ( 'NONE',  #589 ) ;
#597 = DIRECTION ( 'NONE',  ( -0.7071067520264443518, -0.7071068103466494614, 0.000000000000000000 ) ) ;
#598 = ORIENTED_EDGE ( 'NONE', *, *, #630, .F. ) ;
#599 = DIRECTION ( 'NONE',  ( 0.000000000000000000, 0.000000000000000000, -1.000000000000000000 ) ) ;
#600 = ORIENTED_EDGE ( 'NONE', *, *, #264, .T. ) ;
#601 = DIRECTION ( 'NONE',  ( 0.000000000000000000, 0.000000000000000000, -1.000000000000000000 ) ) ;
#602 = DIRECTION ( 'NONE',  ( -1.156482221934423811E-15, -1.000000000000000000, 0.000000000000000000 ) ) ;
#603 = CARTESIAN_POINT ( 'NONE',  ( 0.000000000000000000, 2.200000000000000178, -0.8000000000000003775 ) ) ;
#604 = ORIENTED_EDGE ( 'NONE', *, *, #425, .F. ) ;
#605 = CARTESIAN_POINT ( 'NONE',  ( -7.000000000000029310, -5.000000247431705347, 0.000000000000000000 ) ) ;
#606 = EDGE_CURVE ( 'NONE', #150, #786, #469, .T. ) ;
#607 = ORIENTED_EDGE ( 'NONE', *, *, #138, .F. ) ;
#608 = DIRECTION ( 'NONE',  ( -2.478176394252581634E-16, -1.000000000000000000, 0.000000000000000000 ) ) ;
#609 = MECHANICAL_DESIGN_GEOMETRIC_PRESENTATION_REPRESENTATION (  '', ( #369 ), #1010 ) ;
#610 = LINE ( 'NONE', #15, #1172 ) ;
#611 = ORIENTED_EDGE ( 'NONE', *, *, #637, .T. ) ;
#612 = LINE ( 'NONE', #130, #830 ) ;
#613 = VERTEX_POINT ( 'NONE', #415 ) ;
#614 = DIRECTION ( 'NONE',  ( 2.891205793294677833E-16, 1.000000000000000000, 0.000000000000000000 ) ) ;
#615 = EDGE_CURVE ( 'NONE', #70, #663, #991, .T. ) ;
#616 = LINE ( 'NONE', #507, #106 ) ;
#617 = PLANE ( 'NONE',  #471 ) ;
#618 = VERTEX_POINT ( 'NONE', #884 ) ;
#619 = DIRECTION ( 'NONE',  ( 1.000000000000000000, -1.239088197126289338E-16, -2.478176394252578676E-16 ) ) ;
#620 = ORIENTED_EDGE ( 'NONE', *, *, #721, .F. ) ;
#621 = DIRECTION ( 'NONE',  ( -0.8944271909999134129, 4.525452883523663064E-15, -0.4472135954999629237 ) ) ;
#622 = DIRECTION ( 'NONE',  ( -0.000000000000000000, -1.000000000000000000, -0.000000000000000000 ) ) ;
#623 = EDGE_CURVE ( 'NONE', #331, #647, #1176, .T. ) ;
#624 = ORIENTED_EDGE ( 'NONE', *, *, #258, .T. ) ;
#625 = EDGE_CURVE ( 'NONE', #688, #1077, #803, .T. ) ;
#626 = CARTESIAN_POINT ( 'NONE',  ( 6.799999999999986500, -5.001000247431709234, -5.000000000000000888 ) ) ;
#627 = ORIENTED_EDGE ( 'NONE', *, *, #294, .T. ) ;
#628 = DIRECTION ( 'NONE',  ( -2.891205793294679805E-16, -1.000000000000000000, -1.445602896647360117E-16 ) ) ;
#629 = VECTOR ( 'NONE', #619, 1000.000000000000000 ) ;
#630 = EDGE_CURVE ( 'NONE', #1223, #1214, #914, .T. ) ;
#631 = DIRECTION ( 'NONE',  ( -1.000000000000000000, 0.000000000000000000, 0.000000000000000000 ) ) ;
#632 = AXIS2_PLACEMENT_3D ( 'NONE', #906, #153, #733 ) ;
#633 = CARTESIAN_POINT ( 'NONE',  ( 10.00000000000000888, -5.001000247431707457, -5.000000000000001776 ) ) ;
#634 = VECTOR ( 'NONE', #422, 1000.000000000000000 ) ;
#635 = EDGE_CURVE ( 'NONE', #926, #1047, #17, .T. ) ;
#636 = FACE_OUTER_BOUND ( 'NONE', #679, .T. ) ;
#637 = EDGE_CURVE ( 'NONE', #555, #216, #797, .T. ) ;
#638 = ORIENTED_EDGE ( 'NONE', *, *, #1242, .T. ) ;
#639 = DIRECTION ( 'NONE',  ( 0.000000000000000000, -1.000000000000000000, -0.000000000000000000 ) ) ;
#640 = CARTESIAN_POINT ( 'NONE',  ( 9.999999505136642597, 12.99999987628413578, 5.000000123715844680 ) ) ;
#641 = ORIENTED_EDGE ( 'NONE', *, *, #218, .T. ) ;
#642 = DIRECTION ( 'NONE',  ( -0.000000000000000000, 1.000000000000000000, -0.000000000000000000 ) ) ;
#643 = VERTEX_POINT ( 'NONE', #212 ) ;
#644 = CARTESIAN_POINT ( 'NONE',  ( 10.00000000000000888, 0.000000000000000000, -5.000000000000001776 ) ) ;
#645 = ORIENTED_EDGE ( 'NONE', *, *, #542, .F. ) ;
#646 = FACE_OUTER_BOUND ( 'NONE', #550, .T. ) ;
#647 = VERTEX_POINT ( 'NONE', #135 ) ;
#648 = EDGE_CURVE ( 'NONE', #160, #691, #420, .T. ) ;
#649 = DIRECTION ( 'NONE',  ( 1.000000000000000000, 0.000000000000000000, 0.000000000000000000 ) ) ;
#650 = AXIS2_PLACEMENT_3D ( 'NONE', #155, #543, #925 ) ;
#651 = VERTEX_POINT ( 'NONE', #980 ) ;
#652 = DIRECTION ( 'NONE',  ( -1.156482221934423811E-15, 1.000000000000000000, -5.782411109672199913E-16 ) ) ;
#653 = EDGE_LOOP ( 'NONE', ( #211, #839, #505, #561, #55, #638 ) ) ;
#654 = CARTESIAN_POINT ( 'NONE',  ( -10.00000000000003020, -2.000000000000018652, -50.00000000000000000 ) ) ;
#655 = DIRECTION ( 'NONE',  ( -0.8944271909999199632, 0.000000000000000000, 0.4472135954999497121 ) ) ;
#656 = ORIENTED_EDGE ( 'NONE', *, *, #725, .T. ) ;
#657 = DIRECTION ( 'NONE',  ( 0.000000000000000000, 1.000000000000000000, 0.000000000000000000 ) ) ;
#658 = CARTESIAN_POINT ( 'NONE',  ( -14.00000000000003020, -5.000000247431703571, -50.00000000000000000 ) ) ;
#659 = CARTESIAN_POINT ( 'NONE',  ( 6.999999999999991118, 12.99999975256829110, 0.000000000000000000 ) ) ;
#660 = LINE ( 'NONE', #379, #1175 ) ;
#661 = LINE ( 'NONE', #1046, #206 ) ;
#662 = EDGE_CURVE ( 'NONE', #678, #997, #1232, .T. ) ;
#663 = VERTEX_POINT ( 'NONE', #434 ) ;
#664 = CARTESIAN_POINT ( 'NONE',  ( -7.999999890030399463, 11.99999994501513889, 6.000000054984852227 ) ) ;
#665 = CARTESIAN_POINT ( 'NONE',  ( 20.00000000000024869, -5.000000247431708011, 0.000000000000000000 ) ) ;
#666 = DIRECTION ( 'NONE',  ( 1.000000000000000000, -0.000000000000000000, -0.000000000000000000 ) ) ;
#667 = VECTOR ( 'NONE', #239, 1000.000000000000000 ) ;
#668 = FACE_OUTER_BOUND ( 'NONE', #393, .T. ) ;
#669 = VECTOR ( 'NONE', #881, 1000.000000000000000 ) ;
#670 = CARTESIAN_POINT ( 'NONE',  ( 9.999999999999991118, -2.000000000000021316, 0.000000000000000000 ) ) ;
#671 = CARTESIAN_POINT ( 'NONE',  ( -6.800000000000014033, 4.999999999999999112, -4.999999999999998224 ) ) ;
#672 = PLANE ( 'NONE',  #832 ) ;
#673 = LINE ( 'NONE', #965, #429 ) ;
#674 = EDGE_LOOP ( 'NONE', ( #1085, #1059, #1087, #1187, #419, #347, #269, #1128 ) ) ;
#675 = CARTESIAN_POINT ( 'NONE',  ( 16.99999999999998934, -2.000000000000026201, 1.500000000000095257 ) ) ;
#676 = DIRECTION ( 'NONE',  ( 0.000000000000000000, 0.000000000000000000, -1.000000000000000000 ) ) ;
#677 = CARTESIAN_POINT ( 'NONE',  ( 10.00000000000000178, -5.000000247431708011, 5.000000000000008882 ) ) ;
#678 = VERTEX_POINT ( 'NONE', #523 ) ;
#679 = EDGE_LOOP ( 'NONE', ( #828, #564, #835, #1016 ) ) ;
#680 = CYLINDRICAL_SURFACE ( 'NONE', #1133, 6.800000000000000711 ) ;
#681 = DIRECTION ( 'NONE',  ( 1.000000000000000000, 5.204170427930421283E-16, -0.000000000000000000 ) ) ;
#682 = DIRECTION ( 'NONE',  ( 0.000000000000000000, 0.000000000000000000, -1.000000000000000000 ) ) ;
#683 = ORIENTED_EDGE ( 'NONE', *, *, #162, .T. ) ;
#684 = AXIS2_PLACEMENT_3D ( 'NONE', #506, #1067, #110 ) ;
#685 = DIRECTION ( 'NONE',  ( 0.000000000000000000, 1.000000000000000000, 0.000000000000000000 ) ) ;
#686 = VECTOR ( 'NONE', #695, 1000.000000000000227 ) ;
#687 = VECTOR ( 'NONE', #666, 1000.000000000000000 ) ;
#688 = VERTEX_POINT ( 'NONE', #510 ) ;
#689 = CARTESIAN_POINT ( 'NONE',  ( 16.99999999999999289, 9.999999999999976907, -50.00000000000000000 ) ) ;
#690 = PLANE ( 'NONE',  #632 ) ;
#691 = VERTEX_POINT ( 'NONE', #594 ) ;
#692 = LINE ( 'NONE', #986, #951 ) ;
#693 = VERTEX_POINT ( 'NONE', #1088 ) ;
#694 = CARTESIAN_POINT ( 'NONE',  ( -17.00000000000003197, -2.000000000000005329, 0.000000000000000000 ) ) ;
#695 = DIRECTION ( 'NONE',  ( -0.8944271909999199632, 0.000000000000000000, 0.4472135954999497121 ) ) ;
#696 = EDGE_LOOP ( 'NONE', ( #583, #141, #492, #801 ) ) ;
#697 = EDGE_CURVE ( 'NONE', #228, #263, #1195, .T. ) ;
#698 = ADVANCED_FACE ( 'NONE', ( #816 ), #306, .T. ) ;
#699 = DIRECTION ( 'NONE',  ( -0.7071067520264442408, 0.7071068103466496835, 0.000000000000000000 ) ) ;
#700 = ORIENTED_EDGE ( 'NONE', *, *, #1241, .T. ) ;
#701 = CARTESIAN_POINT ( 'NONE',  ( 13.99999999999999467, -2.000000000000023981, 3.000000000000058620 ) ) ;
#702 = CARTESIAN_POINT ( 'NONE',  ( 20.00000000000024869, 9.999999999999976907, 0.000000000000000000 ) ) ;
#703 = DIRECTION ( 'NONE',  ( 0.000000000000000000, 1.000000000000000000, 0.000000000000000000 ) ) ;
#704 = ORIENTED_EDGE ( 'NONE', *, *, #630, .T. ) ;
#705 = DIRECTION ( 'NONE',  ( -0.000000000000000000, -1.000000000000000000, -0.000000000000000000 ) ) ;
#706 = AXIS2_PLACEMENT_3D ( 'NONE', #71, #465, #337 ) ;
#707 = ORIENTED_EDGE ( 'NONE', *, *, #355, .T. ) ;
#708 = CARTESIAN_POINT ( 'NONE',  ( -14.00000000000002665, 9.999999999999980460, -50.00000000000000000 ) ) ;
#709 = AXIS2_PLACEMENT_3D ( 'NONE', #603, #403, #682 ) ;
#710 = VECTOR ( 'NONE', #954, 1000.000000000000227 ) ;
#711 =( NAMED_UNIT ( * ) SI_UNIT ( $, .STERADIAN. ) SOLID_ANGLE_UNIT ( ) );
#712 = ORIENTED_EDGE ( 'NONE', *, *, #963, .T. ) ;
#713 = CARTESIAN_POINT ( 'NONE',  ( 0.000000000000000000, 3.200000000000000178, 6.000000000000000000 ) ) ;
#714 = ORIENTED_EDGE ( 'NONE', *, *, #978, .T. ) ;
#715 = CARTESIAN_POINT ( 'NONE',  ( -7.000000000000024869, 12.99999975256829288, -50.00000000000000000 ) ) ;
#716 = EDGE_CURVE ( 'NONE', #663, #331, #528, .T. ) ;
#717 = EDGE_CURVE ( 'NONE', #777, #512, #1076, .T. ) ;
#718 = LINE ( 'NONE', #533, #250 ) ;
#719 = EDGE_LOOP ( 'NONE', ( #321, #1174, #350 ) ) ;
#720 = CARTESIAN_POINT ( 'NONE',  ( -6.666666666666634100, 11.33333333333326820, 6.666666666666742458 ) ) ;
#721 = EDGE_CURVE ( 'NONE', #119, #362, #692, .T. ) ;
#722 = ORIENTED_EDGE ( 'NONE', *, *, #51, .T. ) ;
#723 = CARTESIAN_POINT ( 'NONE',  ( -10.00000000000002665, 8.000000000000000000, 5.000000000000023093 ) ) ;
#724 = FACE_OUTER_BOUND ( 'NONE', #696, .T. ) ;
#725 = EDGE_CURVE ( 'NONE', #283, #555, #893, .T. ) ;
#726 = PRODUCT ( 'extruder_plunger_mount', 'extruder_plunger_mount', '', ( #382 ) ) ;
#727 = ORIENTED_EDGE ( 'NONE', *, *, #498, .F. ) ;
#728 = CARTESIAN_POINT ( 'NONE',  ( 13.99999999999999467, -2.000000000000023981, 0.000000000000000000 ) ) ;
#729 = ORIENTED_EDGE ( 'NONE', *, *, #276, .F. ) ;
#730 = PLANE ( 'NONE',  #915 ) ;
#731 = VECTOR ( 'NONE', #652, 1000.000000000000000 ) ;
#732 = AXIS2_PLACEMENT_3D ( 'NONE', #737, #838, #532 ) ;
#733 = DIRECTION ( 'NONE',  ( 0.000000000000000000, -0.000000000000000000, 1.000000000000000000 ) ) ;
#734 = CARTESIAN_POINT ( 'NONE',  ( 16.99999999999998934, -2.000000000000026201, -50.00000000000000000 ) ) ;
#735 = DIRECTION ( 'NONE',  ( -0.7071067520264421313, -0.7071068103466516819, 0.000000000000000000 ) ) ;
#736 = ORIENTED_EDGE ( 'NONE', *, *, #80, .F. ) ;
#737 = CARTESIAN_POINT ( 'NONE',  ( -6.800000000000015810, 5.000000000000000000, -1.000000000000000888 ) ) ;
#738 = DIRECTION ( 'NONE',  ( -0.8944271909999134129, 0.000000000000000000, -0.4472135954999629237 ) ) ;
#739 = ORIENTED_EDGE ( 'NONE', *, *, #1242, .F. ) ;
#740 = LINE ( 'NONE', #549, #1150 ) ;
#741 = EDGE_CURVE ( 'NONE', #451, #651, #460, .T. ) ;
#742 = EDGE_CURVE ( 'NONE', #522, #356, #1224, .T. ) ;
#743 = ORIENTED_EDGE ( 'NONE', *, *, #480, .F. ) ;
#744 = LINE ( 'NONE', #40, #935 ) ;
#745 = VERTEX_POINT ( 'NONE', #1024 ) ;
#746 = CARTESIAN_POINT ( 'NONE',  ( -10.00000000000003020, -2.000000000000018652, -1.999999999999946265 ) ) ;
#747 = ORIENTED_EDGE ( 'NONE', *, *, #625, .F. ) ;
#748 = EDGE_CURVE ( 'NONE', #168, #618, #1028, .T. ) ;
#749 = CARTESIAN_POINT ( 'NONE',  ( 6.999999999999991118, -5.000000247431707123, 0.000000000000000000 ) ) ;
#750 = AXIS2_PLACEMENT_3D ( 'NONE', #132, #19, #1179 ) ;
#751 = ORIENTED_EDGE ( 'NONE', *, *, #425, .T. ) ;
#752 = FACE_OUTER_BOUND ( 'NONE', #414, .T. ) ;
#753 = VECTOR ( 'NONE', #478, 1000.000000000000000 ) ;
#754 = CARTESIAN_POINT ( 'NONE',  ( 13.99999999999999112, 9.999999999999976907, 3.000000000000060840 ) ) ;
#755 = EDGE_CURVE ( 'NONE', #651, #160, #159, .T. ) ;
#756 = DIRECTION ( 'NONE',  ( -0.000000000000000000, -0.000000000000000000, -1.000000000000000000 ) ) ;
#757 = DIRECTION ( 'NONE',  ( -0.8164965809277336950, -0.4082482904638529142, 0.4082482904638574661 ) ) ;
#758 = DIRECTION ( 'NONE',  ( 3.469446951953614189E-16, -0.000000000000000000, 1.000000000000000000 ) ) ;
#759 = ORIENTED_EDGE ( 'NONE', *, *, #240, .T. ) ;
#760 = CARTESIAN_POINT ( 'NONE',  ( -10.00000000000001243, -5.000000247431704459, -1.040834085586087728E-14 ) ) ;
#761 = CARTESIAN_POINT ( 'NONE',  ( -14.00000000000002665, 8.000000000000000000, 2.999999999999995559 ) ) ;
#762 = FACE_OUTER_BOUND ( 'NONE', #1239, .T. ) ;
#763 = DIRECTION ( 'NONE',  ( 0.000000000000000000, -1.000000000000000000, -0.000000000000000000 ) ) ;
#764 = CARTESIAN_POINT ( 'NONE',  ( 0.000000000000000000, 0.000000000000000000, 0.000000000000000000 ) ) ;
#765 = CARTESIAN_POINT ( 'NONE',  ( 13.99999999999999112, 12.99999975256829110, -50.00000000000000000 ) ) ;
#766 = CARTESIAN_POINT ( 'NONE',  ( -14.00000000000002665, 9.999999999999980460, -50.00000000000000000 ) ) ;
#767 = VECTOR ( 'NONE', #173, 1000.000000000000000 ) ;
#768 = LINE ( 'NONE', #1138, #103 ) ;
#769 = ORIENTED_EDGE ( 'NONE', *, *, #547, .T. ) ;
#770 = AXIS2_PLACEMENT_3D ( 'NONE', #496, #323, #877 ) ;
#771 = CLOSED_SHELL ( 'NONE', ( #295, #808, #227, #64, #443, #544, #928, #411, #698, #181, #1037, #435, #793, #1097, #520, #102, #185, #78, #898, #1053, #913, #217, #413, #345, #257, #122, #1026, #479, #585, #869, #800, #1208, #1212, #1068, #10, #92, #66, #834 ) ) ;
#772 = LINE ( 'NONE', #1139, #957 ) ;
#773 = CARTESIAN_POINT ( 'NONE',  ( -3.994996871087635792, 0.000000000000000000, -1.000000000000000888 ) ) ;
#774 = DIRECTION ( 'NONE',  ( 0.000000000000000000, -1.000000000000000000, 0.000000000000000000 ) ) ;
#775 = EDGE_CURVE ( 'NONE', #13, #618, #740, .T. ) ;
#776 = CARTESIAN_POINT ( 'NONE',  ( 13.99999999999999112, -5.000000247431707123, 0.000000000000000000 ) ) ;
#777 = VERTEX_POINT ( 'NONE', #446 ) ;
#778 = ORIENTED_EDGE ( 'NONE', *, *, #721, .T. ) ;
#779 = DIRECTION ( 'NONE',  ( 0.000000000000000000, 0.000000000000000000, -1.000000000000000000 ) ) ;
#780 = CARTESIAN_POINT ( 'NONE',  ( 10.00000000000000888, 0.000000000000000000, -5.000000000000001776 ) ) ;
#781 = CARTESIAN_POINT ( 'NONE',  ( 16.99999999999998934, -2.000000000000026201, 0.000000000000000000 ) ) ;
#782 = ORIENTED_EDGE ( 'NONE', *, *, #209, .F. ) ;
#783 = ORIENTED_EDGE ( 'NONE', *, *, #361, .T. ) ;
#784 = CARTESIAN_POINT ( 'NONE',  ( -10.00000000000000711, 8.000000000000000000, -49.99999999999999289 ) ) ;
#785 = DIRECTION ( 'NONE',  ( 0.7071068103466520149, 0.7071067520264417983, -2.044391306552360117E-16 ) ) ;
#786 = VERTEX_POINT ( 'NONE', #942 ) ;
#787 = DIRECTION ( 'NONE',  ( 0.000000000000000000, 1.000000000000000000, 0.000000000000000000 ) ) ;
#788 = VECTOR ( 'NONE', #1221, 1000.000000000000000 ) ;
#789 = AXIS2_PLACEMENT_3D ( 'NONE', #74, #968, #1240 ) ;
#790 = ORIENTED_EDGE ( 'NONE', *, *, #162, .F. ) ;
#791 = DIRECTION ( 'NONE',  ( -2.891205793294677833E-16, -1.000000000000000000, 1.445602896647305883E-16 ) ) ;
#792 = VECTOR ( 'NONE', #601, 1000.000000000000000 ) ;
#793 = ADVANCED_FACE ( 'NONE', ( #1127 ), #1123, .T. ) ;
#794 = LINE ( 'NONE', #222, #289 ) ;
#795 = CARTESIAN_POINT ( 'NONE',  ( 6.799999999999983835, 0.000000000000000000, -5.000000000000000888 ) ) ;
#796 = ORIENTED_EDGE ( 'NONE', *, *, #480, .T. ) ;
#797 = LINE ( 'NONE', #43, #629 ) ;
#798 = ORIENTED_EDGE ( 'NONE', *, *, #970, .F. ) ;
#799 = LINE ( 'NONE', #1086, #1177 ) ;
#800 = ADVANCED_FACE ( 'NONE', ( #646 ), #165, .T. ) ;
#801 = ORIENTED_EDGE ( 'NONE', *, *, #963, .F. ) ;
#802 = EDGE_CURVE ( 'NONE', #693, #541, #836, .T. ) ;
#803 = LINE ( 'NONE', #998, #531 ) ;
#804 = EDGE_LOOP ( 'NONE', ( #499, #940, #727, #620 ) ) ;
#805 = LINE ( 'NONE', #39, #205 ) ;
#806 = ORIENTED_EDGE ( 'NONE', *, *, #1080, .F. ) ;
#807 = DIRECTION ( 'NONE',  ( 0.000000000000000000, 1.000000000000000000, 0.000000000000000000 ) ) ;
#808 = ADVANCED_FACE ( 'NONE', ( #840 ), #1228, .T. ) ;
#809 = AXIS2_PLACEMENT_3D ( 'NONE', #219, #705, #599 ) ;
#810 = ORIENTED_EDGE ( 'NONE', *, *, #258, .F. ) ;
#811 = LINE ( 'NONE', #1110, #1030 ) ;
#812 = VECTOR ( 'NONE', #1111, 1000.000000000000000 ) ;
#813 = CARTESIAN_POINT ( 'NONE',  ( -17.00000000000002842, 9.999999999999980460, 1.499999999999973799 ) ) ;
#814 = ORIENTED_EDGE ( 'NONE', *, *, #406, .T. ) ;
#815 = EDGE_CURVE ( 'NONE', #541, #688, #931, .T. ) ;
#816 = FACE_OUTER_BOUND ( 'NONE', #1074, .T. ) ;
#817 = EDGE_CURVE ( 'NONE', #1027, #1214, #453, .T. ) ;
#818 = ORIENTED_EDGE ( 'NONE', *, *, #1040, .T. ) ;
#819 = CARTESIAN_POINT ( 'NONE',  ( -9.999999505136656808, 12.99999987628413756, 5.000000123715846456 ) ) ;
#820 = LINE ( 'NONE', #859, #953 ) ;
#821 = ORIENTED_EDGE ( 'NONE', *, *, #886, .T. ) ;
#822 = LINE ( 'NONE', #728, #1194 ) ;
#823 = ORIENTED_EDGE ( 'NONE', *, *, #1040, .F. ) ;
#824 = DIRECTION ( 'NONE',  ( 0.000000000000000000, 0.000000000000000000, -1.000000000000000000 ) ) ;
#825 = CARTESIAN_POINT ( 'NONE',  ( 13.99999999999999112, 9.999999999999976907, -50.00000000000000000 ) ) ;
#826 = ORIENTED_EDGE ( 'NONE', *, *, #1146, .T. ) ;
#827 = DIRECTION ( 'NONE',  ( -0.000000000000000000, -1.000000000000000000, -0.000000000000000000 ) ) ;
#828 = ORIENTED_EDGE ( 'NONE', *, *, #572, .F. ) ;
#829 = LINE ( 'NONE', #538, #186 ) ;
#830 = VECTOR ( 'NONE', #807, 1000.000000000000000 ) ;
#831 = VECTOR ( 'NONE', #1173, 1000.000000000000000 ) ;
#832 = AXIS2_PLACEMENT_3D ( 'NONE', #1057, #297, #676 ) ;
#833 = CARTESIAN_POINT ( 'NONE',  ( -7.999999999999939604, 12.99999975256829288, 6.000000000000080824 ) ) ;
#834 = ADVANCED_FACE ( 'NONE', ( #1008 ), #266, .T. ) ;
#835 = ORIENTED_EDGE ( 'NONE', *, *, #1197, .T. ) ;
#836 = LINE ( 'NONE', #67, #767 ) ;
#837 = EDGE_LOOP ( 'NONE', ( #174, #783, #1193, #139 ) ) ;
#838 = DIRECTION ( 'NONE',  ( -1.000000000000000000, 5.204170427930421283E-16, 0.000000000000000000 ) ) ;
#839 = ORIENTED_EDGE ( 'NONE', *, *, #635, .T. ) ;
#840 = FACE_OUTER_BOUND ( 'NONE', #38, .T. ) ;
#841 = EDGE_LOOP ( 'NONE', ( #246, #887, #1168, #922, #23, #739, #114, #156, #490, #552, #985 ) ) ;
#842 = LINE ( 'NONE', #1226, #433 ) ;
#843 = LINE ( 'NONE', #761, #126 ) ;
#844 = ORIENTED_EDGE ( 'NONE', *, *, #240, .F. ) ;
#845 = LINE ( 'NONE', #870, #348 ) ;
#846 = EDGE_CURVE ( 'NONE', #370, #981, #147, .T. ) ;
#847 = ORIENTED_EDGE ( 'NONE', *, *, #177, .F. ) ;
#848 = EDGE_CURVE ( 'NONE', #691, #663, #1114, .T. ) ;
#849 = DIRECTION ( 'NONE',  ( 0.000000000000000000, 0.000000000000000000, -1.000000000000000000 ) ) ;
#850 = VECTOR ( 'NONE', #315, 1000.000000000000000 ) ;
#851 = APPLICATION_PROTOCOL_DEFINITION ( 'draft international standard', 'automotive_design', 1998, #292 ) ;
#852 = VECTOR ( 'NONE', #127, 1000.000000000000000 ) ;
#853 = CARTESIAN_POINT ( 'NONE',  ( 6.799999999999981171, 5.000000000000000000, -1.000000000000000888 ) ) ;
#854 = AXIS2_PLACEMENT_3D ( 'NONE', #93, #947, #876 ) ;
#855 = CARTESIAN_POINT ( 'NONE',  ( 10.00000000000000888, 0.000000000000000000, -5.000000000000001776 ) ) ;
#856 = VECTOR ( 'NONE', #34, 1000.000000000000000 ) ;
#857 = CARTESIAN_POINT ( 'NONE',  ( -17.00000000000003197, -2.000000000000005329, -50.00000000000000000 ) ) ;
#858 = EDGE_CURVE ( 'NONE', #451, #274, #822, .T. ) ;
#859 = CARTESIAN_POINT ( 'NONE',  ( -6.800000000000015810, 5.000000000000000000, -1.000000000000000888 ) ) ;
#860 = CARTESIAN_POINT ( 'NONE',  ( -14.00000000000003375, -2.000000000000020428, -50.00000000000000000 ) ) ;
#861 = DIRECTION ( 'NONE',  ( 0.000000000000000000, 0.000000000000000000, -1.000000000000000000 ) ) ;
#862 = CARTESIAN_POINT ( 'NONE',  ( 2.993325909419153774, -1.925929944387235853E-31, -1.000000000000000888 ) ) ;
#863 = DIRECTION ( 'NONE',  ( 1.533293416683364031E-16, 0.7071067811865510144, 0.7071067811865441310 ) ) ;
#864 = DIRECTION ( 'NONE',  ( -1.000000000000000000, 0.000000000000000000, 0.000000000000000000 ) ) ;
#865 = VERTEX_POINT ( 'NONE', #251 ) ;
#866 = DIRECTION ( 'NONE',  ( 0.000000000000000000, 1.000000000000000000, 0.000000000000000000 ) ) ;
#867 = FACE_OUTER_BOUND ( 'NONE', #464, .T. ) ;
#868 = AXIS2_PLACEMENT_3D ( 'NONE', #341, #735, #360 ) ;
#869 = ADVANCED_FACE ( 'NONE', ( #636 ), #1017, .T. ) ;
#870 = CARTESIAN_POINT ( 'NONE',  ( -6.800000000000015810, 5.000000000000000000, -1.000000000000000888 ) ) ;
#871 = EDGE_CURVE ( 'NONE', #1077, #340, #768, .T. ) ;
#872 = ORIENTED_EDGE ( 'NONE', *, *, #542, .T. ) ;
#873 = AXIS2_PLACEMENT_3D ( 'NONE', #481, #180, #191 ) ;
#874 = ORIENTED_EDGE ( 'NONE', *, *, #1122, .T. ) ;
#875 = DIRECTION ( 'NONE',  ( -0.000000000000000000, -1.000000000000000000, -0.000000000000000000 ) ) ;
#876 = DIRECTION ( 'NONE',  ( 0.000000000000000000, 0.000000000000000000, -1.000000000000000000 ) ) ;
#877 = DIRECTION ( 'NONE',  ( 1.156482221934423811E-15, -1.000000000000000000, 0.000000000000000000 ) ) ;
#878 = ORIENTED_EDGE ( 'NONE', *, *, #572, .T. ) ;
#879 = ORIENTED_EDGE ( 'NONE', *, *, #143, .T. ) ;
#880 = CARTESIAN_POINT ( 'NONE',  ( -10.00000000000003020, -2.000000000000018652, -50.00000000000000000 ) ) ;
#881 = DIRECTION ( 'NONE',  ( 0.000000000000000000, 1.000000000000000000, 0.000000000000000000 ) ) ;
#882 = ADVANCED_BREP_SHAPE_REPRESENTATION ( 'extruder_plunger_mount', ( #1060, #268 ), #104 ) ;
#883 = VERTEX_POINT ( 'NONE', #677 ) ;
#884 = CARTESIAN_POINT ( 'NONE',  ( 10.00000000000000000, 9.999999999999973355, -5.000000000000001776 ) ) ;
#885 = EDGE_CURVE ( 'NONE', #324, #131, #193, .T. ) ;
#886 = EDGE_CURVE ( 'NONE', #356, #73, #673, .T. ) ;
#887 = ORIENTED_EDGE ( 'NONE', *, *, #44, .T. ) ;
#888 = CARTESIAN_POINT ( 'NONE',  ( 0.000000000000000000, 3.200000000000000178, -1.000000000000000888 ) ) ;
#889 = CARTESIAN_POINT ( 'NONE',  ( 13.99999999999999112, -5.000000247431707123, -50.00000000000000000 ) ) ;
#890 = CARTESIAN_POINT ( 'NONE',  ( 6.999999999999991118, -5.000000247431707123, -5.000000000000000888 ) ) ;
#891 = ORIENTED_EDGE ( 'NONE', *, *, #716, .F. ) ;
#892 = AXIS2_PLACEMENT_3D ( 'NONE', #242, #639, #927 ) ;
#893 = LINE ( 'NONE', #720, #1115 ) ;
#894 = VECTOR ( 'NONE', #961, 1000.000000000000000 ) ;
#895 = AXIS2_PLACEMENT_3D ( 'NONE', #670, #962, #467 ) ;
#896 = ORIENTED_EDGE ( 'NONE', *, *, #89, .F. ) ;
#897 = PLANE ( 'NONE',  #750 ) ;
#898 = ADVANCED_FACE ( 'NONE', ( #752 ), #385, .T. ) ;
#899 = EDGE_CURVE ( 'NONE', #1137, #939, #1152, .T. ) ;
#900 = FACE_OUTER_BOUND ( 'NONE', #90, .T. ) ;
#901 = VERTEX_POINT ( 'NONE', #972 ) ;
#902 = DIRECTION ( 'NONE',  ( 0.000000000000000000, 0.000000000000000000, -1.000000000000000000 ) ) ;
#903 = ORIENTED_EDGE ( 'NONE', *, *, #755, .T. ) ;
#904 = B_SPLINE_CURVE_WITH_KNOTS ( 'NONE', 3,
 ( #107, #1052, #298, #196 ),
 .UNSPECIFIED., .F., .F.,
 ( 4, 4 ),
 ( 0.02523085512141505504, 0.02762807047842203920 ),
 .UNSPECIFIED. ) ;
#905 = LINE ( 'NONE', #309, #856 ) ;
#906 = CARTESIAN_POINT ( 'NONE',  ( 0.000000000000000000, 0.000000000000000000, 0.000000000000000000 ) ) ;
#907 = EDGE_LOOP ( 'NONE', ( #527, #1004, #1163, #707 ) ) ;
#908 = CARTESIAN_POINT ( 'NONE',  ( 9.999999999999991118, 9.999999999999973355, -50.00000000000000000 ) ) ;
#909 = VERTEX_POINT ( 'NONE', #956 ) ;
#910 = CARTESIAN_POINT ( 'NONE',  ( -6.333333617421650352, -18.33333496454974565, -18.33333361742144163 ) ) ;
#911 = DIRECTION ( 'NONE',  ( -5.204170427930421283E-16, -1.000000000000000000, 1.128474576789394256E-31 ) ) ;
#912 = VERTEX_POINT ( 'NONE', #88 ) ;
#913 = ADVANCED_FACE ( 'NONE', ( #380 ), #476, .T. ) ;
#914 = LINE ( 'NONE', #426, #667 ) ;
#915 = AXIS2_PLACEMENT_3D ( 'NONE', #1020, #1204, #917 ) ;
#916 = ORIENTED_EDGE ( 'NONE', *, *, #1213, .T. ) ;
#917 = DIRECTION ( 'NONE',  ( -0.000000000000000000, -1.000000000000000000, -0.000000000000000000 ) ) ;
#918 = CARTESIAN_POINT ( 'NONE',  ( 6.799999999999983835, 0.000000000000000000, -1.000000000000000888 ) ) ;
#919 = CARTESIAN_POINT ( 'NONE',  ( -7.000000000000029310, -5.000000247431705347, -50.00000000000000000 ) ) ;
#920 = VERTEX_POINT ( 'NONE', #1142 ) ;
#921 = DIRECTION ( 'NONE',  ( -2.891205793294677833E-16, -1.000000000000000000, 0.000000000000000000 ) ) ;
#922 = ORIENTED_EDGE ( 'NONE', *, *, #1032, .F. ) ;
#923 = CARTESIAN_POINT ( 'NONE',  ( -14.00000000000003020, -5.000000247431703571, 2.999999999999993339 ) ) ;
#924 = ORIENTED_EDGE ( 'NONE', *, *, #6, .F. ) ;
#925 = DIRECTION ( 'NONE',  ( -0.000000000000000000, 0.000000000000000000, 1.000000000000000000 ) ) ;
#926 = VERTEX_POINT ( 'NONE', #1058 ) ;
#927 = DIRECTION ( 'NONE',  ( 0.000000000000000000, 0.000000000000000000, -1.000000000000000000 ) ) ;
#928 = ADVANCED_FACE ( 'NONE', ( #668 ), #376, .F. ) ;
#929 = CARTESIAN_POINT ( 'NONE',  ( -7.999999999999939604, 0.000000000000000000, 6.000000000000080824 ) ) ;
#930 = VERTEX_POINT ( 'NONE', #1155 ) ;
#931 = LINE ( 'NONE', #746, #386 ) ;
#932 = ORIENTED_EDGE ( 'NONE', *, *, #272, .T. ) ;
#933 = UNCERTAINTY_MEASURE_WITH_UNIT (LENGTH_MEASURE( 1.000000000000000082E-05 ), #1158, 'distance_accuracy_value', 'NONE');
#934 = VECTOR ( 'NONE', #1035, 1000.000000000000000 ) ;
#935 = VECTOR ( 'NONE', #431, 1000.000000000000000 ) ;
#936 = VECTOR ( 'NONE', #189, 1000.000000000000000 ) ;
#937 = ORIENTED_EDGE ( 'NONE', *, *, #697, .F. ) ;
#938 = DIRECTION ( 'NONE',  ( -0.8164965809277233699, 0.4082482904638640164, -0.4082482904638673471 ) ) ;
#939 = VERTEX_POINT ( 'NONE', #77 ) ;
#940 = ORIENTED_EDGE ( 'NONE', *, *, #817, .F. ) ;
#941 = EDGE_CURVE ( 'NONE', #678, #865, #904, .T. ) ;
#942 = CARTESIAN_POINT ( 'NONE',  ( -6.797058187186571843, 3.200000000000000178, -1.000000000000000888 ) ) ;
#943 = EDGE_CURVE ( 'NONE', #424, #176, #565, .T. ) ;
#944 = ORIENTED_EDGE ( 'NONE', *, *, #501, .F. ) ;
#945 = LINE ( 'NONE', #862, #993 ) ;
#946 = CARTESIAN_POINT ( 'NONE',  ( -17.00000000000003197, -2.000000000000005329, -50.00000000000000000 ) ) ;
#947 = DIRECTION ( 'NONE',  ( -0.000000000000000000, -1.000000000000000000, -0.000000000000000000 ) ) ;
#948 = LINE ( 'NONE', #575, #894 ) ;
#949 = ORIENTED_EDGE ( 'NONE', *, *, #184, .F. ) ;
#950 = LINE ( 'NONE', #760, #454 ) ;
#951 = VECTOR ( 'NONE', #120, 1000.000000000000000 ) ;
#952 = LINE ( 'NONE', #665, #570 ) ;
#953 = VECTOR ( 'NONE', #756, 1000.000000000000000 ) ;
#954 = DIRECTION ( 'NONE',  ( 0.8944271909999199632, 0.000000000000000000, -0.4472135954999497121 ) ) ;
#955 = VECTOR ( 'NONE', #631, 1000.000000000000000 ) ;
#956 = CARTESIAN_POINT ( 'NONE',  ( 6.797058187186571843, 5.000000000000000000, -1.000000000000000888 ) ) ;
#957 = VECTOR ( 'NONE', #296, 1000.000000000000000 ) ;
#958 = DIRECTION ( 'NONE',  ( -0.000000000000000000, -1.000000000000000000, -0.000000000000000000 ) ) ;
#959 = CARTESIAN_POINT ( 'NONE',  ( -3.327370453960096786, 1.466736927278682545, -1.000000000000000888 ) ) ;
#960 = FACE_OUTER_BOUND ( 'NONE', #804, .T. ) ;
#961 = DIRECTION ( 'NONE',  ( 0.000000000000000000, 0.000000000000000000, -1.000000000000000000 ) ) ;
#962 = DIRECTION ( 'NONE',  ( -1.000000000000000000, 0.000000000000000000, 0.000000000000000000 ) ) ;
#963 = EDGE_CURVE ( 'NONE', #461, #326, #845, .T. ) ;
#964 = CARTESIAN_POINT ( 'NONE',  ( -10.00000000000002665, 9.999999999999975131, -50.00000000000000000 ) ) ;
#965 = CARTESIAN_POINT ( 'NONE',  ( -14.00000000000003375, -2.000000000000020428, 0.000000000000000000 ) ) ;
#966 = ORIENTED_EDGE ( 'NONE', *, *, #1112, .F. ) ;
#967 = VERTEX_POINT ( 'NONE', #282 ) ;
#968 = DIRECTION ( 'NONE',  ( 1.000000000000000000, -2.891205793294679805E-16, 0.000000000000000000 ) ) ;
#969 = DIRECTION ( 'NONE',  ( 1.000000000000000000, -0.000000000000000000, -0.000000000000000000 ) ) ;
#970 = EDGE_CURVE ( 'NONE', #541, #473, #1244, .T. ) ;
#971 = VECTOR ( 'NONE', #483, 1000.000000000000000 ) ;
#972 = CARTESIAN_POINT ( 'NONE',  ( 13.99999999999999112, 12.99999975256829110, 3.000000000000060840 ) ) ;
#973 = ORIENTED_EDGE ( 'NONE', *, *, #556, .F. ) ;
#974 = VECTOR ( 'NONE', #649, 1000.000000000000000 ) ;
#975 = VERTEX_POINT ( 'NONE', #286 ) ;
#976 = DIRECTION ( 'NONE',  ( -0.8944271909999199632, 6.464932690748147424E-16, 0.4472135954999497121 ) ) ;
#977 = ORIENTED_EDGE ( 'NONE', *, *, #1083, .F. ) ;
#978 = EDGE_CURVE ( 'NONE', #912, #427, #948, .T. ) ;
#979 = EDGE_CURVE ( 'NONE', #975, #967, #1160, .T. ) ;
#980 = CARTESIAN_POINT ( 'NONE',  ( 13.99999999999999112, -5.000000247431707123, 3.000000000000060840 ) ) ;
#981 = VERTEX_POINT ( 'NONE', #1063 ) ;
#982 = DIRECTION ( 'NONE',  ( 1.000000000000000000, -2.891205793294677833E-16, 0.000000000000000000 ) ) ;
#983 = EDGE_CURVE ( 'NONE', #176, #545, #94, .T. ) ;
#984 = LINE ( 'NONE', #521, #669 ) ;
#985 = ORIENTED_EDGE ( 'NONE', *, *, #72, .F. ) ;
#986 = CARTESIAN_POINT ( 'NONE',  ( 6.799999999999981171, 5.000000000000000000, -1.000000000000000888 ) ) ;
#987 = ORIENTED_EDGE ( 'NONE', *, *, #625, .T. ) ;
#988 = DIRECTION ( 'NONE',  ( 0.5773502533168778372, 0.5773503009351266257, 0.5773502533168716200 ) ) ;
#989 = EDGE_LOOP ( 'NONE', ( #1156, #1225, #164 ) ) ;
#990 = AXIS2_PLACEMENT_3D ( 'NONE', #713, #685, #405 ) ;
#991 = LINE ( 'NONE', #517, #307 ) ;
#992 = VECTOR ( 'NONE', #1042, 1000.000000000000000 ) ;
#993 = VECTOR ( 'NONE', #875, 1000.000000000000000 ) ;
#994 = ORIENTED_EDGE ( 'NONE', *, *, #1071, .T. ) ;
#995 = DIRECTION ( 'NONE',  ( 1.000000000000000000, -2.478176394252581634E-16, 0.000000000000000000 ) ) ;
#996 = LINE ( 'NONE', #781, #831 ) ;
#997 = VERTEX_POINT ( 'NONE', #1238 ) ;
#998 = CARTESIAN_POINT ( 'NONE',  ( -7.000000000000029310, -5.000000247431705347, 0.000000000000000000 ) ) ;
#999 = EDGE_LOOP ( 'NONE', ( #747, #826, #932, #872, #41, #338 ) ) ;
#1000 = CARTESIAN_POINT ( 'NONE',  ( 6.799999999999981171, 5.000000000000000000, -1.000000000000000888 ) ) ;
#1001 = CARTESIAN_POINT ( 'NONE',  ( 3.999999999999903633, 0.000000000000000000, 7.999999999999991118 ) ) ;
#1002 = ORIENTED_EDGE ( 'NONE', *, *, #218, .F. ) ;
#1003 = CARTESIAN_POINT ( 'NONE',  ( 6.999999999999938716, -5.000000247431704459, -5.000000000000000888 ) ) ;
#1004 = ORIENTED_EDGE ( 'NONE', *, *, #886, .F. ) ;
#1005 = LINE ( 'NONE', #54, #491 ) ;
#1006 = LINE ( 'NONE', #352, #329 ) ;
#1007 = EDGE_LOOP ( 'NONE', ( #611, #1230, #624, #314, #1203, #1130, #53, #896, #1029, #36 ) ) ;
#1008 = FACE_OUTER_BOUND ( 'NONE', #989, .T. ) ;
#1009 = AXIS2_PLACEMENT_3D ( 'NONE', #784, #301, #27 ) ;
#1010 =( GEOMETRIC_REPRESENTATION_CONTEXT ( 3 ) GLOBAL_UNCERTAINTY_ASSIGNED_CONTEXT ( ( #161 ) ) GLOBAL_UNIT_ASSIGNED_CONTEXT ( ( #418, #35, #711 ) ) REPRESENTATION_CONTEXT ( 'NONE', 'WORKASPACE' ) );
#1011 = ORIENTED_EDGE ( 'NONE', *, *, #1205, .T. ) ;
#1012 = LINE ( 'NONE', #151, #346 ) ;
#1013 = AXIS2_PLACEMENT_3D ( 'NONE', #195, #568, #468 ) ;
#1014 = VECTOR ( 'NONE', #373, 1000.000000000000000 ) ;
#1015 = CARTESIAN_POINT ( 'NONE',  ( 13.99999999999999467, -2.000000000000023981, 0.000000000000000000 ) ) ;
#1016 = ORIENTED_EDGE ( 'NONE', *, *, #1018, .T. ) ;
#1017 = PLANE ( 'NONE',  #650 ) ;
#1018 = EDGE_CURVE ( 'NONE', #745, #613, #661, .T. ) ;
#1019 = ORIENTED_EDGE ( 'NONE', *, *, #615, .F. ) ;
#1020 = CARTESIAN_POINT ( 'NONE',  ( -7.999999999999941380, 8.000000000000000000, 6.000000000000079936 ) ) ;
#1021 = PLANE ( 'NONE',  #270 ) ;
#1022 = ORIENTED_EDGE ( 'NONE', *, *, #28, .F. ) ;
#1023 = EDGE_CURVE ( 'NONE', #883, #926, #237, .T. ) ;
#1024 = CARTESIAN_POINT ( 'NONE',  ( -14.00000000000002665, 12.99999975256829465, 2.999999999999995559 ) ) ;
#1025 = ORIENTED_EDGE ( 'NONE', *, *, #697, .T. ) ;
#1026 = ADVANCED_FACE ( 'NONE', ( #423 ), #617, .T. ) ;
#1027 = VERTEX_POINT ( 'NONE', #795 ) ;
#1028 = LINE ( 'NONE', #56, #287 ) ;
#1029 = ORIENTED_EDGE ( 'NONE', *, *, #1018, .F. ) ;
#1030 = VECTOR ( 'NONE', #428, 1000.000000000000000 ) ;
#1031 = VECTOR ( 'NONE', #378, 1000.000000000000000 ) ;
#1032 = EDGE_CURVE ( 'NONE', #232, #975, #1100, .T. ) ;
#1033 = DIRECTION ( 'NONE',  ( 0.000000000000000000, 0.000000000000000000, -1.000000000000000000 ) ) ;
#1034 = ORIENTED_EDGE ( 'NONE', *, *, #498, .T. ) ;
#1035 = DIRECTION ( 'NONE',  ( -1.156482221934424008E-15, -1.000000000000000000, 5.782411109671987907E-16 ) ) ;
#1036 = ORIENTED_EDGE ( 'NONE', *, *, #398, .T. ) ;
#1037 = ADVANCED_FACE ( 'NONE', ( #1192 ), #514, .F. ) ;
#1038 = DIRECTION ( 'NONE',  ( -2.891205793294679805E-16, -1.000000000000000000, -0.000000000000000000 ) ) ;
#1039 = CARTESIAN_POINT ( 'NONE',  ( -2.993325909419154218, 2.200000000000000178, -1.000000000000000888 ) ) ;
#1040 = EDGE_CURVE ( 'NONE', #545, #777, #1166, .T. ) ;
#1041 = ORIENTED_EDGE ( 'NONE', *, *, #1170, .F. ) ;
#1042 = DIRECTION ( 'NONE',  ( -0.000000000000000000, 1.000000000000000000, -0.000000000000000000 ) ) ;
#1043 = FACE_OUTER_BOUND ( 'NONE', #1181, .T. ) ;
#1044 = DIRECTION ( 'NONE',  ( 0.000000000000000000, -1.000000000000000000, 0.000000000000000000 ) ) ;
#1045 = PLANE ( 'NONE',  #310 ) ;
#1046 = CARTESIAN_POINT ( 'NONE',  ( -14.00000000000002665, 12.99999975256829465, 0.000000000000000000 ) ) ;
#1047 = VERTEX_POINT ( 'NONE', #890 ) ;
#1048 = CARTESIAN_POINT ( 'NONE',  ( 13.99999999999999112, 9.999999999999976907, 0.000000000000000000 ) ) ;
#1049 = FACE_OUTER_BOUND ( 'NONE', #436, .T. ) ;
#1050 = VECTOR ( 'NONE', #657, 1000.000000000000000 ) ;
#1051 = DIRECTION ( 'NONE',  ( -5.204170427930421283E-16, 1.000000000000000000, 0.000000000000000000 ) ) ;
#1052 = CARTESIAN_POINT ( 'NONE',  ( 3.327370480820287746, 1.466736868317724207, -1.000000000000000888 ) ) ;
#1053 = ADVANCED_FACE ( 'NONE', ( #117 ), #215, .T. ) ;
#1054 = EDGE_CURVE ( 'NONE', #786, #920, #984, .T. ) ;
#1055 = DIRECTION ( 'NONE',  ( 0.000000000000000000, 0.000000000000000000, -1.000000000000000000 ) ) ;
#1056 = DIRECTION ( 'NONE',  ( -2.891205793294681778E-16, -1.000000000000000000, 0.000000000000000000 ) ) ;
#1057 = CARTESIAN_POINT ( 'NONE',  ( 13.99999999999999112, 12.99999975256829110, 0.000000000000000000 ) ) ;
#1058 = CARTESIAN_POINT ( 'NONE',  ( 10.00000000000000711, -5.000000247431707123, -1.999999999999980904 ) ) ;
#1059 = ORIENTED_EDGE ( 'NONE', *, *, #802, .T. ) ;
#1060 = MANIFOLD_SOLID_BREP ( 'Chamfer3', #771 ) ;
#1061 = DIRECTION ( 'NONE',  ( -0.000000000000000000, 1.000000000000000000, 0.000000000000000000 ) ) ;
#1062 = CARTESIAN_POINT ( 'NONE',  ( 6.799999999999981171, 5.000000000000000000, -1.000000000000000888 ) ) ;
#1063 = CARTESIAN_POINT ( 'NONE',  ( 16.99999999999998934, -2.000000000000026201, -50.00000000000000000 ) ) ;
#1064 = ORIENTED_EDGE ( 'NONE', *, *, #623, .T. ) ;
#1065 = PRODUCT_RELATED_PRODUCT_CATEGORY ( 'part', '', ( #726 ) ) ;
#1066 = ORIENTED_EDGE ( 'NONE', *, *, #333, .T. ) ;
#1067 = DIRECTION ( 'NONE',  ( -0.4472135954999497676, 0.000000000000000000, -0.8944271909999200743 ) ) ;
#1068 = ADVANCED_FACE ( 'NONE', ( #900 ), #1186, .T. ) ;
#1069 = DIRECTION ( 'NONE',  ( 0.000000000000000000, -1.000000000000000000, 0.000000000000000000 ) ) ;
#1070 = AXIS2_PLACEMENT_3D ( 'NONE', #234, #25, #504 ) ;
#1071 = EDGE_CURVE ( 'NONE', #997, #939, #1092, .T. ) ;
#1072 = AXIS2_PLACEMENT_3D ( 'NONE', #183, #275, #367 ) ;
#1073 = SURFACE_STYLE_USAGE ( .BOTH. , #223 ) ;
#1074 = EDGE_LOOP ( 'NONE', ( #172, #751, #582, #31 ) ) ;
#1075 = PRESENTATION_LAYER_ASSIGNMENT (  '', '', ( #369 ) ) ;
#1076 = LINE ( 'NONE', #113, #850 ) ;
#1077 = VERTEX_POINT ( 'NONE', #396 ) ;
#1078 = LINE ( 'NONE', #694, #792 ) ;
#1079 = CARTESIAN_POINT ( 'NONE',  ( 0.000000000000000000, 3.200000000000000178, -1.000000000000000888 ) ) ;
#1080 = EDGE_CURVE ( 'NONE', #930, #370, #610, .T. ) ;
#1081 = DIRECTION ( 'NONE',  ( 0.000000000000000000, 0.000000000000000000, -1.000000000000000000 ) ) ;
#1082 = ORIENTED_EDGE ( 'NONE', *, *, #1249, .T. ) ;
#1083 = EDGE_CURVE ( 'NONE', #336, #981, #996, .T. ) ;
#1084 = DIRECTION ( 'NONE',  ( 0.000000000000000000, 0.000000000000000000, -1.000000000000000000 ) ) ;
#1085 = ORIENTED_EDGE ( 'NONE', *, *, #272, .F. ) ;
#1086 = CARTESIAN_POINT ( 'NONE',  ( 6.799999999999983835, 0.000000000000000000, -1.000000000000000888 ) ) ;
#1087 = ORIENTED_EDGE ( 'NONE', *, *, #970, .T. ) ;
#1088 = CARTESIAN_POINT ( 'NONE',  ( -10.00000000000001776, -5.000000247431704459, -1.999999999999946265 ) ) ;
#1089 = ORIENTED_EDGE ( 'NONE', *, *, #885, .F. ) ;
#1090 = CARTESIAN_POINT ( 'NONE',  ( -14.00000000000003020, -5.000000247431703571, 0.000000000000000000 ) ) ;
#1091 = DIRECTION ( 'NONE',  ( 0.8944271909999199632, 0.000000000000000000, -0.4472135954999497121 ) ) ;
#1092 = LINE ( 'NONE', #11, #81 ) ;
#1093 = ORIENTED_EDGE ( 'NONE', *, *, #311, .F. ) ;
#1094 = VECTOR ( 'NONE', #1131, 1000.000000000000000 ) ;
#1095 = FACE_OUTER_BOUND ( 'NONE', #112, .T. ) ;
#1096 = VECTOR ( 'NONE', #359, 1000.000000000000000 ) ;
#1097 = ADVANCED_FACE ( 'NONE', ( #313 ), #690, .F. ) ;
#1098 = VERTEX_POINT ( 'NONE', #929 ) ;
#1099 = CARTESIAN_POINT ( 'NONE',  ( 6.799999999999983835, 0.000000000000000000, -1.000000000000000888 ) ) ;
#1100 = LINE ( 'NONE', #1001, #686 ) ;
#1101 = ORIENTED_EDGE ( 'NONE', *, *, #1054, .F. ) ;
#1102 = CARTESIAN_POINT ( 'NONE',  ( 9.999999999999991118, -2.000000000000021316, -50.00000000000000000 ) ) ;
#1103 = ORIENTED_EDGE ( 'NONE', *, *, #311, .T. ) ;
#1104 = FACE_OUTER_BOUND ( 'NONE', #509, .T. ) ;
#1105 = EDGE_CURVE ( 'NONE', #745, #555, #449, .T. ) ;
#1106 = DIRECTION ( 'NONE',  ( 1.000000000000000000, -1.239088197126289338E-16, -2.478176394252578676E-16 ) ) ;
#1107 = ORIENTED_EDGE ( 'NONE', *, *, #817, .T. ) ;
#1108 = CARTESIAN_POINT ( 'NONE',  ( -14.00000000000004441, 7.999999999999991118, 2.999999999999986677 ) ) ;
#1109 = ORIENTED_EDGE ( 'NONE', *, *, #1112, .T. ) ;
#1110 = CARTESIAN_POINT ( 'NONE',  ( -14.00000000000003375, -2.000000000000020428, -50.00000000000000000 ) ) ;
#1111 = DIRECTION ( 'NONE',  ( -1.000000000000000000, 0.000000000000000000, 2.168404344971005417E-16 ) ) ;
#1112 = EDGE_CURVE ( 'NONE', #1098, #643, #1006, .T. ) ;
#1113 = FACE_OUTER_BOUND ( 'NONE', #400, .T. ) ;
#1114 = LINE ( 'NONE', #52, #328 ) ;
#1115 = VECTOR ( 'NONE', #938, 1000.000000000000000 ) ;
#1116 = VECTOR ( 'NONE', #579, 1000.000000000000000 ) ;
#1117 = ORIENTED_EDGE ( 'NONE', *, *, #536, .F. ) ;
#1118 = LINE ( 'NONE', #48, #230 ) ;
#1119 = AXIS2_PLACEMENT_3D ( 'NONE', #8, #958, #849 ) ;
#1120 = LINE ( 'NONE', #1220, #472 ) ;
#1121 = DIRECTION ( 'NONE',  ( 2.168404344971005417E-16, 0.000000000000000000, 1.000000000000000000 ) ) ;
#1122 = EDGE_CURVE ( 'NONE', #1223, #424, #526, .T. ) ;
#1123 = CYLINDRICAL_SURFACE ( 'NONE', #61, 10.00000000000000000 ) ;
#1124 = ORIENTED_EDGE ( 'NONE', *, *, #1205, .F. ) ;
#1125 = CARTESIAN_POINT ( 'NONE',  ( 7.000000000000000888, 12.99999975256829110, -5.000000000000001776 ) ) ;
#1126 = ORIENTED_EDGE ( 'NONE', *, *, #1188, .T. ) ;
#1127 = FACE_OUTER_BOUND ( 'NONE', #365, .T. ) ;
#1128 = ORIENTED_EDGE ( 'NONE', *, *, #556, .T. ) ;
#1129 = DIRECTION ( 'NONE',  ( 1.156482221934423811E-15, 1.000000000000000000, 0.000000000000000000 ) ) ;
#1130 = ORIENTED_EDGE ( 'NONE', *, *, #1162, .F. ) ;
#1131 = DIRECTION ( 'NONE',  ( -5.204170427930421283E-16, 1.000000000000000000, 1.128474576789394256E-31 ) ) ;
#1132 = VERTEX_POINT ( 'NONE', #458 ) ;
#1133 = AXIS2_PLACEMENT_3D ( 'NONE', #1191, #417, #322 ) ;
#1134 = CARTESIAN_POINT ( 'NONE',  ( -3.636363555676358938, 6.181818188024928773, 11.81818181197511564 ) ) ;
#1135 = AXIS2_PLACEMENT_3D ( 'NONE', #111, #30, #597 ) ;
#1136 = DIRECTION ( 'NONE',  ( 0.000000000000000000, 0.000000000000000000, 1.000000000000000000 ) ) ;
#1137 = VERTEX_POINT ( 'NONE', #1200 ) ;
#1138 = CARTESIAN_POINT ( 'NONE',  ( -14.00000000000003020, -5.000000247431703571, -50.00000000000000000 ) ) ;
#1139 = CARTESIAN_POINT ( 'NONE',  ( -7.999999999999941380, 9.999999999999980460, 6.000000000000079936 ) ) ;
#1140 = LINE ( 'NONE', #946, #1031 ) ;
#1141 = PLANE ( 'NONE',  #1196 ) ;
#1142 = CARTESIAN_POINT ( 'NONE',  ( -6.797058187186571843, 5.000000000000000000, -1.000000000000000888 ) ) ;
#1143 = ORIENTED_EDGE ( 'NONE', *, *, #28, .T. ) ;
#1144 = LINE ( 'NONE', #659, #1116 ) ;
#1145 = PLANE ( 'NONE',  #1013 ) ;
#1146 = EDGE_CURVE ( 'NONE', #688, #693, #744, .T. ) ;
#1147 = CARTESIAN_POINT ( 'NONE',  ( -10.00000000000003020, -2.000000000000018652, 0.000000000000000000 ) ) ;
#1148 = VERTEX_POINT ( 'NONE', #813 ) ;
#1149 = DIRECTION ( 'NONE',  ( 0.000000000000000000, 0.000000000000000000, 1.000000000000000000 ) ) ;
#1150 = VECTOR ( 'NONE', #642, 1000.000000000000000 ) ;
#1151 = DIRECTION ( 'NONE',  ( -1.000000000000000000, 2.891205793294681778E-16, 0.000000000000000000 ) ) ;
#1152 = CIRCLE ( 'NONE', #1072, 3.000000000000000888 ) ;
#1153 = PLANE ( 'NONE',  #129 ) ;
#1154 = VECTOR ( 'NONE', #774, 1000.000000000000000 ) ;
#1155 = CARTESIAN_POINT ( 'NONE',  ( 16.99999999999999289, 9.999999999999976907, 1.500000000000093481 ) ) ;
#1156 = ORIENTED_EDGE ( 'NONE', *, *, #802, .F. ) ;
#1157 = LINE ( 'NONE', #1235, #753 ) ;
#1158 =( LENGTH_UNIT ( ) NAMED_UNIT ( * ) SI_UNIT ( .MILLI., .METRE. ) );
#1159 = LINE ( 'NONE', #383, #710 ) ;
#1160 = LINE ( 'NONE', #470, #1050 ) ;
#1161 = ORIENTED_EDGE ( 'NONE', *, *, #742, .F. ) ;
#1162 = EDGE_CURVE ( 'NONE', #777, #168, #718, .T. ) ;
#1163 = ORIENTED_EDGE ( 'NONE', *, *, #536, .T. ) ;
#1164 = DIRECTION ( 'NONE',  ( -1.000000000000000000, 0.000000000000000000, 0.000000000000000000 ) ) ;
#1165 = LINE ( 'NONE', #766, #687 ) ;
#1166 = LINE ( 'NONE', #1180, #1217 ) ;
#1167 = ORIENTED_EDGE ( 'NONE', *, *, #72, .T. ) ;
#1168 = ORIENTED_EDGE ( 'NONE', *, *, #979, .F. ) ;
#1169 = FACE_OUTER_BOUND ( 'NONE', #841, .T. ) ;
#1170 = EDGE_CURVE ( 'NONE', #473, #1077, #243, .T. ) ;
#1171 = VECTOR ( 'NONE', #32, 1000.000000000000114 ) ;
#1172 = VECTOR ( 'NONE', #1081, 1000.000000000000000 ) ;
#1173 = DIRECTION ( 'NONE',  ( 0.000000000000000000, 0.000000000000000000, -1.000000000000000000 ) ) ;
#1174 = ORIENTED_EDGE ( 'NONE', *, *, #547, .F. ) ;
#1175 = VECTOR ( 'NONE', #76, 1000.000000000000000 ) ;
#1176 = LINE ( 'NONE', #908, #20 ) ;
#1177 = VECTOR ( 'NONE', #221, 1000.000000000000000 ) ;
#1178 = ORIENTED_EDGE ( 'NONE', *, *, #815, .T. ) ;
#1179 = DIRECTION ( 'NONE',  ( 1.000000000000000000, -7.228014483236708388E-16, 0.000000000000000000 ) ) ;
#1180 = CARTESIAN_POINT ( 'NONE',  ( -7.000000000000015099, 12.99999975256829288, -4.999999999999998224 ) ) ;
#1181 = EDGE_LOOP ( 'NONE', ( #466, #806, #814, #238 ) ) ;
#1182 = CARTESIAN_POINT ( 'NONE',  ( 13.99999999999999112, -5.000000247431707123, -50.00000000000000000 ) ) ;
#1183 = ORIENTED_EDGE ( 'NONE', *, *, #725, .F. ) ;
#1184 = PLANE ( 'NONE',  #684 ) ;
#1185 = LINE ( 'NONE', #702, #208 ) ;
#1186 = PLANE ( 'NONE',  #770 ) ;
#1187 = ORIENTED_EDGE ( 'NONE', *, *, #302, .F. ) ;
#1188 = EDGE_CURVE ( 'NONE', #326, #1223, #820, .T. ) ;
#1189 = DIRECTION ( 'NONE',  ( -0.000000000000000000, 1.000000000000000000, -0.000000000000000000 ) ) ;
#1190 = ORIENTED_EDGE ( 'NONE', *, *, #200, .F. ) ;
#1191 = CARTESIAN_POINT ( 'NONE',  ( 0.000000000000000000, -1.925929944387235853E-31, -0.8000000000000003775 ) ) ;
#1192 = FACE_OUTER_BOUND ( 'NONE', #1233, .T. ) ;
#1193 = ORIENTED_EDGE ( 'NONE', *, *, #615, .T. ) ;
#1194 = VECTOR ( 'NONE', #1207, 1000.000000000000000 ) ;
#1195 = LINE ( 'NONE', #140, #145 ) ;
#1196 = AXIS2_PLACEMENT_3D ( 'NONE', #1062, #681, #1051 ) ;
#1197 = EDGE_CURVE ( 'NONE', #912, #745, #843, .T. ) ;
#1198 = ORIENTED_EDGE ( 'NONE', *, *, #29, .T. ) ;
#1199 = LINE ( 'NONE', #343, #267 ) ;
#1200 = CARTESIAN_POINT ( 'NONE',  ( 2.993325909419153774, 3.200000000000000178, -1.000000000000000888 ) ) ;
#1201 = EDGE_LOOP ( 'NONE', ( #439, #1064, #1036, #1011, #641, #477, #109, #683, #146, #82 ) ) ;
#1202 = CARTESIAN_POINT ( 'NONE',  ( 13.99999999999999112, -5.000000247431707123, 0.000000000000000000 ) ) ;
#1203 = ORIENTED_EDGE ( 'NONE', *, *, #1241, .F. ) ;
#1204 = DIRECTION ( 'NONE',  ( 0.4472135954999629237, 0.000000000000000000, -0.8944271909999134129 ) ) ;
#1205 = EDGE_CURVE ( 'NONE', #12, #131, #563, .T. ) ;
#1206 = EDGE_LOOP ( 'NONE', ( #790, #16, #577, #903 ) ) ;
#1207 = DIRECTION ( 'NONE',  ( 0.000000000000000000, 0.000000000000000000, -1.000000000000000000 ) ) ;
#1208 = ADVANCED_FACE ( 'NONE', ( #1049 ), #96, .T. ) ;
#1209 = ORIENTED_EDGE ( 'NONE', *, *, #184, .T. ) ;
#1210 = PLANE ( 'NONE',  #892 ) ;
#1211 = FACE_OUTER_BOUND ( 'NONE', #674, .T. ) ;
#1212 = ADVANCED_FACE ( 'NONE', ( #273 ), #86, .T. ) ;
#1213 = EDGE_CURVE ( 'NONE', #73, #228, #1140, .T. ) ;
#1214 = VERTEX_POINT ( 'NONE', #374 ) ;
#1215 = DIRECTION ( 'NONE',  ( 0.000000000000000000, 0.000000000000000000, -1.000000000000000000 ) ) ;
#1216 = AXIS2_PLACEMENT_3D ( 'NONE', #605, #325, #699 ) ;
#1217 = VECTOR ( 'NONE', #785, 999.9999999999998863 ) ;
#1218 = ORIENTED_EDGE ( 'NONE', *, *, #372, .T. ) ;
#1219 = VECTOR ( 'NONE', #1243, 1000.000000000000000 ) ;
#1220 = CARTESIAN_POINT ( 'NONE',  ( -7.999999999999941380, 8.000000000000000000, 6.000000000000081712 ) ) ;
#1221 = DIRECTION ( 'NONE',  ( 0.8944271909999134129, -2.216548351113630056E-16, 0.4472135954999629237 ) ) ;
#1222 = APPLICATION_CONTEXT ( 'automotive_design' ) ;
#1223 = VERTEX_POINT ( 'NONE', #671 ) ;
#1224 = LINE ( 'NONE', #1108, #731 ) ;
#1225 = ORIENTED_EDGE ( 'NONE', *, *, #1146, .F. ) ;
#1226 = CARTESIAN_POINT ( 'NONE',  ( -17.00000000000002842, 8.000000000000003553, 1.499999999999973577 ) ) ;
#1227 = PLANE ( 'NONE',  #494 ) ;
#1228 = PLANE ( 'NONE',  #868 ) ;
#1229 = ORIENTED_EDGE ( 'NONE', *, *, #1162, .T. ) ;
#1230 = ORIENTED_EDGE ( 'NONE', *, *, #121, .T. ) ;
#1231 = DIRECTION ( 'NONE',  ( 0.000000000000000000, 0.000000000000000000, -1.000000000000000000 ) ) ;
#1232 = CIRCLE ( 'NONE', #809, 3.000000000000000888 ) ;
#1233 = EDGE_LOOP ( 'NONE', ( #33, #1082, #593, #299 ) ) ;
#1234 = VECTOR ( 'NONE', #489, 1000.000000000000000 ) ;
#1235 = CARTESIAN_POINT ( 'NONE',  ( -10.00000000000000711, 0.000000000000000000, -49.99999999999999289 ) ) ;
#1236 = SHAPE_DEFINITION_REPRESENTATION ( #539, #882 ) ;
#1237 = CARTESIAN_POINT ( 'NONE',  ( 6.799999999999981171, 5.000000000000000000, -1.000000000000000888 ) ) ;
#1238 = CARTESIAN_POINT ( 'NONE',  ( -2.993325909419154218, 2.200000000000000178, -1.000000000000000888 ) ) ;
#1239 = EDGE_LOOP ( 'NONE', ( #1124, #810, #1167, #100 ) ) ;
#1240 = DIRECTION ( 'NONE',  ( 2.891205793294679805E-16, 1.000000000000000000, 0.000000000000000000 ) ) ;
#1241 = EDGE_CURVE ( 'NONE', #168, #647, #1144, .T. ) ;
#1242 = EDGE_CURVE ( 'NONE', #651, #883, #952, .T. ) ;
#1243 = DIRECTION ( 'NONE',  ( -0.000000000000000000, -1.000000000000000000, -0.000000000000000000 ) ) ;
#1244 = LINE ( 'NONE', #1147, #1 ) ;
#1245 = EDGE_CURVE ( 'NONE', #1047, #691, #486, .T. ) ;
#1246 = CARTESIAN_POINT ( 'NONE',  ( -7.999999890030399463, 11.99999994501513889, 6.000000054984852227 ) ) ;
#1247 = APPLICATION_PROTOCOL_DEFINITION ( 'draft international standard', 'automotive_design', 1998, #1222 ) ;
#1248 = CARTESIAN_POINT ( 'NONE',  ( 6.797058187186571843, -1.925929944387235853E-31, -1.000000000000000888 ) ) ;
#1249 = EDGE_CURVE ( 'NONE', #1132, #997, #225, .T. ) ;
#1250 = CARTESIAN_POINT ( 'NONE',  ( -10.00000000000000711, 8.000000000000000000, -49.99999999999999289 ) ) ;
#1251 = CARTESIAN_POINT ( 'NONE',  ( -17.00000000000003197, -2.000000000000005329, 1.499999999999972022 ) ) ;
#1252 = AXIS2_PLACEMENT_3D ( 'NONE', #349, #354, #262 ) ;
ENDSEC;
END-ISO-10303-21;
