ISO-10303-21;
HEADER;
FILE_DESCRIPTION (( 'STEP AP214' ),
    '1' );
FILE_NAME ('top_cover.STEP',
    '2025-05-19T08:19:04',
    ( '' ),
    ( '' ),
    'SwSTEP 2.0',
    'SolidWorks 2025',
    '' );
FILE_SCHEMA (( 'AUTOMOTIVE_DESIGN' ));
ENDSEC;

DATA;
#1 = CARTESIAN_POINT ( 'NONE',  ( -7.800000000000002487, 4.799999999999999822, 56.99999999999999289 ) ) ;
#2 = CARTESIAN_POINT ( 'NONE',  ( -7.800000000000002487, 5.999999999999998224, 2.000000000000001776 ) ) ;
#3 = EDGE_CURVE ( 'NONE', #24, #11, #364, .T. ) ;
#4 = AXIS2_PLACEMENT_3D ( 'NONE', #676, #341, #618 ) ;
#5 = ORIENTED_EDGE ( 'NONE', *, *, #844, .T. ) ;
#6 = AXIS2_PLACEMENT_3D ( 'NONE', #203, #418, #477 ) ;
#7 = DIRECTION ( 'NONE',  ( 0.000000000000000000, -1.000000000000000000, -0.000000000000000000 ) ) ;
#8 = ORIENTED_EDGE ( 'NONE', *, *, #762, .T. ) ;
#9 = STYLED_ITEM ( 'NONE', ( #71 ), #250 ) ;
#10 = CIRCLE ( 'NONE', #850, 2.000000000000001776 ) ;
#11 = VERTEX_POINT ( 'NONE', #361 ) ;
#12 = CARTESIAN_POINT ( 'NONE',  ( -5.800000000000002487, 4.799999999999999822, 61.82999999999999829 ) ) ;
#13 = ORIENTED_EDGE ( 'NONE', *, *, #157, .T. ) ;
#14 = DIRECTION ( 'NONE',  ( 0.000000000000000000, 0.000000000000000000, -1.000000000000000000 ) ) ;
#15 = LINE ( 'NONE', #280, #433 ) ;
#16 = DIRECTION ( 'NONE',  ( -1.000000000000000000, 0.000000000000000000, 0.000000000000000000 ) ) ;
#17 = VECTOR ( 'NONE', #609, 1000.000000000000000 ) ;
#18 = PLANE ( 'NONE',  #392 ) ;
#19 = ADVANCED_FACE ( 'NONE', ( #640 ), #21, .T. ) ;
#20 = VECTOR ( 'NONE', #841, 1000.000000000000000 ) ;
#21 = CYLINDRICAL_SURFACE ( 'NONE', #410, 2.000000000000001776 ) ;
#22 = CARTESIAN_POINT ( 'NONE',  ( -4.449999999999999289, 2.350000000000000089, 63.82999999999999829 ) ) ;
#23 = VERTEX_POINT ( 'NONE', #715 ) ;
#24 = VERTEX_POINT ( 'NONE', #839 ) ;
#25 = EDGE_CURVE ( 'NONE', #677, #807, #371, .T. ) ;
#26 = DIRECTION ( 'NONE',  ( -1.000000000000000000, 0.000000000000000000, -0.000000000000000000 ) ) ;
#27 = ADVANCED_FACE ( 'NONE', ( #843 ), #508, .F. ) ;
#28 = ORIENTED_EDGE ( 'NONE', *, *, #84, .F. ) ;
#29 = AXIS2_PLACEMENT_3D ( 'NONE', #191, #670, #388 ) ;
#30 = DIRECTION ( 'NONE',  ( 0.000000000000000000, 0.000000000000000000, -1.000000000000000000 ) ) ;
#31 = CARTESIAN_POINT ( 'NONE',  ( -5.800000000000002487, 5.999999999999998224, 61.82999999999999829 ) ) ;
#32 = CLOSED_SHELL ( 'NONE', ( #578, #880, #689, #512, #185, #576, #197, #338, #752, #541, #304, #732, #674, #116, #751, #27, #291, #721, #58, #237, #613, #153, #697, #493, #573, #507, #278, #603, #247, #19 ) ) ;
#33 = MECHANICAL_DESIGN_GEOMETRIC_PRESENTATION_REPRESENTATION (  '', ( #9 ), #307 ) ;
#34 = ORIENTED_EDGE ( 'NONE', *, *, #537, .F. ) ;
#35 = VECTOR ( 'NONE', #36, 1000.000000000000000 ) ;
#36 = DIRECTION ( 'NONE',  ( 1.000000000000000000, 9.745637505487682231E-17, 0.000000000000000000 ) ) ;
#37 = CARTESIAN_POINT ( 'NONE',  ( 26.39999999999999858, 2.349999999999999645, 63.82999999999999829 ) ) ;
#38 = ORIENTED_EDGE ( 'NONE', *, *, #449, .F. ) ;
#39 = PLANE ( 'NONE',  #29 ) ;
#40 = CARTESIAN_POINT ( 'NONE',  ( -5.800000000000002487, 4.799999999999999822, 63.82999999999999829 ) ) ;
#41 = CARTESIAN_POINT ( 'NONE',  ( 34.20000000000000995, -9.552245033349362461E-16, 56.99999999999999289 ) ) ;
#42 = ORIENTED_EDGE ( 'NONE', *, *, #703, .T. ) ;
#43 = AXIS2_PLACEMENT_3D ( 'NONE', #127, #403, #334 ) ;
#44 = CARTESIAN_POINT ( 'NONE',  ( 32.20000000000000284, 5.999999999999998224, 61.82999999999999829 ) ) ;
#45 = EDGE_CURVE ( 'NONE', #342, #716, #163, .T. ) ;
#46 = CARTESIAN_POINT ( 'NONE',  ( 0.000000000000000000, 0.000000000000000000, 56.99999999999999289 ) ) ;
#47 = LINE ( 'NONE', #852, #821 ) ;
#48 = ORIENTED_EDGE ( 'NONE', *, *, #583, .T. ) ;
#49 = VECTOR ( 'NONE', #468, 1000.000000000000000 ) ;
#50 = DIRECTION ( 'NONE',  ( 0.000000000000000000, 0.000000000000000000, 1.000000000000000000 ) ) ;
#51 = DIRECTION ( 'NONE',  ( 1.224646799147352961E-16, 1.000000000000000000, -0.000000000000000000 ) ) ;
#52 = FACE_OUTER_BOUND ( 'NONE', #80, .T. ) ;
#53 = EDGE_CURVE ( 'NONE', #11, #254, #83, .T. ) ;
#54 = VERTEX_POINT ( 'NONE', #293 ) ;
#55 = DIRECTION ( 'NONE',  ( -8.673617379884026597E-16, 1.000000000000000000, 0.000000000000000000 ) ) ;
#56 = CARTESIAN_POINT ( 'NONE',  ( -4.449999999999999289, 2.350000000000000089, 63.82999999999999829 ) ) ;
#57 = ORIENTED_EDGE ( 'NONE', *, *, #693, .T. ) ;
#58 = ADVANCED_FACE ( 'NONE', ( #302 ), #221, .T. ) ;
#59 = CARTESIAN_POINT ( 'NONE',  ( -4.449999999999999289, 5.150000000000000355, 63.82999999999999829 ) ) ;
#60 = CIRCLE ( 'NONE', #678, 2.000000000000000000 ) ;
#61 = LINE ( 'NONE', #672, #17 ) ;
#62 = VECTOR ( 'NONE', #218, 1000.000000000000000 ) ;
#63 = ORIENTED_EDGE ( 'NONE', *, *, #854, .F. ) ;
#64 = EDGE_CURVE ( 'NONE', #631, #759, #712, .T. ) ;
#65 = DIRECTION ( 'NONE',  ( -0.000000000000000000, 1.000000000000000000, 0.000000000000000000 ) ) ;
#66 = DIRECTION ( 'NONE',  ( 0.000000000000000000, 0.000000000000000000, 1.000000000000000000 ) ) ;
#67 = ORIENTED_EDGE ( 'NONE', *, *, #727, .F. ) ;
#68 = ADVANCED_BREP_SHAPE_REPRESENTATION ( 'top_cover', ( #250, #173 ), #876 ) ;
#69 = FACE_OUTER_BOUND ( 'NONE', #642, .T. ) ;
#70 = CARTESIAN_POINT ( 'NONE',  ( 34.20000000000000995, 4.799999999999999822, 56.99999999999999289 ) ) ;
#71 = PRESENTATION_STYLE_ASSIGNMENT (( #685 ) ) ;
#72 = ORIENTED_EDGE ( 'NONE', *, *, #340, .T. ) ;
#73 = FACE_OUTER_BOUND ( 'NONE', #103, .T. ) ;
#74 = ORIENTED_EDGE ( 'NONE', *, *, #64, .T. ) ;
#75 = DIRECTION ( 'NONE',  ( 0.000000000000000000, -0.000000000000000000, 1.000000000000000000 ) ) ;
#76 = ORIENTED_EDGE ( 'NONE', *, *, #633, .T. ) ;
#77 = CARTESIAN_POINT ( 'NONE',  ( 34.20000000000000284, 7.999999999999998224, 2.000000000000001776 ) ) ;
#78 = ORIENTED_EDGE ( 'NONE', *, *, #785, .F. ) ;
#79 = VECTOR ( 'NONE', #166, 1000.000000000000000 ) ;
#80 = EDGE_LOOP ( 'NONE', ( #722, #698, #425 ) ) ;
#81 = FACE_OUTER_BOUND ( 'NONE', #274, .T. ) ;
#82 = EDGE_LOOP ( 'NONE', ( #126, #597, #669, #63 ) ) ;
#83 = LINE ( 'NONE', #439, #527 ) ;
#84 = EDGE_CURVE ( 'NONE', #11, #131, #581, .T. ) ;
#85 = DIRECTION ( 'NONE',  ( -0.000000000000000000, -0.000000000000000000, -1.000000000000000000 ) ) ;
#86 = DIRECTION ( 'NONE',  ( 1.000000000000000000, 0.000000000000000000, 0.000000000000000000 ) ) ;
#87 = ORIENTED_EDGE ( 'NONE', *, *, #844, .F. ) ;
#88 = AXIS2_PLACEMENT_3D ( 'NONE', #879, #453, #384 ) ;
#89 = DIRECTION ( 'NONE',  ( 1.224646799147353700E-16, -1.000000000000000000, -0.000000000000000000 ) ) ;
#90 = LINE ( 'NONE', #514, #134 ) ;
#91 = ORIENTED_EDGE ( 'NONE', *, *, #283, .T. ) ;
#92 = EDGE_CURVE ( 'NONE', #225, #446, #784, .T. ) ;
#93 = CARTESIAN_POINT ( 'NONE',  ( -7.800000000000002487, 7.999999999999998224, 2.000000000000001776 ) ) ;
#94 = ORIENTED_EDGE ( 'NONE', *, *, #3, .F. ) ;
#95 = DIRECTION ( 'NONE',  ( 1.000000000000000000, 0.000000000000000000, 0.000000000000000000 ) ) ;
#96 = CARTESIAN_POINT ( 'NONE',  ( 34.20000000000000284, 6.000000000000000000, 63.82999999999999829 ) ) ;
#97 = VERTEX_POINT ( 'NONE', #770 ) ;
#98 = EDGE_LOOP ( 'NONE', ( #779, #868, #315, #416, #233, #265 ) ) ;
#99 = EDGE_CURVE ( 'NONE', #476, #377, #296, .T. ) ;
#100 = CARTESIAN_POINT ( 'NONE',  ( 32.20000000000000284, 4.799999999999999822, 63.82999999999999829 ) ) ;
#101 = FACE_OUTER_BOUND ( 'NONE', #803, .T. ) ;
#102 = AXIS2_PLACEMENT_3D ( 'NONE', #228, #777, #26 ) ;
#103 = EDGE_LOOP ( 'NONE', ( #739, #560, #681, #811, #94 ) ) ;
#104 = DIRECTION ( 'NONE',  ( 0.000000000000000000, 0.000000000000000000, -1.000000000000000000 ) ) ;
#105 = DIRECTION ( 'NONE',  ( 1.000000000000000000, 8.673617379884027583E-16, 0.000000000000000000 ) ) ;
#106 = CARTESIAN_POINT ( 'NONE',  ( -4.449999999999999289, 2.350000000000000089, 56.99999999999999289 ) ) ;
#107 = ORIENTED_EDGE ( 'NONE', *, *, #99, .F. ) ;
#108 = EDGE_CURVE ( 'NONE', #494, #359, #595, .T. ) ;
#109 = EDGE_CURVE ( 'NONE', #342, #695, #861, .T. ) ;
#110 = DIRECTION ( 'NONE',  ( 0.000000000000000000, 1.000000000000000000, 0.000000000000000000 ) ) ;
#111 = DIRECTION ( 'NONE',  ( -0.000000000000000000, -0.000000000000000000, -1.000000000000000000 ) ) ;
#112 = LINE ( 'NONE', #119, #559 ) ;
#113 = ORIENTED_EDGE ( 'NONE', *, *, #92, .F. ) ;
#114 = VECTOR ( 'NONE', #615, 1000.000000000000000 ) ;
#115 = FACE_OUTER_BOUND ( 'NONE', #466, .T. ) ;
#116 = ADVANCED_FACE ( 'NONE', ( #235 ), #463, .T. ) ;
#117 = VECTOR ( 'NONE', #503, 1000.000000000000000 ) ;
#118 = CARTESIAN_POINT ( 'NONE',  ( -7.800000000000003375, -9.552245033349362461E-16, 63.82999999999999829 ) ) ;
#119 = CARTESIAN_POINT ( 'NONE',  ( 34.20000000000000284, 7.999999999999998224, 61.82999999999999829 ) ) ;
#120 = ORIENTED_EDGE ( 'NONE', *, *, #769, .F. ) ;
#121 = EDGE_CURVE ( 'NONE', #759, #97, #47, .T. ) ;
#122 = CIRCLE ( 'NONE', #650, 2.000000000000000000 ) ;
#123 = FACE_OUTER_BOUND ( 'NONE', #547, .T. ) ;
#124 = EDGE_CURVE ( 'NONE', #829, #695, #600, .T. ) ;
#125 = CARTESIAN_POINT ( 'NONE',  ( 34.20000000000000284, 6.000000000000000000, 61.82999999999999829 ) ) ;
#126 = ORIENTED_EDGE ( 'NONE', *, *, #878, .F. ) ;
#127 = CARTESIAN_POINT ( 'NONE',  ( -5.800000000000002487, 5.999999999999998224, 2.000000000000001776 ) ) ;
#128 = ORIENTED_EDGE ( 'NONE', *, *, #130, .F. ) ;
#129 = CARTESIAN_POINT ( 'NONE',  ( -7.800000000000002487, 7.999999999999998224, 63.82999999999999829 ) ) ;
#130 = EDGE_CURVE ( 'NONE', #619, #194, #395, .T. ) ;
#131 = VERTEX_POINT ( 'NONE', #106 ) ;
#132 = PRODUCT_DEFINITION_CONTEXT ( 'detailed design', #563, 'design' ) ;
#133 = DIRECTION ( 'NONE',  ( 0.000000000000000000, 1.000000000000000000, 0.000000000000000000 ) ) ;
#134 = VECTOR ( 'NONE', #368, 1000.000000000000000 ) ;
#135 = CARTESIAN_POINT ( 'NONE',  ( -5.800000000000002487, 5.999999999999998224, 61.82999999999999829 ) ) ;
#136 = ORIENTED_EDGE ( 'NONE', *, *, #64, .F. ) ;
#137 = DIRECTION ( 'NONE',  ( 0.000000000000000000, 1.000000000000000000, 0.000000000000000000 ) ) ;
#138 = LINE ( 'NONE', #488, #333 ) ;
#139 = DIRECTION ( 'NONE',  ( 1.000000000000000000, 0.000000000000000000, 0.000000000000000000 ) ) ;
#140 = VERTEX_POINT ( 'NONE', #652 ) ;
#141 = LINE ( 'NONE', #215, #767 ) ;
#142 = ORIENTED_EDGE ( 'NONE', *, *, #251, .F. ) ;
#143 = DIRECTION ( 'NONE',  ( 0.000000000000000000, 0.000000000000000000, 1.000000000000000000 ) ) ;
#144 = FACE_OUTER_BOUND ( 'NONE', #288, .T. ) ;
#145 = VERTEX_POINT ( 'NONE', #735 ) ;
#146 = DIRECTION ( 'NONE',  ( -0.000000000000000000, -0.000000000000000000, -1.000000000000000000 ) ) ;
#147 = VERTEX_POINT ( 'NONE', #730 ) ;
#148 = EDGE_CURVE ( 'NONE', #423, #319, #112, .T. ) ;
#149 = AXIS2_PLACEMENT_3D ( 'NONE', #804, #55, #249 ) ;
#150 = ORIENTED_EDGE ( 'NONE', *, *, #878, .T. ) ;
#151 = CARTESIAN_POINT ( 'NONE',  ( 0.000000000000000000, -9.552245033349362461E-16, 56.99999999999999289 ) ) ;
#152 = AXIS2_PLACEMENT_3D ( 'NONE', #394, #51, #447 ) ;
#153 = ADVANCED_FACE ( 'NONE', ( #52 ), #856, .T. ) ;
#154 = CARTESIAN_POINT ( 'NONE',  ( 32.20000000000000284, 5.999999999999998224, 2.000000000000001776 ) ) ;
#155 = CARTESIAN_POINT ( 'NONE',  ( 32.20000000000000284, 7.999999999999998224, 63.82999999999999829 ) ) ;
#156 = DIRECTION ( 'NONE',  ( -8.673617379884035472E-16, 1.000000000000000000, 0.000000000000000000 ) ) ;
#157 = EDGE_CURVE ( 'NONE', #887, #829, #309, .T. ) ;
#158 = ORIENTED_EDGE ( 'NONE', *, *, #765, .T. ) ;
#159 = VECTOR ( 'NONE', #344, 1000.000000000000000 ) ;
#160 = AXIS2_PLACEMENT_3D ( 'NONE', #557, #65, #626 ) ;
#161 = LINE ( 'NONE', #155, #835 ) ;
#162 = AXIS2_PLACEMENT_3D ( 'NONE', #31, #806, #448 ) ;
#163 = LINE ( 'NONE', #833, #224 ) ;
#164 = UNCERTAINTY_MEASURE_WITH_UNIT (LENGTH_MEASURE( 1.000000000000000082E-05 ), #370, 'distance_accuracy_value', 'NONE');
#165 = ORIENTED_EDGE ( 'NONE', *, *, #406, .T. ) ;
#166 = DIRECTION ( 'NONE',  ( 0.000000000000000000, -1.000000000000000000, 0.000000000000000000 ) ) ;
#167 = DIRECTION ( 'NONE',  ( -1.000000000000000000, -0.000000000000000000, -0.000000000000000000 ) ) ;
#168 = ORIENTED_EDGE ( 'NONE', *, *, #474, .T. ) ;
#169 = FACE_OUTER_BOUND ( 'NONE', #761, .T. ) ;
#170 = CARTESIAN_POINT ( 'NONE',  ( -4.449999999999999289, 5.150000000000000355, 0.000000000000000000 ) ) ;
#171 = EDGE_LOOP ( 'NONE', ( #577, #405, #726, #555 ) ) ;
#172 = VECTOR ( 'NONE', #675, 1000.000000000000000 ) ;
#173 = AXIS2_PLACEMENT_3D ( 'NONE', #580, #713, #95 ) ;
#174 = CARTESIAN_POINT ( 'NONE',  ( 0.000000000000000000, 0.000000000000000000, 63.82999999999999829 ) ) ;
#175 = CARTESIAN_POINT ( 'NONE',  ( 32.20000000000000284, 5.999999999999998224, 2.000000000000001776 ) ) ;
#176 = CARTESIAN_POINT ( 'NONE',  ( 34.20000000000000995, -9.552245033349362461E-16, 56.99999999999999289 ) ) ;
#177 = VECTOR ( 'NONE', #498, 1000.000000000000000 ) ;
#178 = EDGE_CURVE ( 'NONE', #377, #582, #375, .T. ) ;
#179 = EDGE_CURVE ( 'NONE', #140, #521, #540, .T. ) ;
#180 = ORIENTED_EDGE ( 'NONE', *, *, #251, .T. ) ;
#181 = CARTESIAN_POINT ( 'NONE',  ( -5.800000000000003375, -1.172064937832037133E-15, 2.000000000000001776 ) ) ;
#182 = DIRECTION ( 'NONE',  ( -0.000000000000000000, -0.000000000000000000, -1.000000000000000000 ) ) ;
#183 = LINE ( 'NONE', #386, #881 ) ;
#184 = ORIENTED_EDGE ( 'NONE', *, *, #607, .F. ) ;
#185 = ADVANCED_FACE ( 'NONE', ( #742 ), #648, .F. ) ;
#186 = DIRECTION ( 'NONE',  ( 0.000000000000000000, -0.000000000000000000, 1.000000000000000000 ) ) ;
#187 = LINE ( 'NONE', #118, #450 ) ;
#188 = CARTESIAN_POINT ( 'NONE',  ( -4.449999999999999289, 5.150000000000000355, 0.000000000000000000 ) ) ;
#189 = EDGE_CURVE ( 'NONE', #357, #619, #798, .T. ) ;
#190 = ORIENTED_EDGE ( 'NONE', *, *, #765, .F. ) ;
#191 = CARTESIAN_POINT ( 'NONE',  ( 30.84999999999999787, 2.350000000000000089, 63.82999999999999829 ) ) ;
#192 = DIRECTION ( 'NONE',  ( -0.000000000000000000, -0.000000000000000000, -1.000000000000000000 ) ) ;
#193 = DIRECTION ( 'NONE',  ( -0.000000000000000000, 1.000000000000000000, -0.000000000000000000 ) ) ;
#194 = VERTEX_POINT ( 'NONE', #720 ) ;
#195 = AXIS2_PLACEMENT_3D ( 'NONE', #46, #714, #860 ) ;
#196 = LINE ( 'NONE', #533, #790 ) ;
#197 = ADVANCED_FACE ( 'NONE', ( #101 ), #381, .F. ) ;
#198 = CARTESIAN_POINT ( 'NONE',  ( -4.449999999999999289, 5.150000000000000355, 63.82999999999999829 ) ) ;
#199 = ORIENTED_EDGE ( 'NONE', *, *, #781, .F. ) ;
#200 = CARTESIAN_POINT ( 'NONE',  ( -5.800000000000002487, 5.999999999999998224, 63.82999999999999829 ) ) ;
#201 = FACE_OUTER_BOUND ( 'NONE', #464, .T. ) ;
#202 = EDGE_LOOP ( 'NONE', ( #165, #150, #644, #213, #688 ) ) ;
#203 = CARTESIAN_POINT ( 'NONE',  ( 34.20000000000000284, 7.999999999999998224, 63.82999999999999829 ) ) ;
#204 = VECTOR ( 'NONE', #873, 1000.000000000000000 ) ;
#205 = CARTESIAN_POINT ( 'NONE',  ( 34.20000000000000995, 4.799999999999999822, 56.99999999999999289 ) ) ;
#206 = EDGE_LOOP ( 'NONE', ( #236, #257, #190, #579, #57, #87 ) ) ;
#207 = EDGE_CURVE ( 'NONE', #661, #225, #523, .T. ) ;
#208 = DIRECTION ( 'NONE',  ( -8.673617379884035472E-16, 1.000000000000000000, 0.000000000000000000 ) ) ;
#209 = ORIENTED_EDGE ( 'NONE', *, *, #501, .F. ) ;
#210 = CARTESIAN_POINT ( 'NONE',  ( -5.800000000000002487, 5.999999999999998224, 0.000000000000000000 ) ) ;
#211 = FACE_OUTER_BOUND ( 'NONE', #510, .T. ) ;
#212 = CYLINDRICAL_SURFACE ( 'NONE', #809, 2.000000000000000000 ) ;
#213 = ORIENTED_EDGE ( 'NONE', *, *, #531, .F. ) ;
#214 = EDGE_CURVE ( 'NONE', #382, #24, #183, .T. ) ;
#215 = CARTESIAN_POINT ( 'NONE',  ( 30.84999999999999787, 5.150000000000000355, 63.82999999999999829 ) ) ;
#216 = ORIENTED_EDGE ( 'NONE', *, *, #179, .T. ) ;
#217 = ORIENTED_EDGE ( 'NONE', *, *, #130, .T. ) ;
#218 = DIRECTION ( 'NONE',  ( -1.807003620809173892E-16, -1.000000000000000000, -0.000000000000000000 ) ) ;
#219 = ORIENTED_EDGE ( 'NONE', *, *, #367, .F. ) ;
#220 = CIRCLE ( 'NONE', #4, 2.000000000000001776 ) ;
#221 = CYLINDRICAL_SURFACE ( 'NONE', #324, 2.000000000000000000 ) ;
#222 = AXIS2_PLACEMENT_3D ( 'NONE', #12, #7, #820 ) ;
#223 = DIRECTION ( 'NONE',  ( 0.000000000000000000, -1.000000000000000000, 0.000000000000000000 ) ) ;
#224 = VECTOR ( 'NONE', #156, 1000.000000000000000 ) ;
#225 = VERTEX_POINT ( 'NONE', #41 ) ;
#226 = CARTESIAN_POINT ( 'NONE',  ( 26.39999999999999858, 2.349999999999999645, 0.000000000000000000 ) ) ;
#227 = CARTESIAN_POINT ( 'NONE',  ( 34.20000000000000995, -9.552245033349362461E-16, 56.99999999999999289 ) ) ;
#228 = CARTESIAN_POINT ( 'NONE',  ( 0.000000000000000000, 0.000000000000000000, 56.99999999999999289 ) ) ;
#229 = ORIENTED_EDGE ( 'NONE', *, *, #157, .F. ) ;
#230 = VECTOR ( 'NONE', #182, 1000.000000000000000 ) ;
#231 = CARTESIAN_POINT ( 'NONE',  ( 26.39999999999999858, 2.349999999999999645, 63.82999999999999829 ) ) ;
#232 = ORIENTED_EDGE ( 'NONE', *, *, #263, .T. ) ;
#233 = ORIENTED_EDGE ( 'NONE', *, *, #438, .T. ) ;
#234 = DIRECTION ( 'NONE',  ( -0.000000000000000000, -0.000000000000000000, 1.000000000000000000 ) ) ;
#235 = FACE_OUTER_BOUND ( 'NONE', #284, .T. ) ;
#236 = ORIENTED_EDGE ( 'NONE', *, *, #696, .T. ) ;
#237 = ADVANCED_FACE ( 'NONE', ( #318 ), #212, .T. ) ;
#238 = CARTESIAN_POINT ( 'NONE',  ( 0.000000000000000000, 2.350000000000000089, 56.99999999999999289 ) ) ;
#239 = DIRECTION ( 'NONE',  ( -0.000000000000000000, 0.000000000000000000, -1.000000000000000000 ) ) ;
#240 = ORIENTED_EDGE ( 'NONE', *, *, #207, .F. ) ;
#241 = CIRCLE ( 'NONE', #43, 2.000000000000000000 ) ;
#242 = AXIS2_PLACEMENT_3D ( 'NONE', #1, #687, #413 ) ;
#243 = CYLINDRICAL_SURFACE ( 'NONE', #407, 2.000000000000000000 ) ;
#244 = LINE ( 'NONE', #312, #699 ) ;
#245 = CARTESIAN_POINT ( 'NONE',  ( 0.000000000000000000, 0.000000000000000000, 0.000000000000000000 ) ) ;
#246 = AXIS2_PLACEMENT_3D ( 'NONE', #154, #430, #702 ) ;
#247 = ADVANCED_FACE ( 'NONE', ( #144 ), #483, .T. ) ;
#248 = ORIENTED_EDGE ( 'NONE', *, *, #518, .F. ) ;
#249 = DIRECTION ( 'NONE',  ( -1.000000000000000000, -8.673617379884027583E-16, 0.000000000000000000 ) ) ;
#250 = MANIFOLD_SOLID_BREP ( 'Fillet1', #32 ) ;
#251 = EDGE_CURVE ( 'NONE', #325, #716, #546, .T. ) ;
#252 = CARTESIAN_POINT ( 'NONE',  ( -5.800000000000003375, 6.288372600415929662E-16, 63.82999999999999829 ) ) ;
#253 = CARTESIAN_POINT ( 'NONE',  ( -7.800000000000003375, -9.552245033349362461E-16, 2.000000000000001776 ) ) ;
#254 = VERTEX_POINT ( 'NONE', #444 ) ;
#255 = EDGE_CURVE ( 'NONE', #671, #853, #719, .T. ) ;
#256 = FACE_OUTER_BOUND ( 'NONE', #737, .T. ) ;
#257 = ORIENTED_EDGE ( 'NONE', *, *, #124, .T. ) ;
#258 = DIRECTION ( 'NONE',  ( 1.000000000000000000, 0.000000000000000000, 0.000000000000000000 ) ) ;
#259 = DIRECTION ( 'NONE',  ( 8.673617379884035472E-16, -1.000000000000000000, -0.000000000000000000 ) ) ;
#260 = ORIENTED_EDGE ( 'NONE', *, *, #84, .T. ) ;
#261 = VECTOR ( 'NONE', #457, 1000.000000000000000 ) ;
#262 = DIRECTION ( 'NONE',  ( 0.000000000000000000, 1.000000000000000000, 0.000000000000000000 ) ) ;
#263 = EDGE_CURVE ( 'NONE', #476, #423, #327, .T. ) ;
#264 = CARTESIAN_POINT ( 'NONE',  ( -4.449999999999999289, 5.150000000000000355, 63.82999999999999829 ) ) ;
#265 = ORIENTED_EDGE ( 'NONE', *, *, #781, .T. ) ;
#266 = CIRCLE ( 'NONE', #740, 2.000000000000001776 ) ;
#267 = CARTESIAN_POINT ( 'NONE',  ( 32.20000000000000284, 5.999999999999998224, 2.000000000000000000 ) ) ;
#268 = DIRECTION ( 'NONE',  ( 0.000000000000000000, -0.000000000000000000, -1.000000000000000000 ) ) ;
#269 = CARTESIAN_POINT ( 'NONE',  ( -5.800000000000002487, 5.999999999999998224, 63.82999999999999829 ) ) ;
#270 = EDGE_LOOP ( 'NONE', ( #562, #491, #107, #536 ) ) ;
#271 = LINE ( 'NONE', #290, #718 ) ;
#272 = ORIENTED_EDGE ( 'NONE', *, *, #638, .F. ) ;
#273 = LINE ( 'NONE', #70, #114 ) ;
#274 = EDGE_LOOP ( 'NONE', ( #883, #42, #232, #827, #328, #532 ) ) ;
#275 = DIRECTION ( 'NONE',  ( 0.000000000000000000, -1.000000000000000000, 0.000000000000000000 ) ) ;
#276 = AXIS2_PLACEMENT_3D ( 'NONE', #44, #262, #326 ) ;
#277 = DIRECTION ( 'NONE',  ( -1.000000000000000000, -0.000000000000000000, -0.000000000000000000 ) ) ;
#278 = ADVANCED_FACE ( 'NONE', ( #666 ), #797, .T. ) ;
#279 = ORIENTED_EDGE ( 'NONE', *, *, #383, .T. ) ;
#280 = CARTESIAN_POINT ( 'NONE',  ( 30.84999999999999787, 5.150000000000000355, 56.99999999999999289 ) ) ;
#281 = AXIS2_PLACEMENT_3D ( 'NONE', #37, #313, #239 ) ;
#282 = ORIENTED_EDGE ( 'NONE', *, *, #622, .F. ) ;
#283 = EDGE_CURVE ( 'NONE', #671, #564, #659, .T. ) ;
#284 = EDGE_LOOP ( 'NONE', ( #272, #502, #587, #845, #184, #824, #653, #517, #128, #484, #487, #601 ) ) ;
#285 = EDGE_CURVE ( 'NONE', #550, #377, #458, .T. ) ;
#286 = EDGE_CURVE ( 'NONE', #874, #807, #519, .T. ) ;
#287 = CARTESIAN_POINT ( 'NONE',  ( 0.000000000000000000, 0.000000000000000000, 63.82999999999999829 ) ) ;
#288 = EDGE_LOOP ( 'NONE', ( #691, #48, #552 ) ) ;
#289 = CARTESIAN_POINT ( 'NONE',  ( -5.800000000000003375, 6.288372600415929662E-16, 61.82999999999999829 ) ) ;
#290 = CARTESIAN_POINT ( 'NONE',  ( 0.000000000000000000, 2.350000000000000089, 63.82999999999999829 ) ) ;
#291 = ADVANCED_FACE ( 'NONE', ( #787 ), #783, .F. ) ;
#292 = VECTOR ( 'NONE', #738, 1000.000000000000000 ) ;
#293 = CARTESIAN_POINT ( 'NONE',  ( -7.800000000000002487, 4.799999999999999822, 61.82999999999999829 ) ) ;
#294 = AXIS2_PLACEMENT_3D ( 'NONE', #700, #358, #780 ) ;
#295 = CARTESIAN_POINT ( 'NONE',  ( 34.20000000000000995, 4.799999999999999822, 56.99999999999999289 ) ) ;
#296 = CIRCLE ( 'NONE', #246, 2.000000000000001776 ) ;
#297 = DIRECTION ( 'NONE',  ( -1.084202172485504434E-16, -1.000000000000000000, 0.000000000000000000 ) ) ;
#298 = DIRECTION ( 'NONE',  ( -1.000000000000000000, -1.224646799147353454E-16, 0.000000000000000000 ) ) ;
#299 = CARTESIAN_POINT ( 'NONE',  ( 0.000000000000000000, 5.999999999999998224, 61.82999999999999829 ) ) ;
#300 = ORIENTED_EDGE ( 'NONE', *, *, #633, .F. ) ;
#301 = ORIENTED_EDGE ( 'NONE', *, *, #544, .T. ) ;
#302 = FACE_OUTER_BOUND ( 'NONE', #411, .T. ) ;
#303 = VECTOR ( 'NONE', #553, 1000.000000000000000 ) ;
#304 = ADVANCED_FACE ( 'NONE', ( #651 ), #585, .F. ) ;
#305 = ORIENTED_EDGE ( 'NONE', *, *, #501, .T. ) ;
#306 = VECTOR ( 'NONE', #605, 1000.000000000000000 ) ;
#307 =( GEOMETRIC_REPRESENTATION_CONTEXT ( 3 ) GLOBAL_UNCERTAINTY_ASSIGNED_CONTEXT ( ( #509 ) ) GLOBAL_UNIT_ASSIGNED_CONTEXT ( ( #645, #832, #504 ) ) REPRESENTATION_CONTEXT ( 'NONE', 'WORKASPACE' ) );
#308 = CARTESIAN_POINT ( 'NONE',  ( 32.20000000000000284, 7.999999999999996447, 2.000000000000001776 ) ) ;
#309 = LINE ( 'NONE', #530, #306 ) ;
#310 = ORIENTED_EDGE ( 'NONE', *, *, #45, .T. ) ;
#311 = DIRECTION ( 'NONE',  ( -1.000000000000000000, 0.000000000000000000, 0.000000000000000000 ) ) ;
#312 = CARTESIAN_POINT ( 'NONE',  ( -7.800000000000002487, 5.999999999999998224, 63.82999999999999829 ) ) ;
#313 = DIRECTION ( 'NONE',  ( 1.000000000000000000, 0.000000000000000000, -0.000000000000000000 ) ) ;
#314 = APPLICATION_CONTEXT ( 'automotive_design' ) ;
#315 = ORIENTED_EDGE ( 'NONE', *, *, #406, .F. ) ;
#316 = DIRECTION ( 'NONE',  ( 1.000000000000000000, -0.000000000000000000, 0.000000000000000000 ) ) ;
#317 = DIRECTION ( 'NONE',  ( 1.084202172485504434E-16, 1.000000000000000000, 0.000000000000000000 ) ) ;
#318 = FACE_OUTER_BOUND ( 'NONE', #479, .T. ) ;
#319 = VERTEX_POINT ( 'NONE', #534 ) ;
#320 = CIRCLE ( 'NONE', #818, 2.000000000000000000 ) ;
#321 = CARTESIAN_POINT ( 'NONE',  ( 30.84999999999999787, 2.350000000000000089, 0.000000000000000000 ) ) ;
#322 = DIRECTION ( 'NONE',  ( 0.000000000000000000, -1.000000000000000000, -0.000000000000000000 ) ) ;
#323 = CARTESIAN_POINT ( 'NONE',  ( 30.84999999999999787, 4.799999999999999822, 63.82999999999999829 ) ) ;
#324 = AXIS2_PLACEMENT_3D ( 'NONE', #289, #297, #574 ) ;
#325 = VERTEX_POINT ( 'NONE', #729 ) ;
#326 = DIRECTION ( 'NONE',  ( 1.000000000000000000, 0.000000000000000000, 0.000000000000000000 ) ) ;
#327 = LINE ( 'NONE', #96, #396 ) ;
#328 = ORIENTED_EDGE ( 'NONE', *, *, #474, .F. ) ;
#329 = CARTESIAN_POINT ( 'NONE',  ( 32.20000000000000284, 7.999999999999998224, 2.000000000000001776 ) ) ;
#330 = DIRECTION ( 'NONE',  ( -8.673617379884035472E-16, 1.000000000000000000, 0.000000000000000000 ) ) ;
#331 = DIRECTION ( 'NONE',  ( -1.000000000000000000, 0.000000000000000000, 0.000000000000000000 ) ) ;
#332 = ORIENTED_EDGE ( 'NONE', *, *, #500, .T. ) ;
#333 = VECTOR ( 'NONE', #277, 1000.000000000000000 ) ;
#334 = DIRECTION ( 'NONE',  ( -1.000000000000000000, 0.000000000000000000, 0.000000000000000000 ) ) ;
#335 = CIRCLE ( 'NONE', #294, 2.000000000000001776 ) ;
#336 = LINE ( 'NONE', #205, #303 ) ;
#337 = ORIENTED_EDGE ( 'NONE', *, *, #121, .T. ) ;
#338 = ADVANCED_FACE ( 'NONE', ( #169 ), #866, .F. ) ;
#339 = CARTESIAN_POINT ( 'NONE',  ( 30.84999999999999787, 5.150000000000000355, 0.000000000000000000 ) ) ;
#340 = EDGE_CURVE ( 'NONE', #550, #759, #122, .T. ) ;
#341 = DIRECTION ( 'NONE',  ( -1.224646799147352961E-16, -1.000000000000000000, 0.000000000000000000 ) ) ;
#342 = VERTEX_POINT ( 'NONE', #100 ) ;
#343 = LINE ( 'NONE', #620, #776 ) ;
#344 = DIRECTION ( 'NONE',  ( -0.000000000000000000, -0.000000000000000000, -1.000000000000000000 ) ) ;
#345 = EDGE_CURVE ( 'NONE', #325, #423, #266, .T. ) ;
#346 = CARTESIAN_POINT ( 'NONE',  ( 34.20000000000000284, 6.000000000000000000, 2.000000000000001776 ) ) ;
#347 = ORIENTED_EDGE ( 'NONE', *, *, #189, .T. ) ;
#348 = EDGE_CURVE ( 'NONE', #472, #494, #244, .T. ) ;
#349 = PLANE ( 'NONE',  #736 ) ;
#350 = ORIENTED_EDGE ( 'NONE', *, *, #121, .F. ) ;
#351 = VECTOR ( 'NONE', #565, 1000.000000000000000 ) ;
#352 = EDGE_CURVE ( 'NONE', #476, #631, #771, .T. ) ;
#353 = ORIENTED_EDGE ( 'NONE', *, *, #286, .F. ) ;
#354 = PLANE ( 'NONE',  #242 ) ;
#355 = AXIS2_PLACEMENT_3D ( 'NONE', #792, #374, #317 ) ;
#356 = ORIENTED_EDGE ( 'NONE', *, *, #607, .T. ) ;
#357 = VERTEX_POINT ( 'NONE', #454 ) ;
#358 = DIRECTION ( 'NONE',  ( 1.000000000000000000, -0.000000000000000000, -0.000000000000000000 ) ) ;
#359 = VERTEX_POINT ( 'NONE', #529 ) ;
#360 = PRODUCT ( 'top_cover', 'top_cover', '', ( #442 ) ) ;
#361 = CARTESIAN_POINT ( 'NONE',  ( -4.449999999999999289, 4.799999999999999822, 56.99999999999999289 ) ) ;
#362 = LINE ( 'NONE', #365, #378 ) ;
#363 = AXIS2_PLACEMENT_3D ( 'NONE', #875, #760, #813 ) ;
#364 = LINE ( 'NONE', #708, #664 ) ;
#365 = CARTESIAN_POINT ( 'NONE',  ( 0.000000000000000000, 5.999999999999998224, 63.82999999999999829 ) ) ;
#366 = VECTOR ( 'NONE', #535, 1000.000000000000000 ) ;
#367 = EDGE_CURVE ( 'NONE', #701, #382, #389, .T. ) ;
#368 = DIRECTION ( 'NONE',  ( 1.000000000000000000, -0.000000000000000000, -0.000000000000000000 ) ) ;
#369 = ORIENTED_EDGE ( 'NONE', *, *, #537, .T. ) ;
#370 =( LENGTH_UNIT ( ) NAMED_UNIT ( * ) SI_UNIT ( .MILLI., .METRE. ) );
#371 = LINE ( 'NONE', #227, #20 ) ;
#372 = ORIENTED_EDGE ( 'NONE', *, *, #109, .F. ) ;
#373 = APPLICATION_PROTOCOL_DEFINITION ( 'draft international standard', 'automotive_design', 1998, #563 ) ;
#374 = DIRECTION ( 'NONE',  ( 1.000000000000000000, -1.084202172485504434E-16, 0.000000000000000000 ) ) ;
#375 = LINE ( 'NONE', #520, #412 ) ;
#376 = AXIS2_PLACEMENT_3D ( 'NONE', #858, #526, #50 ) ;
#377 = VERTEX_POINT ( 'NONE', #655 ) ;
#378 = VECTOR ( 'NONE', #637, 1000.000000000000000 ) ;
#379 = VECTOR ( 'NONE', #724, 1000.000000000000000 ) ;
#380 = DIRECTION ( 'NONE',  ( 1.000000000000000000, -2.602085213965208275E-15, 0.000000000000000000 ) ) ;
#381 = PLANE ( 'NONE',  #281 ) ;
#382 = VERTEX_POINT ( 'NONE', #40 ) ;
#383 = EDGE_CURVE ( 'NONE', #319, #342, #10, .T. ) ;
#384 = DIRECTION ( 'NONE',  ( 0.000000000000000000, 0.000000000000000000, 1.000000000000000000 ) ) ;
#385 = CARTESIAN_POINT ( 'NONE',  ( -5.800000000000002487, 5.999999999999998224, 2.000000000000001776 ) ) ;
#386 = CARTESIAN_POINT ( 'NONE',  ( 0.000000000000000000, 4.799999999999999822, 63.82999999999999829 ) ) ;
#387 = ORIENTED_EDGE ( 'NONE', *, *, #683, .F. ) ;
#388 = DIRECTION ( 'NONE',  ( 1.000000000000000000, 9.745637505487682231E-17, 0.000000000000000000 ) ) ;
#389 = LINE ( 'NONE', #252, #379 ) ;
#390 = DIRECTION ( 'NONE',  ( -1.000000000000000000, 0.000000000000000000, -0.000000000000000000 ) ) ;
#391 = ORIENTED_EDGE ( 'NONE', *, *, #124, .F. ) ;
#392 = AXIS2_PLACEMENT_3D ( 'NONE', #22, #223, #842 ) ;
#393 = PLANE ( 'NONE',  #376 ) ;
#394 = CARTESIAN_POINT ( 'NONE',  ( 34.20000000000000995, -9.552245033349362461E-16, 63.82999999999999829 ) ) ;
#395 = LINE ( 'NONE', #188, #49 ) ;
#396 = VECTOR ( 'NONE', #234, 1000.000000000000000 ) ;
#397 = PRODUCT_DEFINITION ( 'UNKNOWN', '', #625, #132 ) ;
#398 = ORIENTED_EDGE ( 'NONE', *, *, #825, .T. ) ;
#399 = DIRECTION ( 'NONE',  ( -1.000000000000000000, 1.084202172485504434E-16, 0.000000000000000000 ) ) ;
#400 = DIRECTION ( 'NONE',  ( 0.000000000000000000, 1.000000000000000000, 0.000000000000000000 ) ) ;
#401 = FILL_AREA_STYLE ('',( #475 ) ) ;
#402 = ORIENTED_EDGE ( 'NONE', *, *, #286, .T. ) ;
#403 = DIRECTION ( 'NONE',  ( 0.000000000000000000, 0.000000000000000000, -1.000000000000000000 ) ) ;
#404 = DIRECTION ( 'NONE',  ( 0.000000000000000000, 1.000000000000000000, 0.000000000000000000 ) ) ;
#405 = ORIENTED_EDGE ( 'NONE', *, *, #263, .F. ) ;
#406 = EDGE_CURVE ( 'NONE', #677, #359, #187, .T. ) ;
#407 = AXIS2_PLACEMENT_3D ( 'NONE', #181, #602, #399 ) ;
#408 = CARTESIAN_POINT ( 'NONE',  ( 32.20000000000000284, 5.999999999999998224, 63.82999999999999829 ) ) ;
#409 = LINE ( 'NONE', #56, #593 ) ;
#410 = AXIS2_PLACEMENT_3D ( 'NONE', #567, #14, #16 ) ;
#411 = EDGE_LOOP ( 'NONE', ( #120, #219, #435, #199 ) ) ;
#412 = VECTOR ( 'NONE', #259, 1000.000000000000000 ) ;
#413 = DIRECTION ( 'NONE',  ( 0.000000000000000000, -0.000000000000000000, 1.000000000000000000 ) ) ;
#414 = CARTESIAN_POINT ( 'NONE',  ( -7.800000000000002487, 5.999999999999998224, 61.82999999999999829 ) ) ;
#415 = SURFACE_STYLE_FILL_AREA ( #401 ) ;
#416 = ORIENTED_EDGE ( 'NONE', *, *, #794, .F. ) ;
#417 = EDGE_CURVE ( 'NONE', #550, #494, #624, .T. ) ;
#418 = DIRECTION ( 'NONE',  ( -1.000000000000000000, -8.673617379884035472E-16, 0.000000000000000000 ) ) ;
#419 = EDGE_CURVE ( 'NONE', #225, #887, #336, .T. ) ;
#420 = PLANE ( 'NONE',  #834 ) ;
#421 = EDGE_LOOP ( 'NONE', ( #623, #398, #74, #337 ) ) ;
#422 = LINE ( 'NONE', #694, #62 ) ;
#423 = VERTEX_POINT ( 'NONE', #125 ) ;
#424 = AXIS2_PLACEMENT_3D ( 'NONE', #135, #805, #143 ) ;
#425 = ORIENTED_EDGE ( 'NONE', *, *, #822, .F. ) ;
#426 = PRESENTATION_LAYER_ASSIGNMENT (  '', '', ( #9 ) ) ;
#427 = CARTESIAN_POINT ( 'NONE',  ( 26.39999999999999858, 0.000000000000000000, 0.000000000000000000 ) ) ;
#428 = VECTOR ( 'NONE', #647, 1000.000000000000000 ) ;
#429 = ORIENTED_EDGE ( 'NONE', *, *, #45, .F. ) ;
#430 = DIRECTION ( 'NONE',  ( -8.673617379884026597E-16, 1.000000000000000000, 0.000000000000000000 ) ) ;
#431 = CARTESIAN_POINT ( 'NONE',  ( 30.84999999999999787, 2.350000000000000089, 56.99999999999999289 ) ) ;
#432 = EDGE_LOOP ( 'NONE', ( #168, #279, #456, #391, #229 ) ) ;
#433 = VECTOR ( 'NONE', #133, 1000.000000000000000 ) ;
#434 = AXIS2_PLACEMENT_3D ( 'NONE', #704, #89, #298 ) ;
#435 = ORIENTED_EDGE ( 'NONE', *, *, #443, .F. ) ;
#436 = CARTESIAN_POINT ( 'NONE',  ( 30.85000000000000142, 4.799999999999999822, 56.99999999999999289 ) ) ;
#437 = VECTOR ( 'NONE', #867, 1000.000000000000000 ) ;
#438 = EDGE_CURVE ( 'NONE', #254, #54, #684, .T. ) ;
#439 = CARTESIAN_POINT ( 'NONE',  ( -7.800000000000002487, 4.799999999999999822, 56.99999999999999289 ) ) ;
#440 = EDGE_CURVE ( 'NONE', #582, #446, #220, .T. ) ;
#441 = ORIENTED_EDGE ( 'NONE', *, *, #148, .F. ) ;
#442 = PRODUCT_CONTEXT ( 'NONE', #314, 'mechanical' ) ;
#443 = EDGE_CURVE ( 'NONE', #472, #701, #506, .T. ) ;
#444 = CARTESIAN_POINT ( 'NONE',  ( -7.800000000000002487, 4.799999999999999822, 56.99999999999999289 ) ) ;
#445 = CARTESIAN_POINT ( 'NONE',  ( 34.20000000000000995, -9.552245033349362461E-16, 63.82999999999999829 ) ) ;
#446 = VERTEX_POINT ( 'NONE', #482 ) ;
#447 = DIRECTION ( 'NONE',  ( -1.000000000000000000, 1.224646799147352961E-16, 0.000000000000000000 ) ) ;
#448 = DIRECTION ( 'NONE',  ( 1.000000000000000000, 0.000000000000000000, 0.000000000000000000 ) ) ;
#449 = EDGE_CURVE ( 'NONE', #131, #357, #409, .T. ) ;
#450 = VECTOR ( 'NONE', #749, 1000.000000000000000 ) ;
#451 = ORIENTED_EDGE ( 'NONE', *, *, #255, .F. ) ;
#452 = CIRCLE ( 'NONE', #434, 2.000000000000000000 ) ;
#453 = DIRECTION ( 'NONE',  ( -1.000000000000000000, 0.000000000000000000, 0.000000000000000000 ) ) ;
#454 = CARTESIAN_POINT ( 'NONE',  ( -4.449999999999999289, 2.350000000000000089, 0.000000000000000000 ) ) ;
#455 = DIRECTION ( 'NONE',  ( 1.000000000000000000, -0.000000000000000000, -0.000000000000000000 ) ) ;
#456 = ORIENTED_EDGE ( 'NONE', *, *, #109, .T. ) ;
#457 = DIRECTION ( 'NONE',  ( -0.000000000000000000, 1.000000000000000000, -0.000000000000000000 ) ) ;
#458 = LINE ( 'NONE', #515, #428 ) ;
#459 = DIRECTION ( 'NONE',  ( 1.000000000000000000, 0.000000000000000000, -0.000000000000000000 ) ) ;
#460 = ORIENTED_EDGE ( 'NONE', *, *, #419, .T. ) ;
#461 = DIRECTION ( 'NONE',  ( -1.000000000000000000, 0.000000000000000000, -0.000000000000000000 ) ) ;
#462 = CARTESIAN_POINT ( 'NONE',  ( 30.84999999999999787, 2.350000000000000089, 56.99999999999999289 ) ) ;
#463 = PLANE ( 'NONE',  #709 ) ;
#464 = EDGE_LOOP ( 'NONE', ( #217, #78, #34, #301 ) ) ;
#465 = LINE ( 'NONE', #59, #261 ) ;
#466 = EDGE_LOOP ( 'NONE', ( #300, #747, #260, #489, #347, #775 ) ) ;
#467 = CARTESIAN_POINT ( 'NONE',  ( -7.800000000000002487, 4.799999999999999822, 56.99999999999999289 ) ) ;
#468 = DIRECTION ( 'NONE',  ( 1.000000000000000000, 0.000000000000000000, 0.000000000000000000 ) ) ;
#469 = AXIS2_PLACEMENT_3D ( 'NONE', #554, #86, #30 ) ;
#470 = EDGE_LOOP ( 'NONE', ( #789, #657, #142, #706 ) ) ;
#471 = PLANE ( 'NONE',  #639 ) ;
#472 = VERTEX_POINT ( 'NONE', #414 ) ;
#473 = FACE_OUTER_BOUND ( 'NONE', #421, .T. ) ;
#474 = EDGE_CURVE ( 'NONE', #887, #319, #273, .T. ) ;
#475 = FILL_AREA_STYLE_COLOUR ( '', #778 ) ;
#476 = VERTEX_POINT ( 'NONE', #346 ) ;
#477 = DIRECTION ( 'NONE',  ( 8.673617379884035472E-16, -1.000000000000000000, 0.000000000000000000 ) ) ;
#478 = CARTESIAN_POINT ( 'NONE',  ( -4.449999999999999289, 2.350000000000000089, 56.99999999999999289 ) ) ;
#479 = EDGE_LOOP ( 'NONE', ( #387, #764, #505, #350 ) ) ;
#480 = CIRCLE ( 'NONE', #149, 2.000000000000001776 ) ;
#481 = CARTESIAN_POINT ( 'NONE',  ( -5.800000000000002487, 7.999999999999998224, 2.000000000000001776 ) ) ;
#482 = CARTESIAN_POINT ( 'NONE',  ( 34.20000000000000995, -9.552245033349362461E-16, 2.000000000000001776 ) ) ;
#483 = SPHERICAL_SURFACE ( 'NONE', #485, 2.000000000000000000 ) ;
#484 = ORIENTED_EDGE ( 'NONE', *, *, #189, .F. ) ;
#485 = AXIS2_PLACEMENT_3D ( 'NONE', #828, #492, #139 ) ;
#486 = LINE ( 'NONE', #758, #753 ) ;
#487 = ORIENTED_EDGE ( 'NONE', *, *, #500, .F. ) ;
#488 = CARTESIAN_POINT ( 'NONE',  ( -4.449999999999999289, 2.350000000000000089, 0.000000000000000000 ) ) ;
#489 = ORIENTED_EDGE ( 'NONE', *, *, #449, .T. ) ;
#490 = PLANE ( 'NONE',  #160 ) ;
#491 = ORIENTED_EDGE ( 'NONE', *, *, #178, .F. ) ;
#492 = DIRECTION ( 'NONE',  ( 0.000000000000000000, 1.000000000000000000, 0.000000000000000000 ) ) ;
#493 = ADVANCED_FACE ( 'NONE', ( #886 ), #604, .T. ) ;
#494 = VERTEX_POINT ( 'NONE', #2 ) ;
#495 = DIRECTION ( 'NONE',  ( 0.000000000000000000, -1.000000000000000000, 0.000000000000000000 ) ) ;
#496 = ORIENTED_EDGE ( 'NONE', *, *, #518, .T. ) ;
#497 = CARTESIAN_POINT ( 'NONE',  ( -4.449999999999999289, 5.150000000000000355, 63.82999999999999829 ) ) ;
#498 = DIRECTION ( 'NONE',  ( -0.000000000000000000, -0.000000000000000000, -1.000000000000000000 ) ) ;
#499 = LINE ( 'NONE', #511, #117 ) ;
#500 = EDGE_CURVE ( 'NONE', #521, #357, #138, .T. ) ;
#501 = EDGE_CURVE ( 'NONE', #661, #815, #810, .T. ) ;
#502 = ORIENTED_EDGE ( 'NONE', *, *, #854, .T. ) ;
#503 = DIRECTION ( 'NONE',  ( 1.084202172485504434E-16, 1.000000000000000000, -0.000000000000000000 ) ) ;
#504 =( NAMED_UNIT ( * ) SI_UNIT ( $, .STERADIAN. ) SOLID_ANGLE_UNIT ( ) );
#505 = ORIENTED_EDGE ( 'NONE', *, *, #667, .F. ) ;
#506 = CIRCLE ( 'NONE', #424, 2.000000000000001776 ) ;
#507 = ADVANCED_FACE ( 'NONE', ( #211 ), #690, .T. ) ;
#508 = PLANE ( 'NONE',  #102 ) ;
#509 = UNCERTAINTY_MEASURE_WITH_UNIT (LENGTH_MEASURE( 1.000000000000000082E-05 ), #645, 'distance_accuracy_value', 'NONE');
#510 = EDGE_LOOP ( 'NONE', ( #72, #136, #636, #831 ) ) ;
#511 = CARTESIAN_POINT ( 'NONE',  ( -5.800000000000002487, 7.999999999999998224, 0.000000000000000000 ) ) ;
#512 = ADVANCED_FACE ( 'NONE', ( #201 ), #420, .F. ) ;
#513 = AXIS2_PLACEMENT_3D ( 'NONE', #308, #522, #105 ) ;
#514 = CARTESIAN_POINT ( 'NONE',  ( -7.800000000000002487, 7.999999999999998224, 61.82999999999999829 ) ) ;
#515 = CARTESIAN_POINT ( 'NONE',  ( 34.20000000000000284, 5.999999999999998224, 0.000000000000000000 ) ) ;
#516 = CARTESIAN_POINT ( 'NONE',  ( -4.449999999999999289, 5.150000000000000355, 56.99999999999999289 ) ) ;
#517 = ORIENTED_EDGE ( 'NONE', *, *, #693, .F. ) ;
#518 = EDGE_CURVE ( 'NONE', #131, #874, #870, .T. ) ;
#519 = LINE ( 'NONE', #238, #79 ) ;
#520 = CARTESIAN_POINT ( 'NONE',  ( 32.20000000000000284, -3.469446951953614189E-15, 0.000000000000000000 ) ) ;
#521 = VERTEX_POINT ( 'NONE', #539 ) ;
#522 = DIRECTION ( 'NONE',  ( 8.673617379884035472E-16, -1.000000000000000000, 0.000000000000000000 ) ) ;
#523 = LINE ( 'NONE', #176, #864 ) ;
#524 = VECTOR ( 'NONE', #545, 1000.000000000000000 ) ;
#525 = EDGE_LOOP ( 'NONE', ( #451, #686, #665, #460, #13, #643 ) ) ;
#526 = DIRECTION ( 'NONE',  ( -1.000000000000000000, 0.000000000000000000, 0.000000000000000000 ) ) ;
#527 = VECTOR ( 'NONE', #167, 1000.000000000000000 ) ;
#528 = AXIS2_PLACEMENT_3D ( 'NONE', #586, #459, #788 ) ;
#529 = CARTESIAN_POINT ( 'NONE',  ( -7.800000000000003375, -9.552245033349362461E-16, 2.000000000000001776 ) ) ;
#530 = CARTESIAN_POINT ( 'NONE',  ( -7.800000000000002487, 4.799999999999999822, 56.99999999999999289 ) ) ;
#531 = EDGE_CURVE ( 'NONE', #807, #140, #61, .T. ) ;
#532 = ORIENTED_EDGE ( 'NONE', *, *, #419, .F. ) ;
#533 = CARTESIAN_POINT ( 'NONE',  ( 26.39999999999999858, 2.349999999999999645, 56.99999999999999289 ) ) ;
#534 = CARTESIAN_POINT ( 'NONE',  ( 34.20000000000000995, 4.799999999999999822, 61.82999999999999829 ) ) ;
#535 = DIRECTION ( 'NONE',  ( -1.084202172485504434E-16, -1.000000000000000000, 0.000000000000000000 ) ) ;
#536 = ORIENTED_EDGE ( 'NONE', *, *, #703, .F. ) ;
#537 = EDGE_CURVE ( 'NONE', #145, #23, #741, .T. ) ;
#538 = DIRECTION ( 'NONE',  ( 0.000000000000000000, 0.000000000000000000, -1.000000000000000000 ) ) ;
#539 = CARTESIAN_POINT ( 'NONE',  ( 0.000000000000000000, 2.350000000000000089, 0.000000000000000000 ) ) ;
#540 = LINE ( 'NONE', #725, #838 ) ;
#541 = ADVANCED_FACE ( 'NONE', ( #473 ), #745, .F. ) ;
#542 = ORIENTED_EDGE ( 'NONE', *, *, #367, .T. ) ;
#543 = SPHERICAL_SURFACE ( 'NONE', #276, 2.000000000000000000 ) ;
#544 = EDGE_CURVE ( 'NONE', #145, #619, #549, .T. ) ;
#545 = DIRECTION ( 'NONE',  ( 1.000000000000000000, 0.000000000000000000, 0.000000000000000000 ) ) ;
#546 = CIRCLE ( 'NONE', #469, 2.000000000000001776 ) ;
#547 = EDGE_LOOP ( 'NONE', ( #180, #566, #743 ) ) ;
#548 = LINE ( 'NONE', #598, #292 ) ;
#549 = LINE ( 'NONE', #497, #159 ) ;
#550 = VERTEX_POINT ( 'NONE', #210 ) ;
#551 = FACE_OUTER_BOUND ( 'NONE', #202, .T. ) ;
#552 = ORIENTED_EDGE ( 'NONE', *, *, #352, .F. ) ;
#553 = DIRECTION ( 'NONE',  ( -0.000000000000000000, 1.000000000000000000, -0.000000000000000000 ) ) ;
#554 = CARTESIAN_POINT ( 'NONE',  ( 32.20000000000000284, 5.999999999999998224, 61.82999999999999829 ) ) ;
#555 = ORIENTED_EDGE ( 'NONE', *, *, #825, .F. ) ;
#556 = VECTOR ( 'NONE', #85, 1000.000000000000000 ) ;
#557 = CARTESIAN_POINT ( 'NONE',  ( -7.800000000000002487, 4.799999999999999822, 56.99999999999999289 ) ) ;
#558 = CARTESIAN_POINT ( 'NONE',  ( 26.39999999999999858, 0.000000000000000000, 63.82999999999999829 ) ) ;
#559 = VECTOR ( 'NONE', #668, 1000.000000000000000 ) ;
#560 = ORIENTED_EDGE ( 'NONE', *, *, #769, .T. ) ;
#561 = SPHERICAL_SURFACE ( 'NONE', #612, 2.000000000000000000 ) ;
#562 = ORIENTED_EDGE ( 'NONE', *, *, #440, .F. ) ;
#563 = APPLICATION_CONTEXT ( 'automotive_design' ) ;
#564 = VERTEX_POINT ( 'NONE', #226 ) ;
#565 = DIRECTION ( 'NONE',  ( 0.000000000000000000, -1.000000000000000000, 0.000000000000000000 ) ) ;
#566 = ORIENTED_EDGE ( 'NONE', *, *, #622, .T. ) ;
#567 = CARTESIAN_POINT ( 'NONE',  ( 32.20000000000000284, 5.999999999999998224, 63.82999999999999829 ) ) ;
#568 = SHAPE_DEFINITION_REPRESENTATION ( #649, #68 ) ;
#569 = EDGE_CURVE ( 'NONE', #97, #325, #90, .T. ) ;
#570 = AXIS2_PLACEMENT_3D ( 'NONE', #299, #311, #705 ) ;
#571 = DIRECTION ( 'NONE',  ( -1.000000000000000000, 0.000000000000000000, 0.000000000000000000 ) ) ;
#572 = VECTOR ( 'NONE', #632, 1000.000000000000000 ) ;
#573 = ADVANCED_FACE ( 'NONE', ( #782 ), #584, .T. ) ;
#574 = DIRECTION ( 'NONE',  ( 1.000000000000000000, -1.084202172485504434E-16, 0.000000000000000000 ) ) ;
#575 = FACE_OUTER_BOUND ( 'NONE', #610, .T. ) ;
#576 = ADVANCED_FACE ( 'NONE', ( #733 ), #39, .F. ) ;
#577 = ORIENTED_EDGE ( 'NONE', *, *, #345, .T. ) ;
#578 = ADVANCED_FACE ( 'NONE', ( #663 ), #393, .F. ) ;
#579 = ORIENTED_EDGE ( 'NONE', *, *, #785, .T. ) ;
#580 = CARTESIAN_POINT ( 'NONE',  ( 0.000000000000000000, 0.000000000000000000, 0.000000000000000000 ) ) ;
#581 = LINE ( 'NONE', #516, #572 ) ;
#582 = VERTEX_POINT ( 'NONE', #796 ) ;
#583 = EDGE_CURVE ( 'NONE', #377, #631, #60, .T. ) ;
#584 = CYLINDRICAL_SURFACE ( 'NONE', #570, 2.000000000000001776 ) ;
#585 = PLANE ( 'NONE',  #355 ) ;
#586 = CARTESIAN_POINT ( 'NONE',  ( 30.84999999999999787, 5.150000000000000355, 63.82999999999999829 ) ) ;
#587 = ORIENTED_EDGE ( 'NONE', *, *, #285, .T. ) ;
#588 = DIRECTION ( 'NONE',  ( 0.000000000000000000, 0.000000000000000000, -1.000000000000000000 ) ) ;
#589 = DIRECTION ( 'NONE',  ( -0.000000000000000000, -0.000000000000000000, 1.000000000000000000 ) ) ;
#590 = ORIENTED_EDGE ( 'NONE', *, *, #794, .T. ) ;
#591 = CARTESIAN_POINT ( 'NONE',  ( -4.449999999999999289, 5.150000000000000355, 0.000000000000000000 ) ) ;
#592 = EDGE_CURVE ( 'NONE', #877, #564, #723, .T. ) ;
#593 = VECTOR ( 'NONE', #192, 1000.000000000000000 ) ;
#594 = CARTESIAN_POINT ( 'NONE',  ( 32.20000000000000284, 4.799999999999999822, 61.82999999999999829 ) ) ;
#595 = LINE ( 'NONE', #253, #366 ) ;
#596 = VECTOR ( 'NONE', #495, 1000.000000000000000 ) ;
#597 = ORIENTED_EDGE ( 'NONE', *, *, #108, .F. ) ;
#598 = CARTESIAN_POINT ( 'NONE',  ( 34.20000000000000995, -9.552245033349362461E-16, 0.000000000000000000 ) ) ;
#599 = DIRECTION ( 'NONE',  ( 0.000000000000000000, 0.000000000000000000, 1.000000000000000000 ) ) ;
#600 = LINE ( 'NONE', #323, #437 ) ;
#601 = ORIENTED_EDGE ( 'NONE', *, *, #179, .F. ) ;
#602 = DIRECTION ( 'NONE',  ( 1.084202172485504434E-16, 1.000000000000000000, 0.000000000000000000 ) ) ;
#603 = ADVANCED_FACE ( 'NONE', ( #123 ), #543, .T. ) ;
#604 = CYLINDRICAL_SURFACE ( 'NONE', #717, 2.000000000000001776 ) ;
#605 = DIRECTION ( 'NONE',  ( -1.000000000000000000, -0.000000000000000000, -0.000000000000000000 ) ) ;
#606 = ORIENTED_EDGE ( 'NONE', *, *, #417, .T. ) ;
#607 = EDGE_CURVE ( 'NONE', #815, #582, #548, .T. ) ;
#608 = LINE ( 'NONE', #728, #204 ) ;
#609 = DIRECTION ( 'NONE',  ( -0.000000000000000000, -0.000000000000000000, -1.000000000000000000 ) ) ;
#610 = EDGE_LOOP ( 'NONE', ( #38, #496, #857, #332 ) ) ;
#611 = VECTOR ( 'NONE', #755, 1000.000000000000000 ) ;
#612 = AXIS2_PLACEMENT_3D ( 'NONE', #763, #137, #884 ) ;
#613 = ADVANCED_FACE ( 'NONE', ( #865 ), #243, .T. ) ;
#614 = PLANE ( 'NONE',  #88 ) ;
#615 = DIRECTION ( 'NONE',  ( -0.000000000000000000, -0.000000000000000000, 1.000000000000000000 ) ) ;
#616 = ORIENTED_EDGE ( 'NONE', *, *, #214, .T. ) ;
#617 = LINE ( 'NONE', #339, #596 ) ;
#618 = DIRECTION ( 'NONE',  ( -1.000000000000000000, 1.224646799147351482E-16, 0.000000000000000000 ) ) ;
#619 = VERTEX_POINT ( 'NONE', #591 ) ;
#620 = CARTESIAN_POINT ( 'NONE',  ( 30.84999999999999787, 5.150000000000000355, 63.82999999999999829 ) ) ;
#621 = DIRECTION ( 'NONE',  ( -1.000000000000000000, -8.673617379884027583E-16, 0.000000000000000000 ) ) ;
#622 = EDGE_CURVE ( 'NONE', #716, #423, #480, .T. ) ;
#623 = ORIENTED_EDGE ( 'NONE', *, *, #569, .T. ) ;
#624 = CIRCLE ( 'NONE', #692, 2.000000000000000000 ) ;
#625 = PRODUCT_DEFINITION_FORMATION_WITH_SPECIFIED_SOURCE ( 'ANY', '', #360, .NOT_KNOWN. ) ;
#626 = DIRECTION ( 'NONE',  ( 0.000000000000000000, -0.000000000000000000, 1.000000000000000000 ) ) ;
#627 = ORIENTED_EDGE ( 'NONE', *, *, #531, .T. ) ;
#628 = ORIENTED_EDGE ( 'NONE', *, *, #383, .F. ) ;
#629 = AXIS2_PLACEMENT_3D ( 'NONE', #175, #734, #855 ) ;
#630 = DIRECTION ( 'NONE',  ( -1.224646799147353700E-16, 1.000000000000000000, 0.000000000000000000 ) ) ;
#631 = VERTEX_POINT ( 'NONE', #329 ) ;
#632 = DIRECTION ( 'NONE',  ( 0.000000000000000000, -1.000000000000000000, 0.000000000000000000 ) ) ;
#633 = EDGE_CURVE ( 'NONE', #24, #145, #465, .T. ) ;
#634 = CARTESIAN_POINT ( 'NONE',  ( 30.85000000000000142, 4.799999999999999822, 63.82999999999999829 ) ) ;
#635 = EDGE_LOOP ( 'NONE', ( #819, #849, #5, #786 ) ) ;
#636 = ORIENTED_EDGE ( 'NONE', *, *, #583, .F. ) ;
#637 = DIRECTION ( 'NONE',  ( -1.000000000000000000, 0.000000000000000000, 0.000000000000000000 ) ) ;
#638 = EDGE_CURVE ( 'NONE', #147, #140, #608, .T. ) ;
#639 = AXIS2_PLACEMENT_3D ( 'NONE', #174, #104, #461 ) ;
#640 = FACE_OUTER_BOUND ( 'NONE', #171, .T. ) ;
#641 = CARTESIAN_POINT ( 'NONE',  ( 30.84999999999999787, 2.350000000000000089, 0.000000000000000000 ) ) ;
#642 = EDGE_LOOP ( 'NONE', ( #606, #750, #673 ) ) ;
#643 = ORIENTED_EDGE ( 'NONE', *, *, #696, .F. ) ;
#644 = ORIENTED_EDGE ( 'NONE', *, *, #638, .T. ) ;
#645 =( LENGTH_UNIT ( ) NAMED_UNIT ( * ) SI_UNIT ( .MILLI., .METRE. ) );
#646 = VECTOR ( 'NONE', #823, 1000.000000000000000 ) ;
#647 = DIRECTION ( 'NONE',  ( 1.000000000000000000, -0.000000000000000000, -0.000000000000000000 ) ) ;
#648 = PLANE ( 'NONE',  #528 ) ;
#649 = PRODUCT_DEFINITION_SHAPE ( 'NONE', 'NONE',  #397 ) ;
#650 = AXIS2_PLACEMENT_3D ( 'NONE', #385, #851, #801 ) ;
#651 = FACE_OUTER_BOUND ( 'NONE', #98, .T. ) ;
#652 = CARTESIAN_POINT ( 'NONE',  ( 0.000000000000000000, 0.000000000000000000, 0.000000000000000000 ) ) ;
#653 = ORIENTED_EDGE ( 'NONE', *, *, #592, .F. ) ;
#654 = CARTESIAN_POINT ( 'NONE',  ( 26.39999999999999858, 2.349999999999999645, 56.99999999999999289 ) ) ;
#655 = CARTESIAN_POINT ( 'NONE',  ( 32.20000000000000284, 5.999999999999998224, 0.000000000000000000 ) ) ;
#656 = DIRECTION ( 'NONE',  ( 1.000000000000000000, 0.000000000000000000, 0.000000000000000000 ) ) ;
#657 = ORIENTED_EDGE ( 'NONE', *, *, #885, .F. ) ;
#658 = VECTOR ( 'NONE', #258, 1000.000000000000000 ) ;
#659 = LINE ( 'NONE', #231, #230 ) ;
#660 = DIRECTION ( 'NONE',  ( -1.000000000000000000, -0.000000000000000000, -0.000000000000000000 ) ) ;
#661 = VERTEX_POINT ( 'NONE', #808 ) ;
#662 = EDGE_CURVE ( 'NONE', #661, #671, #196, .T. ) ;
#663 = FACE_OUTER_BOUND ( 'NONE', #848, .T. ) ;
#664 = VECTOR ( 'NONE', #773, 1000.000000000000000 ) ;
#665 = ORIENTED_EDGE ( 'NONE', *, *, #207, .T. ) ;
#666 = FACE_OUTER_BOUND ( 'NONE', #270, .T. ) ;
#667 = EDGE_CURVE ( 'NONE', #97, #472, #320, .T. ) ;
#668 = DIRECTION ( 'NONE',  ( 8.673617379884035472E-16, -1.000000000000000000, -0.000000000000000000 ) ) ;
#669 = ORIENTED_EDGE ( 'NONE', *, *, #417, .F. ) ;
#670 = DIRECTION ( 'NONE',  ( 9.745637505487682231E-17, -1.000000000000000000, 0.000000000000000000 ) ) ;
#671 = VERTEX_POINT ( 'NONE', #654 ) ;
#672 = CARTESIAN_POINT ( 'NONE',  ( 0.000000000000000000, 0.000000000000000000, 63.82999999999999829 ) ) ;
#673 = ORIENTED_EDGE ( 'NONE', *, *, #340, .F. ) ;
#674 = ADVANCED_FACE ( 'NONE', ( #256 ), #471, .F. ) ;
#675 = DIRECTION ( 'NONE',  ( -1.000000000000000000, -9.745637505487682231E-17, 0.000000000000000000 ) ) ;
#676 = CARTESIAN_POINT ( 'NONE',  ( 32.20000000000000284, -1.734723475976807094E-15, 2.000000000000001776 ) ) ;
#677 = VERTEX_POINT ( 'NONE', #744 ) ;
#678 = AXIS2_PLACEMENT_3D ( 'NONE', #267, #316, #538 ) ;
#679 = VECTOR ( 'NONE', #208, 1000.000000000000000 ) ;
#680 = CARTESIAN_POINT ( 'NONE',  ( -5.800000000000002487, 5.999999999999998224, 2.000000000000000000 ) ) ;
#681 = ORIENTED_EDGE ( 'NONE', *, *, #438, .F. ) ;
#682 = CARTESIAN_POINT ( 'NONE',  ( 26.39999999999999858, 2.349999999999999645, 0.000000000000000000 ) ) ;
#683 = EDGE_CURVE ( 'NONE', #494, #759, #241, .T. ) ;
#684 = LINE ( 'NONE', #467, #611 ) ;
#685 = SURFACE_STYLE_USAGE ( .BOTH. , #746 ) ;
#686 = ORIENTED_EDGE ( 'NONE', *, *, #662, .F. ) ;
#687 = DIRECTION ( 'NONE',  ( -0.000000000000000000, 1.000000000000000000, 0.000000000000000000 ) ) ;
#688 = ORIENTED_EDGE ( 'NONE', *, *, #25, .F. ) ;
#689 = ADVANCED_FACE ( 'NONE', ( #115 ), #614, .F. ) ;
#690 = CYLINDRICAL_SURFACE ( 'NONE', #363, 2.000000000000000000 ) ;
#691 = ORIENTED_EDGE ( 'NONE', *, *, #99, .T. ) ;
#692 = AXIS2_PLACEMENT_3D ( 'NONE', #680, #404, #66 ) ;
#693 = EDGE_CURVE ( 'NONE', #194, #877, #617, .T. ) ;
#694 = CARTESIAN_POINT ( 'NONE',  ( -7.800000000000003375, -9.552245033349362461E-16, 56.99999999999999289 ) ) ;
#695 = VERTEX_POINT ( 'NONE', #634 ) ;
#696 = EDGE_CURVE ( 'NONE', #853, #829, #15, .T. ) ;
#697 = ADVANCED_FACE ( 'NONE', ( #69 ), #561, .T. ) ;
#698 = ORIENTED_EDGE ( 'NONE', *, *, #443, .T. ) ;
#699 = VECTOR ( 'NONE', #588, 1000.000000000000000 ) ;
#700 = CARTESIAN_POINT ( 'NONE',  ( -5.800000000000002487, 5.999999999999998224, 61.82999999999999829 ) ) ;
#701 = VERTEX_POINT ( 'NONE', #200 ) ;
#702 = DIRECTION ( 'NONE',  ( -1.000000000000000000, -8.673617379884027583E-16, 0.000000000000000000 ) ) ;
#703 = EDGE_CURVE ( 'NONE', #446, #476, #748, .T. ) ;
#704 = CARTESIAN_POINT ( 'NONE',  ( -5.800000000000003375, -7.102951435054654567E-16, 2.000000000000001776 ) ) ;
#705 = DIRECTION ( 'NONE',  ( 0.000000000000000000, 0.000000000000000000, 1.000000000000000000 ) ) ;
#706 = ORIENTED_EDGE ( 'NONE', *, *, #569, .F. ) ;
#707 = APPLICATION_PROTOCOL_DEFINITION ( 'draft international standard', 'automotive_design', 1998, #314 ) ;
#708 = CARTESIAN_POINT ( 'NONE',  ( -4.449999999999999289, 4.799999999999999822, 63.82999999999999829 ) ) ;
#709 = AXIS2_PLACEMENT_3D ( 'NONE', #245, #802, #390 ) ;
#710 = CARTESIAN_POINT ( 'NONE',  ( 30.84999999999999787, 2.350000000000000089, 63.82999999999999829 ) ) ;
#711 = PRODUCT_RELATED_PRODUCT_CATEGORY ( 'part', '', ( #360 ) ) ;
#712 = LINE ( 'NONE', #93, #837 ) ;
#713 = DIRECTION ( 'NONE',  ( 0.000000000000000000, 0.000000000000000000, 1.000000000000000000 ) ) ;
#714 = DIRECTION ( 'NONE',  ( 0.000000000000000000, 0.000000000000000000, -1.000000000000000000 ) ) ;
#715 = CARTESIAN_POINT ( 'NONE',  ( 30.84999999999999787, 5.150000000000000355, 63.82999999999999829 ) ) ;
#716 = VERTEX_POINT ( 'NONE', #408 ) ;
#717 = AXIS2_PLACEMENT_3D ( 'NONE', #817, #330, #621 ) ;
#718 = VECTOR ( 'NONE', #826, 1000.000000000000000 ) ;
#719 = LINE ( 'NONE', #462, #35 ) ;
#720 = CARTESIAN_POINT ( 'NONE',  ( 30.84999999999999787, 5.150000000000000355, 0.000000000000000000 ) ) ;
#721 = ADVANCED_FACE ( 'NONE', ( #73 ), #354, .F. ) ;
#722 = ORIENTED_EDGE ( 'NONE', *, *, #667, .T. ) ;
#723 = LINE ( 'NONE', #321, #172 ) ;
#724 = DIRECTION ( 'NONE',  ( -1.084202172485504434E-16, -1.000000000000000000, 0.000000000000000000 ) ) ;
#725 = CARTESIAN_POINT ( 'NONE',  ( 0.000000000000000000, 2.350000000000000089, 0.000000000000000000 ) ) ;
#726 = ORIENTED_EDGE ( 'NONE', *, *, #352, .T. ) ;
#727 = EDGE_CURVE ( 'NONE', #874, #521, #271, .T. ) ;
#728 = CARTESIAN_POINT ( 'NONE',  ( 0.000000000000000000, 0.000000000000000000, 0.000000000000000000 ) ) ;
#729 = CARTESIAN_POINT ( 'NONE',  ( 32.20000000000000284, 7.999999999999998224, 61.82999999999999829 ) ) ;
#730 = CARTESIAN_POINT ( 'NONE',  ( -5.800000000000003375, -7.102951435054653581E-16, 0.000000000000000000 ) ) ;
#731 = EDGE_LOOP ( 'NONE', ( #248, #28, #766, #590, #795, #353 ) ) ;
#732 = ADVANCED_FACE ( 'NONE', ( #551 ), #349, .F. ) ;
#733 = FACE_OUTER_BOUND ( 'NONE', #635, .T. ) ;
#734 = DIRECTION ( 'NONE',  ( -0.000000000000000000, -0.000000000000000000, 1.000000000000000000 ) ) ;
#735 = CARTESIAN_POINT ( 'NONE',  ( -4.449999999999999289, 5.150000000000000355, 63.82999999999999829 ) ) ;
#736 = AXIS2_PLACEMENT_3D ( 'NONE', #287, #630, #768 ) ;
#737 = EDGE_LOOP ( 'NONE', ( #757, #542, #616, #76, #369, #158, #372, #310 ) ) ;
#738 = DIRECTION ( 'NONE',  ( 1.000000000000000000, -1.224646799147352714E-16, -0.000000000000000000 ) ) ;
#739 = ORIENTED_EDGE ( 'NONE', *, *, #214, .F. ) ;
#740 = AXIS2_PLACEMENT_3D ( 'NONE', #847, #111, #380 ) ;
#741 = LINE ( 'NONE', #264, #524 ) ;
#742 = FACE_OUTER_BOUND ( 'NONE', #206, .T. ) ;
#743 = ORIENTED_EDGE ( 'NONE', *, *, #345, .F. ) ;
#744 = CARTESIAN_POINT ( 'NONE',  ( -7.800000000000003375, -9.552245033349362461E-16, 56.99999999999999289 ) ) ;
#745 = PLANE ( 'NONE',  #859 ) ;
#746 = SURFACE_SIDE_STYLE ('',( #415 ) ) ;
#747 = ORIENTED_EDGE ( 'NONE', *, *, #3, .T. ) ;
#748 = LINE ( 'NONE', #77, #679 ) ;
#749 = DIRECTION ( 'NONE',  ( -0.000000000000000000, -0.000000000000000000, -1.000000000000000000 ) ) ;
#750 = ORIENTED_EDGE ( 'NONE', *, *, #683, .T. ) ;
#751 = ADVANCED_FACE ( 'NONE', ( #812 ), #490, .F. ) ;
#752 = ADVANCED_FACE ( 'NONE', ( #81 ), #816, .F. ) ;
#753 = VECTOR ( 'NONE', #830, 1000.000000000000000 ) ;
#754 = LINE ( 'NONE', #682, #351 ) ;
#755 = DIRECTION ( 'NONE',  ( -0.000000000000000000, -0.000000000000000000, 1.000000000000000000 ) ) ;
#756 = VECTOR ( 'NONE', #793, 1000.000000000000000 ) ;
#757 = ORIENTED_EDGE ( 'NONE', *, *, #885, .T. ) ;
#758 = CARTESIAN_POINT ( 'NONE',  ( -7.800000000000003375, -9.552245033349362461E-16, 61.82999999999999829 ) ) ;
#759 = VERTEX_POINT ( 'NONE', #481 ) ;
#760 = DIRECTION ( 'NONE',  ( 1.000000000000000000, 0.000000000000000000, 0.000000000000000000 ) ) ;
#761 = EDGE_LOOP ( 'NONE', ( #356, #799, #113, #240, #305 ) ) ;
#762 = EDGE_CURVE ( 'NONE', #564, #815, #754, .T. ) ;
#763 = CARTESIAN_POINT ( 'NONE',  ( -5.800000000000002487, 5.999999999999998224, 2.000000000000000000 ) ) ;
#764 = ORIENTED_EDGE ( 'NONE', *, *, #348, .F. ) ;
#765 = EDGE_CURVE ( 'NONE', #23, #695, #343, .T. ) ;
#766 = ORIENTED_EDGE ( 'NONE', *, *, #53, .T. ) ;
#767 = VECTOR ( 'NONE', #146, 1000.000000000000000 ) ;
#768 = DIRECTION ( 'NONE',  ( -1.000000000000000000, -1.224646799147353700E-16, 0.000000000000000000 ) ) ;
#769 = EDGE_CURVE ( 'NONE', #382, #54, #791, .T. ) ;
#770 = CARTESIAN_POINT ( 'NONE',  ( -5.800000000000002487, 7.999999999999998224, 61.82999999999999829 ) ) ;
#771 = CIRCLE ( 'NONE', #629, 2.000000000000001776 ) ;
#772 = DIRECTION ( 'NONE',  ( 0.000000000000000000, 0.000000000000000000, -1.000000000000000000 ) ) ;
#773 = DIRECTION ( 'NONE',  ( 0.000000000000000000, 0.000000000000000000, -1.000000000000000000 ) ) ;
#774 =( NAMED_UNIT ( * ) SI_UNIT ( $, .STERADIAN. ) SOLID_ANGLE_UNIT ( ) );
#775 = ORIENTED_EDGE ( 'NONE', *, *, #544, .F. ) ;
#776 = VECTOR ( 'NONE', #275, 1000.000000000000000 ) ;
#777 = DIRECTION ( 'NONE',  ( 0.000000000000000000, 0.000000000000000000, -1.000000000000000000 ) ) ;
#778 = COLOUR_RGB ( '',0.7921568627450980005, 0.8196078431372548767, 0.9333333333333333481 ) ;
#779 = ORIENTED_EDGE ( 'NONE', *, *, #348, .T. ) ;
#780 = DIRECTION ( 'NONE',  ( 0.000000000000000000, 0.000000000000000000, 1.000000000000000000 ) ) ;
#781 = EDGE_CURVE ( 'NONE', #54, #472, #486, .T. ) ;
#782 = FACE_OUTER_BOUND ( 'NONE', #470, .T. ) ;
#783 = PLANE ( 'NONE',  #195 ) ;
#784 = LINE ( 'NONE', #445, #177 ) ;
#785 = EDGE_CURVE ( 'NONE', #23, #194, #141, .T. ) ;
#786 = ORIENTED_EDGE ( 'NONE', *, *, #592, .T. ) ;
#787 = FACE_OUTER_BOUND ( 'NONE', #731, .T. ) ;
#788 = DIRECTION ( 'NONE',  ( -0.000000000000000000, 0.000000000000000000, -1.000000000000000000 ) ) ;
#789 = ORIENTED_EDGE ( 'NONE', *, *, #822, .T. ) ;
#790 = VECTOR ( 'NONE', #110, 1000.000000000000000 ) ;
#791 = CIRCLE ( 'NONE', #222, 2.000000000000001776 ) ;
#792 = CARTESIAN_POINT ( 'NONE',  ( -7.800000000000003375, -9.552245033349362461E-16, 63.82999999999999829 ) ) ;
#793 = DIRECTION ( 'NONE',  ( -0.000000000000000000, 1.000000000000000000, -0.000000000000000000 ) ) ;
#794 = EDGE_CURVE ( 'NONE', #254, #677, #422, .T. ) ;
#795 = ORIENTED_EDGE ( 'NONE', *, *, #25, .T. ) ;
#796 = CARTESIAN_POINT ( 'NONE',  ( 32.20000000000000284, -7.102951435054653581E-16, 0.000000000000000000 ) ) ;
#797 = CYLINDRICAL_SURFACE ( 'NONE', #513, 2.000000000000001776 ) ;
#798 = LINE ( 'NONE', #170, #756 ) ;
#799 = ORIENTED_EDGE ( 'NONE', *, *, #440, .T. ) ;
#800 = CARTESIAN_POINT ( 'NONE',  ( -5.800000000000002487, 5.999999999999998224, 61.82999999999999829 ) ) ;
#801 = DIRECTION ( 'NONE',  ( 0.000000000000000000, 0.000000000000000000, 1.000000000000000000 ) ) ;
#802 = DIRECTION ( 'NONE',  ( 0.000000000000000000, 0.000000000000000000, -1.000000000000000000 ) ) ;
#803 = EDGE_LOOP ( 'NONE', ( #209, #862, #91, #8 ) ) ;
#804 = CARTESIAN_POINT ( 'NONE',  ( 32.20000000000000284, 5.999999999999998224, 61.82999999999999829 ) ) ;
#805 = DIRECTION ( 'NONE',  ( 0.000000000000000000, 1.000000000000000000, -0.000000000000000000 ) ) ;
#806 = DIRECTION ( 'NONE',  ( 0.000000000000000000, 1.000000000000000000, 0.000000000000000000 ) ) ;
#807 = VERTEX_POINT ( 'NONE', #151 ) ;
#808 = CARTESIAN_POINT ( 'NONE',  ( 26.39999999999999858, -9.552245033349362461E-16, 56.99999999999999289 ) ) ;
#809 = AXIS2_PLACEMENT_3D ( 'NONE', #269, #814, #331 ) ;
#810 = LINE ( 'NONE', #558, #646 ) ;
#811 = ORIENTED_EDGE ( 'NONE', *, *, #53, .F. ) ;
#812 = FACE_OUTER_BOUND ( 'NONE', #432, .T. ) ;
#813 = DIRECTION ( 'NONE',  ( 0.000000000000000000, 0.000000000000000000, -1.000000000000000000 ) ) ;
#814 = DIRECTION ( 'NONE',  ( 0.000000000000000000, 0.000000000000000000, -1.000000000000000000 ) ) ;
#815 = VERTEX_POINT ( 'NONE', #427 ) ;
#816 = PLANE ( 'NONE',  #6 ) ;
#817 = CARTESIAN_POINT ( 'NONE',  ( 32.20000000000000284, 2.792904796322659738E-14, 61.82999999999999829 ) ) ;
#818 = AXIS2_PLACEMENT_3D ( 'NONE', #800, #186, #869 ) ;
#819 = ORIENTED_EDGE ( 'NONE', *, *, #283, .F. ) ;
#820 = DIRECTION ( 'NONE',  ( 0.000000000000000000, 0.000000000000000000, 1.000000000000000000 ) ) ;
#821 = VECTOR ( 'NONE', #589, 1000.000000000000000 ) ;
#822 = EDGE_CURVE ( 'NONE', #97, #701, #335, .T. ) ;
#823 = DIRECTION ( 'NONE',  ( -0.000000000000000000, -0.000000000000000000, -1.000000000000000000 ) ) ;
#824 = ORIENTED_EDGE ( 'NONE', *, *, #762, .F. ) ;
#825 = EDGE_CURVE ( 'NONE', #325, #631, #161, .T. ) ;
#826 = DIRECTION ( 'NONE',  ( -0.000000000000000000, -0.000000000000000000, -1.000000000000000000 ) ) ;
#827 = ORIENTED_EDGE ( 'NONE', *, *, #148, .T. ) ;
#828 = CARTESIAN_POINT ( 'NONE',  ( 32.20000000000000284, 5.999999999999998224, 2.000000000000000000 ) ) ;
#829 = VERTEX_POINT ( 'NONE', #436 ) ;
#830 = DIRECTION ( 'NONE',  ( 1.084202172485504434E-16, 1.000000000000000000, -0.000000000000000000 ) ) ;
#831 = ORIENTED_EDGE ( 'NONE', *, *, #285, .F. ) ;
#832 =( NAMED_UNIT ( * ) PLANE_ANGLE_UNIT ( ) SI_UNIT ( $, .RADIAN. ) );
#833 = CARTESIAN_POINT ( 'NONE',  ( 32.20000000000000284, 2.792904796322659738E-14, 63.82999999999999829 ) ) ;
#834 = AXIS2_PLACEMENT_3D ( 'NONE', #198, #400, #75 ) ;
#835 = VECTOR ( 'NONE', #772, 1000.000000000000000 ) ;
#836 = CARTESIAN_POINT ( 'NONE',  ( 0.000000000000000000, 2.350000000000000089, 56.99999999999999289 ) ) ;
#837 = VECTOR ( 'NONE', #571, 1000.000000000000000 ) ;
#838 = VECTOR ( 'NONE', #193, 1000.000000000000000 ) ;
#839 = CARTESIAN_POINT ( 'NONE',  ( -4.449999999999999289, 4.799999999999999822, 63.82999999999999829 ) ) ;
#840 =( NAMED_UNIT ( * ) PLANE_ANGLE_UNIT ( ) SI_UNIT ( $, .RADIAN. ) );
#841 = DIRECTION ( 'NONE',  ( 1.000000000000000000, -0.000000000000000000, -0.000000000000000000 ) ) ;
#842 = DIRECTION ( 'NONE',  ( 0.000000000000000000, -0.000000000000000000, -1.000000000000000000 ) ) ;
#843 = FACE_OUTER_BOUND ( 'NONE', #525, .T. ) ;
#844 = EDGE_CURVE ( 'NONE', #853, #877, #846, .T. ) ;
#845 = ORIENTED_EDGE ( 'NONE', *, *, #178, .T. ) ;
#846 = LINE ( 'NONE', #710, #556 ) ;
#847 = CARTESIAN_POINT ( 'NONE',  ( 32.20000000000000284, 5.999999999999998224, 61.82999999999999829 ) ) ;
#848 = EDGE_LOOP ( 'NONE', ( #67, #402, #627, #216 ) ) ;
#849 = ORIENTED_EDGE ( 'NONE', *, *, #255, .T. ) ;
#850 = AXIS2_PLACEMENT_3D ( 'NONE', #594, #322, #599 ) ;
#851 = DIRECTION ( 'NONE',  ( 1.000000000000000000, -0.000000000000000000, -0.000000000000000000 ) ) ;
#852 = CARTESIAN_POINT ( 'NONE',  ( -5.800000000000002487, 7.999999999999998224, 63.82999999999999829 ) ) ;
#853 = VERTEX_POINT ( 'NONE', #431 ) ;
#854 = EDGE_CURVE ( 'NONE', #147, #550, #499, .T. ) ;
#855 = DIRECTION ( 'NONE',  ( -1.000000000000000000, 0.000000000000000000, 0.000000000000000000 ) ) ;
#856 = SPHERICAL_SURFACE ( 'NONE', #162, 2.000000000000000000 ) ;
#857 = ORIENTED_EDGE ( 'NONE', *, *, #727, .T. ) ;
#858 = CARTESIAN_POINT ( 'NONE',  ( 0.000000000000000000, 2.350000000000000089, 63.82999999999999829 ) ) ;
#859 = AXIS2_PLACEMENT_3D ( 'NONE', #129, #882, #268 ) ;
#860 = DIRECTION ( 'NONE',  ( -1.000000000000000000, 0.000000000000000000, -0.000000000000000000 ) ) ;
#861 = LINE ( 'NONE', #871, #863 ) ;
#862 = ORIENTED_EDGE ( 'NONE', *, *, #662, .T. ) ;
#863 = VECTOR ( 'NONE', #660, 1000.000000000000000 ) ;
#864 = VECTOR ( 'NONE', #455, 1000.000000000000000 ) ;
#865 = FACE_OUTER_BOUND ( 'NONE', #82, .T. ) ;
#866 = PLANE ( 'NONE',  #152 ) ;
#867 = DIRECTION ( 'NONE',  ( 0.000000000000000000, 0.000000000000000000, 1.000000000000000000 ) ) ;
#868 = ORIENTED_EDGE ( 'NONE', *, *, #108, .T. ) ;
#869 = DIRECTION ( 'NONE',  ( 1.000000000000000000, 0.000000000000000000, 0.000000000000000000 ) ) ;
#870 = LINE ( 'NONE', #478, #658 ) ;
#871 = CARTESIAN_POINT ( 'NONE',  ( -7.800000000000002487, 4.799999999999999822, 63.82999999999999829 ) ) ;
#872 = EDGE_LOOP ( 'NONE', ( #628, #441, #282, #429 ) ) ;
#873 = DIRECTION ( 'NONE',  ( 1.000000000000000000, 1.224646799147353454E-16, -0.000000000000000000 ) ) ;
#874 = VERTEX_POINT ( 'NONE', #836 ) ;
#875 = CARTESIAN_POINT ( 'NONE',  ( -7.800000000000002487, 5.999999999999998224, 2.000000000000001776 ) ) ;
#876 =( GEOMETRIC_REPRESENTATION_CONTEXT ( 3 ) GLOBAL_UNCERTAINTY_ASSIGNED_CONTEXT ( ( #164 ) ) GLOBAL_UNIT_ASSIGNED_CONTEXT ( ( #370, #840, #774 ) ) REPRESENTATION_CONTEXT ( 'NONE', 'WORKASPACE' ) );
#877 = VERTEX_POINT ( 'NONE', #641 ) ;
#878 = EDGE_CURVE ( 'NONE', #359, #147, #452, .T. ) ;
#879 = CARTESIAN_POINT ( 'NONE',  ( -4.449999999999999289, 5.150000000000000355, 63.82999999999999829 ) ) ;
#880 = ADVANCED_FACE ( 'NONE', ( #575 ), #18, .F. ) ;
#881 = VECTOR ( 'NONE', #656, 1000.000000000000000 ) ;
#882 = DIRECTION ( 'NONE',  ( 0.000000000000000000, -1.000000000000000000, 0.000000000000000000 ) ) ;
#883 = ORIENTED_EDGE ( 'NONE', *, *, #92, .T. ) ;
#884 = DIRECTION ( 'NONE',  ( 1.000000000000000000, 0.000000000000000000, 0.000000000000000000 ) ) ;
#885 = EDGE_CURVE ( 'NONE', #716, #701, #362, .T. ) ;
#886 = FACE_OUTER_BOUND ( 'NONE', #872, .T. ) ;
#887 = VERTEX_POINT ( 'NONE', #295 ) ;
ENDSEC;
END-ISO-10303-21;
